<svg width="629" height="524" viewBox="0 0 629 524" fill="none" xmlns="http://www.w3.org/2000/svg">
<path d="M526.729 117.317C534.994 109.163 549.408 106.797 554.4 120.168C559.392 133.54 555.954 149.506 560.582 153.669C565.21 157.832 597.839 161.766 616.419 176.05C634.998 190.334 633.378 208.325 602.931 217.42C572.483 226.515 529.11 222.894 529.11 222.894L526.729 117.317Z" fill="#FEF0BB"/>
<path d="M26.5467 198.403C22.4804 198.403 10.5131 188.738 5.48809 192.701C0.463119 196.664 10.8767 208.867 9.15764 212.887C7.43857 216.907 -1.09066 222.466 1.98383 228.739C5.05832 235.011 17.0918 228.083 19.2076 229.252C21.3234 230.421 21.9845 245.646 26.6459 246.017C31.3072 246.387 32.4973 226.059 34.4478 224.405C36.3983 222.752 56.4981 224.662 57.2585 221.041C58.0189 217.42 40.4645 210.406 39.7042 208.724C38.9438 207.042 49.6219 194.468 46.1507 191.133C42.6795 187.797 30.1832 198.432 26.5467 198.403Z" fill="#FEF0BB"/>
<path d="M208.371 159.571C207.214 150.675 206.917 132.286 210.454 130.005C213.991 127.724 249.695 125.529 268.208 124.759C286.721 123.989 349.996 129.206 361.765 127.952C373.534 126.697 395.089 121.537 403.981 125.471C412.874 129.406 413.469 136.505 412.246 143.804C410.47 160.056 410.05 176.397 410.99 192.701C412.345 202.68 413.238 213.714 409.205 217.734C405.172 221.754 395.353 220.585 389.601 222.352C383.849 224.12 380.609 228.169 377.303 226.03C373.997 223.892 371.947 213.486 375.154 210.264C375.154 210.264 385.568 213.115 387.154 210.72C388.741 208.325 386.526 141.723 384.576 140.725C382.625 139.727 320.243 139.185 309.069 139.356C297.895 139.527 220.636 139.356 218.091 140.868C215.545 142.379 218.091 159.656 218.091 159.656L208.371 159.571Z" fill="#FEF0BB"/>
<path d="M433.503 314.928C438.197 310.167 445.702 311.877 449.14 317.409C452.578 322.94 457.107 329.355 454.363 338.706C451.619 348.058 444.908 349.883 438.859 349.797C435.316 349.811 431.854 348.885 428.941 347.146C427.751 340.987 428.181 340.987 427.751 338.592C426.076 333.764 426.008 328.627 427.552 323.767C430.197 316.81 433.503 314.928 433.503 314.928Z" fill="#FEF0BB"/>
<path d="M349.798 187.141V185.402C349.798 185.402 346.492 185.402 341.004 185.402C341.004 183.862 340.806 182.55 341.004 181.382C340.999 179.387 341.165 177.396 341.5 175.423L339.582 175.793C339.582 175.793 339.582 181.752 339.582 185.43C335.318 185.43 330.028 185.43 324.276 185.43C324.276 181.353 324.574 175.138 324.574 175.138L322.193 175.679C322.193 176.506 322.193 180.384 322.425 185.402C319.45 185.402 316.342 185.402 313.234 185.202L303.614 184.917C303.614 180.07 303.383 175.594 303.284 175.309C303.184 175.024 301.895 175.309 301.895 175.309C301.895 175.309 301.895 179.585 302.193 184.803L285.663 184.347C285.663 183.691 285.663 183.149 285.663 182.75C285.663 179.215 285.663 175.907 285.663 175.907L284.043 176.221C284.043 176.221 284.043 180.298 284.043 184.29L266.787 183.833C266.787 178.73 267.084 175.109 267.084 175.109L265.398 175.508C265.398 175.508 265.398 179.414 265.398 183.805L248.604 183.32C248.604 179.842 248.835 175.651 248.835 175.651H247.116C247.015 176.666 247.015 177.686 247.116 178.701C247.116 179.5 247.116 181.353 247.116 183.263L226.455 182.636C226.455 181.039 226.223 179.357 226.19 178.359C226.19 176.25 224.868 176.421 225 178.359C225 179.272 225 180.954 225.198 182.579L218.851 182.55C214.619 182.55 210.156 182.294 205.627 182.208C205.611 182.085 205.611 181.961 205.627 181.838C205.627 178.987 205.627 174.453 205.627 174.453L204.338 174.624C204.338 174.624 204.338 178.502 204.338 182.208C199.677 182.208 195.048 182.208 190.652 182.208C190.553 179.483 190.719 176.756 191.147 174.054C191.842 172.515 189.098 173.427 189.098 173.427C189.098 173.427 189.098 177.133 189.098 182.208H173.99V181.467C173.99 176.364 173.593 173.113 173.593 173.113L172.039 173.455C172.039 173.455 172.039 176.934 172.403 182.208H162.948L162.651 183.919C162.651 183.919 166.552 183.919 172.568 183.634C172.568 186.485 172.833 189.792 172.965 193.328H163.642L163.874 194.725C166.896 194.359 169.95 194.235 172.998 194.354C173.196 198.802 173.395 203.535 173.56 208.096C170.35 208.058 167.143 208.258 163.973 208.695L163.709 209.75C165.56 209.579 169.262 209.437 173.626 209.351C173.825 214.597 174.023 219.558 174.188 223.607C168.171 223.778 162.915 223.92 162.287 224.034C160.865 224.291 160.204 225.346 162.287 225.203L174.287 225.032C174.453 228.881 174.552 231.732 174.552 232.901C174.552 234.07 174.552 236.408 174.783 239.259C168.568 239.259 163.411 239.259 161.824 239.259C158.981 239.259 160.138 241.027 161.824 240.742C162.419 240.742 167.907 240.571 174.816 240.514C174.816 244.448 175.18 249.238 175.378 253.914H164.932C163.51 253.914 162.717 255.368 165.13 255.454C165.692 255.454 169.593 255.454 175.444 255.454C175.676 260.842 175.907 265.889 176.04 269.053C171.18 269.053 167.775 269.053 167.081 269.053C164.535 269.053 165.13 270.251 166.816 270.222C168.502 270.194 172.535 270.222 176.106 270.222C176.106 271.448 176.106 272.218 176.106 272.389C176.106 273.615 177.362 274.499 177.395 272.389C177.395 272.104 177.395 271.334 177.395 270.222H190.784C190.784 271.306 190.784 272.133 190.784 272.475C191.048 274.299 192.536 274.128 192.536 272.19C192.536 271.876 192.536 271.192 192.536 270.222H206.454C206.454 271.391 206.454 272.161 206.454 272.361C206.718 273.672 207.975 273.986 207.975 272.503C207.975 272.275 207.975 271.448 207.975 270.222H210.52C213.297 270.222 220.041 270.222 226.289 270.393C226.289 272.76 226.289 275.126 226.289 275.126L228.107 275.297C228.107 275.297 228.107 273.359 228.107 270.422C232.769 270.422 236.934 270.422 238.653 270.422H246.587C246.587 273.073 246.852 274.955 246.852 274.955L248.902 275.155C248.902 275.155 248.902 273.188 248.571 270.422C254.753 270.422 261.795 270.422 265.431 270.422H266.687C266.687 272.931 266.886 274.67 266.886 274.67L268.506 275.098C268.506 275.098 268.506 273.159 268.274 270.393C272.969 270.393 280.671 270.194 287.415 270.137C287.415 272.988 287.415 274.727 287.415 274.727L288.87 275.24C288.87 275.24 288.87 273.159 288.87 270.108C293.663 270.108 297.763 270.108 299.548 270.108C301.333 270.108 302.854 270.108 304.87 269.937C304.87 272.788 304.87 274.955 304.87 274.955L306.523 275.468C306.523 275.468 306.523 273.159 306.325 269.766C311.714 269.481 318.193 269.025 322.028 269.196H322.755V276.124H324.408C324.408 276.124 324.408 273.273 324.408 269.339C329.334 269.339 334.128 269.339 336.607 269.167L341.731 268.968C341.731 269.852 341.731 270.593 341.731 270.992C341.731 272.845 343.682 272.902 343.616 270.992C343.616 270.736 343.616 269.966 343.616 268.825H345.169C347.649 268.825 347.219 267.514 345.401 267.428H343.55C343.55 264.577 343.55 260.586 343.252 256.252H345.665C347.55 256.252 348.409 255.14 345.236 254.912H343.219C343.219 249.552 342.954 243.964 342.855 240.029H345.136C347.583 240.029 347.153 239.459 345.632 239.145C344.711 239.029 343.776 239.029 342.855 239.145C342.855 237.919 342.855 236.893 342.855 236.123C342.855 234.127 342.855 230.164 342.855 225.574H346.36C348.211 225.574 347.715 224.376 346.128 224.376H342.822C342.822 220.071 342.822 215.31 342.624 211.119H346.459C348.046 211.119 347.219 210.235 346.459 210.092L342.756 209.864C342.756 205.16 342.591 201.311 342.525 199.942C342.54 199.686 342.54 199.429 342.525 199.173C343.153 199.173 343.616 199.173 343.847 199.173C345.798 199.173 346.426 197.747 344.343 197.747C343.979 197.747 343.285 197.747 342.392 197.747C342.128 194.896 341.533 190.705 341.202 187.112L349.798 187.141ZM307.879 186.371L322.491 186.713C322.491 189.735 322.491 193.071 322.491 196.378C316.706 196.093 307.78 196.065 303.846 195.979V195.352C303.846 193.185 303.846 189.65 303.581 186.228L307.879 186.371ZM304.176 209.18C308.474 209.379 319.218 210.149 322.193 210.235H322.722V213.913C322.722 216.593 322.722 220.356 323.02 224.063H305.664C305.003 224.063 304.275 223.065 304.275 222.124C304.275 221.183 304.077 215.68 304.011 209.322L304.176 209.18ZM304.176 207.669C304.176 203.677 304.176 199.714 304.176 197.034L322.788 197.975C322.788 201.91 322.788 205.702 322.788 208.724L304.176 207.669ZM302.292 186.057C302.292 189.308 302.49 192.815 302.589 195.808C298.655 195.808 289.366 194.867 286.291 194.81H285.795C285.795 191.703 285.795 188.196 285.795 185.573L302.292 186.057ZM284.506 185.544C284.506 188.139 284.506 190.477 284.506 191.417C284.506 192.358 284.506 193.584 284.506 194.753C280.109 194.753 271.58 194.24 267.646 194.155C267.646 191.902 267.646 189.792 267.646 187.854C267.646 186.913 267.646 185.972 267.646 185.002L284.506 185.544ZM265.96 185.059C265.96 187.911 265.96 191.104 265.96 193.128C265.96 193.413 265.96 193.755 265.96 194.126C261.266 194.126 252.736 194.126 248.703 194.126C248.703 193.242 248.703 192.387 248.703 191.988C248.703 191.132 249.364 189.137 249.331 187.568C249.331 187.112 249.331 186.057 249.331 184.717L265.96 185.059ZM225.859 183.976C225.902 184.851 226.046 185.72 226.289 186.571C226.818 188.082 228.008 187.654 227.579 186.571C227.35 185.718 227.206 184.85 227.149 183.976C234.653 184.29 241.662 184.603 247.348 184.717H247.678C247.678 186.257 247.678 187.568 247.678 188.196C247.678 188.823 247.678 192.016 247.48 194.126H246.786C244.439 193.898 244.439 195.209 245.794 195.238H247.447V196.293C247.447 197.547 248.571 197.091 248.571 196.464C248.571 195.837 248.571 195.808 248.571 195.266H251.877H265.894C265.894 198.289 265.894 202.337 265.894 205.759C263.977 205.759 262.324 205.53 261.266 205.388C260.208 205.245 259.084 206.129 260.472 206.471C260.968 206.471 263.183 206.699 265.894 206.814C265.894 210.064 265.894 212.516 265.894 212.516C266.545 212.904 267.078 213.423 267.448 214.027C267.448 211.689 267.448 209.294 267.448 206.899C272.142 207.07 277.365 207.213 278.192 207.184C279.018 207.156 279.316 206.072 277.894 206.072C276.473 206.072 271.944 206.072 267.448 205.844C267.448 202.223 267.448 198.659 267.216 195.323L274.059 195.466L284.176 195.894C284.176 197.291 284.176 198.46 284.176 198.745C284.315 200.102 284.671 201.435 285.233 202.708C285.498 203.05 285.564 203.021 285.63 201.14C285.63 200.484 285.63 198.289 285.63 195.865L299.945 196.578H302.457C302.457 198.716 302.457 200.541 302.457 201.71C302.457 202.879 302.457 205.074 302.656 207.213H302.16C302.03 207.191 301.897 207.194 301.769 207.222C301.642 207.25 301.523 207.302 301.421 207.374C301.32 207.446 301.238 207.537 301.181 207.64C301.125 207.742 301.096 207.855 301.096 207.968C301.096 208.082 301.125 208.194 301.181 208.297C301.238 208.399 301.32 208.49 301.421 208.562C301.523 208.635 301.642 208.687 301.769 208.714C301.897 208.742 302.03 208.746 302.16 208.724C302.336 208.709 302.513 208.709 302.689 208.724C303.051 213.547 303.051 218.385 302.689 223.207C302.447 223.443 302.121 223.604 301.763 223.664C298.788 218.189 292.077 202.964 290.787 203.905C286.835 207.319 283.177 210.979 279.845 214.854C276.241 219.045 277.894 218.788 278.192 221.753C278.456 224.177 278.919 244.192 280.374 244.021C281.828 243.85 302.689 244.192 307.052 244.192C311.416 244.192 311.879 243.108 310.358 240.599C309.168 238.689 306.623 232.759 304.342 228.282C304.342 227.199 304.342 225.802 304.342 225.431C304.342 225.061 305.036 224.918 305.928 224.975H322.888C322.888 229.138 323.218 233.072 323.152 235.154C323.152 235.952 323.152 236.95 323.152 238.005C321.466 238.005 320.177 238.005 319.582 238.005C317.653 237.935 315.731 237.754 313.829 237.463C310.953 237.263 312.044 239.088 314.358 239.145C316.673 239.202 319.879 239.402 323.119 239.601C323.119 243.821 323.119 248.953 323.119 251.519C323.119 252.004 323.119 252.745 323.119 253.686L305.994 253.828C305.994 250.977 305.829 249.096 305.829 248.554C305.829 246.416 304.375 245.959 304.441 247.898C304.441 248.411 304.441 250.749 304.606 253.8H304.176C300.87 253.8 295.25 253.8 288.605 253.8C288.605 250.749 288.605 248.44 288.341 248.098C288.01 246.244 287.382 245.931 287.151 247.87C287.151 248.411 287.151 250.721 287.151 253.942H267.547C267.547 253.287 267.547 252.802 267.547 252.602C267.547 250.664 266.191 249.552 265.993 251.405C265.993 251.719 265.993 252.659 265.993 253.942C258.522 253.942 251.712 253.942 247.315 253.942C247.315 253.572 247.315 253.287 247.315 253.173C247.05 251.548 246.025 252.061 245.926 253.173C245.926 253.173 245.926 253.515 245.926 253.857H244.075C241.067 253.857 235.05 253.857 227.942 253.857C227.942 249.124 227.942 245.304 227.942 244.961C227.942 243.735 227.579 243.308 229.066 243.137C231.351 243.128 233.636 243.223 235.909 243.422L234.653 242.224L228.24 241.911C227.843 241.911 227.909 241.626 227.942 240.998C227.975 240.371 226.917 239.915 226.752 240.998C226.752 241.54 226.752 247.727 226.752 253.914L207.479 253.828C207.28 247.699 207.115 242.253 207.214 241.455C207.479 239.601 207.578 239.601 204.9 239.544C203.908 239.544 198.454 239.544 191.676 239.345C191.676 234.555 191.379 228.682 191.28 224.69H193.528C193.891 224.69 195.247 222.951 192.966 223.065H191.214C191.214 221.725 191.214 220.784 191.214 220.214C191.214 219.13 191.214 214.34 191.214 208.809C194.52 208.809 197.032 208.809 198.354 208.809C203.346 209.037 200.371 207.526 197.759 207.526H191.147C191.147 202.736 191.147 197.661 191.147 194.354C195.809 194.525 200.635 194.725 205.231 194.981C205.231 200.684 205.495 207.498 205.495 207.498L207.181 206.842C207.181 206.842 206.884 199.999 206.784 195.038L215.578 195.523L215.942 194.269L206.553 193.955C206.553 193.1 206.553 192.358 206.553 191.731C206.553 188.281 205.892 185.544 205.727 183.178C212.404 183.406 219.314 183.691 225.859 183.976ZM192.172 246.672C192.172 245.56 191.974 243.194 191.875 240.314C199.544 240.314 205.727 240.314 206.024 240.542C206.453 244.961 206.585 249.397 206.421 253.828C200.933 253.828 195.974 253.828 192.338 253.828C192.172 250.578 192.172 247.87 192.172 246.672ZM197.66 183.178H204.735C204.735 185.259 204.735 187.141 204.735 188.053C204.735 188.965 204.735 191.218 204.966 193.926L190.916 193.47V192.358C190.916 189.935 190.916 186.428 190.916 183.121L197.66 183.178ZM174.354 183.491C178.684 183.491 183.875 183.292 189.329 183.235C189.329 186.342 189.329 189.906 189.329 193.527C185.131 193.527 180.602 193.299 175.709 193.242C175.114 189.194 174.519 186.656 174.221 183.491H174.354ZM175.643 196.008C175.643 195.352 175.643 194.725 175.643 194.155C179.61 194.155 184.271 194.326 189.164 194.497C189.164 199.144 189.164 203.848 189.164 207.754C185.197 207.754 180.436 207.754 175.94 207.754C175.808 202.85 175.643 198.431 175.643 196.008ZM175.973 209.094C180.271 209.094 184.999 209.094 189.032 209.094C189.032 211.233 189.032 213.114 189.032 214.512C189.032 216.764 189.263 219.758 189.362 223.065L176.139 223.407C176.106 218.988 176.04 213.913 175.94 209.094H175.973ZM176.271 232.16C176.271 230.563 176.271 227.94 176.271 224.804L189.495 224.576C189.495 229.28 189.792 234.498 189.957 239.202L176.436 239.06C176.304 235.98 176.238 233.5 176.238 232.16H176.271ZM189.957 240.314C190.156 246.016 190.288 250.863 190.387 252.517C190.387 252.859 190.387 253.315 190.387 253.8H188.536H176.866C176.866 249.153 176.535 244.363 176.436 240.4C180.767 240.314 185.561 240.286 189.924 240.314H189.957ZM177.428 268.825C177.428 265.661 177.164 260.614 176.965 255.225H190.486C190.486 259.132 190.685 265.119 190.817 268.939L177.428 268.825ZM192.701 268.825C192.701 265.404 192.701 259.873 192.404 255.111H206.487C206.487 260.272 206.487 265.632 206.487 268.939L192.701 268.825ZM223.182 268.825C219.479 268.825 214.124 268.825 208.14 268.825C208.14 265.461 207.776 260.101 207.578 254.969H226.653C226.653 260.272 226.653 265.233 226.653 266.373C226.653 267.514 226.653 268.056 226.653 269.224L223.182 268.825ZM228.141 268.825C228.141 264.805 228.141 259.417 228.141 254.57H245.298H246.059C246.059 257.82 246.488 264.264 246.753 268.825H228.141ZM258.522 268.825C256.208 268.825 252.736 268.825 248.604 268.825C248.273 264.121 247.811 257.734 247.513 254.57L266.125 254.798C266.125 258.647 266.522 264.349 266.753 268.597C263.117 269.053 260.208 269.139 258.489 269.224L258.522 268.825ZM268.439 268.512C268.241 264.092 267.944 258.276 267.811 254.798L287.349 255.14C287.349 259.303 287.349 264.321 287.614 268.141C281.233 268.626 274.093 268.768 268.208 268.911L268.439 268.512ZM297.598 268.056H289.134C289.134 264.178 289.134 259.217 288.87 255.111L304.573 255.824C304.573 259.816 304.771 264.378 304.837 268.255C302.523 268.369 300.044 268.455 297.399 268.455L297.598 268.056ZM306.656 267.77C306.656 263.978 306.391 259.217 306.259 255.454C311.482 255.454 315.747 255.454 318.259 255.454H323.218C323.218 258.618 323.218 262.952 323.218 266.858C317.102 267.4 311.978 267.884 306.457 268.084L306.656 267.77ZM341.93 258.362C341.93 260.015 341.93 264.064 342.194 267.229C341.07 267.229 339.814 267.485 338.392 267.514C335.351 267.514 332.607 266.915 324.937 266.915C324.937 263.408 324.937 259.303 325.103 255.511C331.45 255.511 337.797 255.511 341.897 255.682C341.698 257.421 341.731 258.333 341.731 258.761L341.93 258.362ZM341.93 254.399L325.136 253.828C325.136 251.177 325.136 248.839 325.136 247.185C325.136 245.532 325.136 242.738 325.136 239.772C326.789 239.772 328.442 239.915 329.433 239.915C332.012 239.915 337.731 239.744 341.797 239.658C341.566 244.847 341.632 250.977 341.698 254.798L341.93 254.399ZM341.599 233.243C341.599 234.441 341.599 236.38 341.599 238.66H340.938C338.822 238.66 330.657 238.318 325.003 238.204C325.003 233.956 325.003 229.195 325.202 225.089H341.335C341.268 229.052 341.335 232.103 341.368 233.643L341.599 233.243ZM341.401 223.863H325.07C325.07 220.214 325.07 217.22 325.07 215.823C325.07 214.426 325.07 212.687 324.871 210.121L340.938 211.062C340.938 214.996 340.938 219.957 341.169 224.262L341.401 223.863ZM341.07 203.193C341.07 204.333 341.07 206.557 341.07 209.322L327.45 208.695H325.036C325.036 205.416 324.805 201.567 324.706 197.918C328.243 198.118 336.243 198.574 340.839 198.773C340.938 200.769 340.938 202.337 340.938 203.592L341.07 203.193ZM340.74 197.177C336.21 196.92 329.07 196.464 324.937 196.122H324.408C324.408 191.817 324.177 188.053 324.144 186.342L339.45 186.599V187.454C339.516 189.251 340.111 193.527 340.508 197.576L340.74 197.177Z" fill="#FEF0BB"/>
<path d="M236.438 42.6748C230.091 43.4446 229.529 42.8459 229.826 48.6336C230.124 54.4214 230.421 59.8385 231.645 71.4426C232.868 83.0466 230.686 96.4184 226.785 102.035C222.884 107.652 221.132 108.593 231.446 109.419C241.761 110.246 279.745 111.472 298.986 114.295C307.978 115.606 309.234 114.067 311.713 106.54C314.193 99.0129 315.912 90.6021 312.705 75.1776C309.499 59.753 307.151 48.8332 307.35 45.1268C307.548 41.4203 302.688 38.8828 293.928 39.1394C269.629 39.9948 241.331 42.1046 236.438 42.6748Z" fill="#FFC7D6"/>
<path d="M533.738 232.331C532.978 224.092 528.151 205.246 528.151 197.434C528.151 189.622 524.184 130.005 526.564 117.146C528.944 104.288 532.151 98.1007 532.416 86.183C532.68 74.2653 533.209 59.0974 531.887 56.3603C530.564 53.6232 516.812 57.1871 502.795 57.7858C488.778 58.3846 446.594 58.4986 443.288 60.2663C440.71 61.6919 443.85 119.855 442.495 140.554C441.14 161.253 442.065 181.154 441.272 189.622C440.478 198.089 443.09 208.182 443.09 216.023C443.261 224.367 444.514 232.667 446.826 240.771C448.049 242.909 451.156 242.196 454.264 242.196C457.372 242.196 473.571 243.764 486.761 243.451C499.952 243.137 517.737 242.025 523.886 242.823C530.035 243.622 534.498 240.6 533.738 232.331ZM514.134 222.238C510.332 224.605 454.099 223.265 451.487 221.64C448.875 220.014 448.842 202.338 449.305 197.063C449.768 191.788 449.305 146.342 450.198 142.322C451.09 138.301 450.032 107.509 450.032 103.033C450.032 98.5568 447.917 70.6159 451.421 67.2801C454.925 63.9443 508.481 65.883 510.927 67.9358C513.374 69.9886 513.902 104.459 514.233 108.564C514.564 112.67 515.423 168.751 515.423 172.03C515.423 175.309 517.969 219.843 514.134 222.238Z" fill="#FFC7D6"/>
<path d="M553.871 53.3095C552.879 48.5197 564.78 46.6949 567.094 44.7562C569.409 42.8174 568.78 20.5502 575.062 19.8374C581.343 19.1246 588.616 35.6041 590.963 36.9441C593.31 38.2841 607.03 34.093 608.848 38.2556C610.666 42.4183 597.806 49.2039 597.244 52.3402C596.682 55.4764 611.063 65.8259 608.418 68.7056C605.773 71.5852 587.624 65.4553 584.12 65.4553C580.616 65.4553 573.673 77.6296 569.045 76.4321C564.417 75.2346 568.218 59.696 567.524 58.356C566.83 57.016 554.863 58.0139 553.871 53.3095Z" fill="#FFC7D6"/>
<path d="M401.502 260.957C396.576 262.04 396.212 266.146 396.113 269.025C396.014 271.905 396.113 286.588 396.345 289.781C396.576 292.975 402.494 295.712 410.362 297.394C418.23 299.076 424.974 298.249 428.412 293.687C431.85 289.126 438.33 276.951 437.007 268.712C435.685 260.472 435.52 260.643 430.627 260.757C425.734 260.871 401.502 260.957 401.502 260.957Z" fill="#FFC7D6"/>
<path d="M164.072 302.298C162.65 299.104 165.824 297.565 169.791 299.446C175.755 303.164 180.97 307.701 185.23 312.875C189.759 318.264 198.784 330.524 201.759 333.745C204.734 336.967 204.801 344.751 196.833 340.274C188.866 335.798 171.279 313.018 168.535 309.653C166.59 307.429 165.082 304.944 164.072 302.298Z" fill="#FFC7D6"/>
<path d="M152.303 295.198C146.022 289.04 106.02 291.578 100.433 293.659C92.6315 296.51 91.7389 308.599 90.5157 314.957C89.2925 321.315 83.9039 330.923 83.9039 336.682C83.9039 342.441 83.9039 342.926 87.5074 343.639C91.1108 344.352 135.939 345.492 142.22 344.409C148.501 343.325 152.766 340.959 153.89 334.572C155.014 328.186 158.551 301.357 152.303 295.198ZM112.302 323.082C108.604 323.984 104.72 324.169 100.929 323.624C96.9953 322.997 97.8218 318.464 102.086 318.093C105.607 317.854 109.144 317.854 112.665 318.093C116.566 318.407 115.674 322.256 112.302 323.082ZM114.913 309.083C110.751 309.667 106.525 309.839 102.318 309.597C98.0532 308.998 100.268 304.236 104.698 304.636C107.619 304.579 110.54 304.75 113.426 305.149C116.798 305.919 117.889 308.912 114.913 309.083ZM125.393 312.818C128.735 313.024 132.051 313.462 135.311 314.13C138.154 314.9 137.922 318.606 134.815 318.207C131.707 317.808 128.567 318.663 124.401 318.207C120.236 317.751 121.955 312.448 125.393 312.818ZM136.864 330.809C134.55 331.23 132.17 331.317 129.823 331.065C127.145 330.78 128.137 330.096 125.724 329.07C123.31 328.043 124.93 325.62 128.236 326.219C130.153 326.589 133.889 326.931 136.534 327.388C137.06 327.35 137.582 327.494 137.985 327.788C138.388 328.082 138.639 328.502 138.683 328.956C138.727 329.409 138.56 329.86 138.219 330.207C137.878 330.555 137.391 330.771 136.864 330.809ZM137.724 308C133.526 307.43 132.93 307.002 130.682 306.802C127.377 306.489 127.377 303.666 130.682 303.296C133.317 303.028 135.986 303.404 138.385 304.379C140.699 305.32 141.956 308.741 137.724 308.171V308Z" fill="#FFC7D6"/>
<path d="M249.232 212.174C251.038 210.503 252.492 208.573 253.53 206.472C253.926 204.561 233.694 189.735 230.785 190.448C227.876 191.161 218.322 203.478 213.727 208.695C208.791 214.429 204.485 220.548 200.867 226.971C199.809 229.822 198.784 232.217 203.181 235.125C207.578 238.033 215.413 241.797 218.024 243.679C220.636 245.56 222.025 246.017 222.653 244.021C225.121 239.466 228.064 235.114 231.446 231.02C231.383 225.629 233.659 220.412 237.827 216.393C244.736 209.921 249.232 212.174 249.232 212.174Z" fill="#FFC7D6"/>
<path d="M21.0588 52.9674C28.8607 59.696 35.5056 67.7362 38.8445 65.8544C42.1835 63.9727 39.8363 45.0983 33.522 38.9399C15.8354 21.6906 1.85148 36.4024 21.0588 52.9674Z" fill="#A6EEF8"/>
<path d="M14.9429 88.692C23.3399 93.1967 38.0842 100.98 40.2992 98.8134C42.5141 96.6466 33.1584 82.9042 24.9929 76.0045C0.595308 55.5334 -10.4133 75.0066 14.9429 88.692Z" fill="#A6EEF8"/>
<path d="M83.5074 35.775C77.1931 36.5448 74.9121 38.8257 74.7137 43.9577C74.5154 49.0897 74.9782 78.8554 74.5154 86.7245C74.0525 94.5936 74.5154 121.423 72.0359 131.772C69.5565 142.122 71.2756 162.935 71.8706 165.986C72.4657 169.036 141.096 172.771 141.096 172.771C139.85 168.942 140.409 164.843 142.65 161.367L85.8215 155.379C85.0467 145.287 83.6563 135.238 81.6561 125.272C79.1767 116.091 77.4576 111.016 77.9204 101.978C78.3833 92.94 79.1767 79.1691 78.8461 70.6157C78.5155 62.0623 80.5652 51.9694 79.4742 49.1753C78.3833 46.3812 75.1435 43.8437 82.2512 43.9862C89.3589 44.1288 129.625 48.2629 139.807 48.548C146.686 48.7113 153.545 49.2733 160.337 50.2302C162.714 59.7458 163.824 69.4647 163.642 79.1976C163.114 94.3085 162.386 117.545 161.328 128.037C160.27 138.529 159.213 156.377 161.064 156.377C162.915 156.377 165.163 155.493 168.271 155.493C171.089 155.707 173.866 156.224 176.535 157.033C184.701 147.767 182.155 110.132 181.99 102.235C181.825 94.337 180.007 49.2608 177.726 43.7011C175.445 38.1415 175.775 33.6082 168.535 33.9503C161.295 34.2924 145.03 35.2903 140.832 35.4044C136.633 35.5184 83.5074 35.775 83.5074 35.775Z" fill="#A6EEF8"/>
<path d="M145.328 191.104C130.187 190.591 107.409 195.466 96.3011 211.062C85.1933 226.657 75.9368 235.211 59.0105 242.168C42.0843 249.124 38.6462 256.423 42.481 262.867C46.3159 269.31 71.1101 271.049 89.0612 266.003C107.012 260.956 146.518 265.661 146.518 265.661C146.518 265.661 144.303 206.186 144.303 199.23C144.303 192.273 145.328 191.104 145.328 191.104Z" fill="#A6EEF8"/>
<path d="M351.946 160.454C335.219 161.082 206.057 162.621 193.726 162.935C181.395 163.249 167.642 161.025 160.303 166.1C151.972 171.802 151.014 183.891 151.873 194.611C152.733 205.331 151.708 245.389 154.187 259.103C156.667 272.817 157.493 278.006 157.791 281.627C158.088 285.248 224.967 287.329 256.174 287.529C287.382 287.728 329.565 291.064 347.054 288.555C366.658 285.704 373.765 276.809 370.195 253.914C367.391 238.631 368.201 223.017 372.575 208.011C375.584 196.806 368.674 159.742 351.946 160.454ZM349.169 275.183C344.541 278.89 330.094 275.982 304.573 275.982C279.051 275.982 248.571 276.153 224.868 276.153C201.164 276.153 165.956 276.153 162.915 273.615C159.874 271.078 158.816 254.941 159.774 241.626C160.733 228.311 162.915 207.412 162.584 193.955C162.254 180.498 162.088 173.484 162.088 173.484C163.721 173.145 165.403 173.01 167.08 173.085C170.75 173.085 215.181 174.282 243.116 174.967C271.051 175.651 333.499 173.912 338.987 174.282C344.475 174.653 349.136 170.177 352.211 194.839C355.285 219.501 353.765 271.477 349.169 275.183Z" fill="#A6EEF8"/>
<path d="M263.679 215.082C247.943 211.119 238.785 218.902 237.232 228.083C235.678 237.264 238.455 245.589 245.067 248.126C251.678 250.664 270.886 253.829 276.208 238.376C278.919 230.193 271.514 217.049 263.679 215.082Z" fill="#A6EEF8"/>
<path d="M337.367 49.1184C337.367 46.0677 337.996 46.2672 340.673 46.0677C343.351 45.8681 392.212 42.6463 401.006 43.017C409.8 43.3876 412.048 43.188 411.651 50.9431C411.254 58.6981 411.42 73.752 414.56 81.9062C417.701 90.0604 420.412 106.939 417.271 110.161C414.13 113.383 397.865 109.619 383.881 110.531C369.897 111.444 356.112 110.36 347.12 112.698C338.128 115.036 332.111 116.291 333.566 107.281C335.02 98.2716 337.367 53.281 337.367 49.1184Z" fill="#A6EEF8"/>
<path d="M434.396 38.2841C428.577 37.3717 431.85 21.6906 434.825 13.6789C439.156 1.96081 450.561 -2.03075 458.463 2.27443C466.364 6.57962 458.892 15.9598 451.487 21.8616C444.082 27.7634 439.883 39.1109 434.396 38.2841Z" fill="#A6EEF8"/>
<path d="M498.133 176.307C496.514 165.758 489.241 147.796 489.538 145.657C489.836 143.519 490.232 143.063 496.15 141.095C502.067 139.128 500.282 132.542 498.365 130.917C496.447 129.292 494.266 129.121 494.861 128.322C495.409 126.31 495.828 124.273 496.117 122.221C496.844 119.37 496.282 117.745 493.869 117.174C491.456 116.604 489.571 118.971 488.679 121.736C488.586 122.329 488.357 122.899 488.003 123.413C487.65 123.927 487.18 124.375 486.621 124.729C486.062 125.083 485.427 125.336 484.752 125.473C484.078 125.611 483.378 125.629 482.695 125.528C481.16 125.507 479.646 125.223 478.239 124.695C476.832 124.167 475.56 123.403 474.496 122.449C472.414 120.339 471.025 114.865 467.686 115.293C464.347 115.72 464.38 119.655 465.967 126.041C465.967 126.041 463.157 126.954 462.397 131.23C461.92 133.166 462.083 135.178 462.866 137.038C463.649 138.897 465.021 140.53 466.827 141.751C469.621 143.145 472.76 143.947 475.984 144.089C477.835 144.688 475.058 147.51 472.38 154.581C470.228 162.23 468.583 169.979 467.455 177.789C466.302 176.595 465.511 175.173 465.153 173.65C464.796 172.127 464.882 170.552 465.405 169.065C467.035 162.785 466.865 156.258 464.909 150.048C463.752 146.341 458.926 145.914 461.207 150.932C463.488 155.95 462.628 167.44 461.207 172.8C459.785 178.16 459.256 183.092 465.636 187.825C464.975 192.045 464.413 195.609 464.05 197.747C462.727 205.816 471.752 210.919 475.753 209.152C479.753 207.384 483.819 208.752 487.819 209.152C491.819 209.551 492.679 210.691 497.737 204.162C502.795 197.633 499.621 186.856 498.133 176.307Z" fill="#A6EEF8"/>
<path d="M490.695 312.533C487.389 312.533 486.827 311.079 487.058 309.197C487.29 307.316 488.976 305.919 491.455 307.088C493.935 308.256 493.869 307.458 494.96 306.916C496.051 306.375 497.042 306.061 499.423 307.544C500.05 308.046 500.801 308.42 501.62 308.637C502.438 308.855 503.303 308.91 504.15 308.798C504.448 308.766 504.75 308.789 505.037 308.865C505.324 308.941 505.589 309.069 505.814 309.24C506.039 309.411 506.219 309.622 506.342 309.858C506.466 310.094 506.53 310.35 506.53 310.609C506.53 310.867 506.466 311.123 506.342 311.359C506.219 311.595 506.039 311.806 505.814 311.977C505.589 312.148 505.324 312.276 505.037 312.352C504.75 312.429 504.448 312.451 504.15 312.419C500.91 312.533 493.307 312.647 490.695 312.533Z" fill="#A6EEF8"/>
<path d="M527.887 307.059C524.085 306.118 522.829 308.171 520.647 308.085C518.465 308 516.547 308.741 516.514 310.537C516.481 312.333 518.828 311.621 520.316 311.792C521.804 311.963 520.316 312.619 522.531 312.989C524.637 313.147 526.758 313.08 528.845 312.79L527.887 307.059Z" fill="#A6EEF8"/>
<path d="M502.497 320.687C495.257 320.858 496.447 317.836 507.026 317.237C510.793 317.011 514.559 317.692 517.903 319.205C520.878 320.602 517.043 322.597 512.812 322.056C509.435 321.305 505.98 320.847 502.497 320.687Z" fill="#A6EEF8"/>
<path d="M483.092 327.958C485.922 327.033 488.924 326.56 491.951 326.561C495.208 326.579 498.442 327.031 501.538 327.901C504.844 328.984 504.613 330.98 500.183 331.037C495.464 331.341 490.728 331.398 486.001 331.208C484.886 331.029 483.782 330.8 482.695 330.524L483.092 327.958Z" fill="#A6EEF8"/>
<path d="M529.771 329.298C523.82 328.072 522.696 327.302 520.514 327.701C518.333 328.1 517.209 330.552 520.911 331.55C523.997 332.179 527.188 332.324 530.333 331.978L529.771 329.298Z" fill="#A6EEF8"/>
<path d="M483.984 338.165C483.984 338.165 497.009 338.535 509.935 338.165C522.861 337.794 532.019 338.678 534.763 338.165C537.507 337.651 537.242 339.676 535.854 341.272C534.465 342.869 537.474 345.663 532.548 345.121C525.065 344.166 517.527 343.566 509.968 343.325C505.241 343.525 483.521 342.47 483.521 342.47L483.984 338.165Z" fill="#A6EEF8"/>
<path d="M317.532 317.465C317.532 314.358 318.391 312.875 325.036 312.961C331.681 313.046 349.698 315.127 364.707 314.472C379.716 313.816 399.386 312.675 402.262 313.303C405.138 313.93 405.237 326.161 403.254 334.401C401.27 342.641 401.601 346.917 385.766 346.347C369.93 345.777 347.847 348.913 340.111 348.343C332.375 347.773 319.648 348.343 317.664 340.673C315.681 333.004 317.499 320.573 317.532 317.465Z" fill="#A6EEF8"/>
<path d="M236.802 293.26C238.289 292.233 247.414 293.26 254.654 292.861C261.894 292.461 267.018 291.007 269.927 291.72C272.836 292.433 274.555 292.376 273.795 295.056C273.034 297.736 273.795 299.133 274.853 299.304C277.372 298.831 279.83 298.144 282.192 297.251C285.894 296.282 288.539 298.962 288.804 302.298C289.068 305.634 284.837 315.498 278.159 317.779C271.481 320.06 245.595 322.227 237.529 318.121C229.463 314.016 229.562 311.25 229.793 307.658C230.025 304.065 230.653 300.473 233.099 298.62C234.9 297.173 236.184 295.314 236.802 293.26Z" fill="#A6EEF8"/>
<path d="M112.83 60.9788C115.4 61.7716 118.183 61.8906 120.831 61.321C123.806 61.1214 124.137 62.8321 130.98 62.3474C137.823 61.8627 130.451 57.2439 124.368 57.5575C120.398 57.9554 116.38 57.8014 112.467 57.1013C108.004 56.303 108.268 59.1256 112.83 60.9788Z" fill="#471280"/>
<path d="M106.913 75.4912C107.817 75.9585 108.851 76.2054 109.905 76.2054C110.959 76.2054 111.993 75.9585 112.897 75.4912C117.294 73.1247 116.203 76.1754 120.699 75.4912C125.195 74.8069 124.93 73.3243 127.31 74.1511C129.691 74.978 137.493 75.5197 139.476 74.4077C141.46 73.2958 140.964 74.0941 142.518 74.7499C144.071 75.4056 144.402 71.243 141.757 70.8724C139.113 70.5017 138.451 71.3285 135.674 71.7847C131.178 72.526 130.451 71.0149 128.203 70.9009C125.955 70.7868 123.74 72.0413 120.236 71.8417C116.732 71.6421 115.74 69.4468 112.765 71.0434C107.211 73.8945 108.302 68.62 102.252 70.7583C98.7144 72.0128 98.1524 75.6907 102.252 74.0941C106.351 72.4975 105.062 74.6358 106.913 75.4912Z" fill="#471280"/>
<path d="M126.385 87.0667C123.905 87.0667 123.079 87.808 120.335 87.6084C117.591 87.4089 119.443 83.5028 112.831 85.3845C110.946 85.9263 109.194 86.9242 107.31 87.5514C104.83 88.4067 104.004 90.4025 107.31 90.4025C109.585 90.4298 111.822 89.8956 113.756 88.8629C115.608 88.1501 116.037 88.3782 117.36 89.6897C118.682 91.0013 119.641 90.8302 122.815 90.8017C125.302 90.4223 127.853 90.4708 130.319 90.9442C133.361 91.9093 136.608 92.2983 139.84 92.0847C143.146 91.714 143.576 89.8893 139.179 89.2336C133.195 88.6063 132.005 87.2093 126.385 87.0667Z" fill="#471280"/>
<path d="M111.343 108.422C112.267 109.044 113.366 109.443 114.528 109.579C115.69 109.714 116.872 109.58 117.955 109.192C120.599 108.365 122.418 107.281 123.839 107.766C125.356 108.438 127.077 108.687 128.765 108.479C130.71 107.993 132.794 108.146 134.616 108.906C137.922 109.847 139.278 108.194 137.922 107.452C136.567 106.711 134.021 104.601 131.707 105.542C130.665 105.936 129.539 106.14 128.401 106.14C127.263 106.14 126.138 105.936 125.095 105.542C124.031 105.198 122.898 105.041 121.763 105.081C120.627 105.12 119.512 105.354 118.484 105.77C116.004 106.711 114.946 107.082 114.087 106.512C113.227 105.941 112.831 104.117 109.525 105.029C106.219 105.941 102.913 107.082 103.872 107.88C105.359 109.163 109.855 107.196 111.343 108.422Z" fill="#471280"/>
<path d="M143.906 126.84C141.691 125.956 140.204 126.412 139.311 125.728C138.736 125.294 138.036 125.004 137.284 124.889C136.533 124.773 135.759 124.836 135.046 125.072C133.46 125.642 132.931 126.554 130.848 125.785C129.811 125.373 128.683 125.159 127.542 125.159C126.401 125.159 125.273 125.373 124.236 125.785C123.52 126.267 122.647 126.543 121.739 126.574C120.831 126.605 119.935 126.388 119.178 125.956C118.032 125.405 116.758 125.082 115.449 125.008C114.139 124.934 112.827 125.111 111.607 125.528C108.797 126.44 108.103 125.528 105.591 126.07C103.078 126.611 104.037 128.921 105.194 128.436C106.351 127.951 107.409 128.436 108.996 128.892C110.583 129.349 111.409 127.894 114.054 127.894C115.242 127.878 116.403 128.198 117.36 128.807C118.305 129.411 119.436 129.763 120.611 129.819C121.786 129.874 122.955 129.632 123.972 129.12C126.953 128.566 130.053 128.734 132.931 129.605C135.112 129.919 136.865 128.18 138.782 128.978C140.949 129.786 143.358 129.976 145.658 129.52C147.245 129.035 146.121 127.723 143.906 126.84Z" fill="#471280"/>
<path d="M127.443 142.635C124.666 142.635 113.624 142.635 110.913 142.835C108.202 143.034 107.971 146.37 110.549 146.256C113.128 146.142 123.971 146.256 127.079 146.256C130.186 146.256 130.186 142.635 127.443 142.635Z" fill="#471280"/>
<path d="M231.446 102.206C237.529 103.033 245.364 104.572 253.662 105.998C276.803 109.99 305.234 109.248 307.284 109.305C312.243 109.305 310.821 84.1014 309.135 75.377C307.201 64.3333 305.965 53.207 305.433 42.0474C305.234 35.6324 306.821 35.2618 295.515 35.8605C293.399 35.8605 289.862 36.0886 285.597 36.2312C285.175 34.9303 284.656 33.6542 284.043 32.4107C282.523 29.3029 278.919 28.3906 278.754 32.8098C278.754 33.8647 278.754 35.1192 278.754 36.4022C267.977 36.6873 254.489 36.9439 243.414 37.115C242.753 35.4899 242.025 33.9503 241.662 32.8668C240.472 29.531 236.24 27.9344 236.538 32.6387C236.538 34.0928 236.703 35.6609 236.868 37.2005C230.653 37.2005 225.826 37.2005 223.644 37.2005C215.314 37.1435 218.124 40.3368 218.785 42.5892C221.826 52.7676 221.727 78.9694 217.429 91.6854C212.966 104.943 217.033 100.267 231.446 102.206ZM238.058 42.4751C238.348 43.1367 238.886 43.6956 239.587 44.0625C240.288 44.4294 241.112 44.5832 241.926 44.4994C242.506 44.4895 243.063 44.2996 243.494 43.9644C243.925 43.6293 244.202 43.1714 244.273 42.6747C257.266 42.9883 269.167 42.6747 279.746 42.3326C280.572 44.1002 281.828 45.1837 283.713 44.8986C285.597 44.6134 285.961 43.5585 286.159 42.0474C290.787 41.8764 295.118 41.7623 299.151 41.7053C299.151 41.7053 300.97 44.1858 299.912 53.4519C298.854 62.718 304.705 86.81 302.358 104.059C302.358 104.059 288.705 102.719 277.2 101.721C265.696 100.723 267.282 100.438 225.463 94.0518C227.876 85.4985 231.645 52.6821 225.463 41.7053C229.793 42.076 234.025 42.304 238.19 42.4751H238.058Z" fill="#471280"/>
<path d="M244.472 59.4962C247.018 59.4678 249.562 59.63 252.075 59.9809C256.338 59.5826 260.637 59.573 264.902 59.9523C268.883 60.4176 272.929 60.2436 276.836 59.4391C280.506 59.1255 279.679 55.9038 277.398 55.6472C275.117 55.3906 274.489 56.6165 269.332 55.6472C261.389 54.9653 253.394 54.8603 245.43 55.3335C241.496 55.8752 240.009 59.6672 244.472 59.4962Z" fill="#471280"/>
<path d="M277.431 65.3414C273.683 65.4755 269.928 65.3993 266.191 65.1133C260.736 65.1133 250.29 65.1133 246.356 65.3129C242.422 65.5124 242.554 68.164 246.356 68.3636C250.158 68.5631 266.456 67.6793 269.233 68.0784C272.106 68.8742 275.167 69.0214 278.125 68.5061C280.803 67.5082 280.671 64.8282 277.431 65.3414Z" fill="#471280"/>
<path d="M251.348 74.2082C246.356 74.4648 245.827 77.7435 251.348 78.3708C261.607 79.2433 271.921 79.5385 282.225 79.2546C287.316 78.7414 286.423 75.4056 279.415 75.0635C272.406 74.7214 256.637 74.0371 251.348 74.2082Z" fill="#471280"/>
<path d="M346.954 107.766C359.735 108.394 372.556 107.762 385.171 105.884C397.105 103.945 406.659 108.222 411.849 105.884C417.039 103.546 415.155 96.1331 412.312 84.415C409.469 72.6969 407.485 55.3336 405.998 46.2385C404.51 37.1434 403.122 37.6851 395.022 36.8298C392.047 36.5162 388.642 36.2881 385.104 36.174C384.576 34.8055 384.014 33.6651 383.749 33.0378C382.658 30.6429 379.385 28.7326 378.823 32.5816C378.709 33.7199 378.709 34.8647 378.823 36.003C369.534 35.8604 359.583 36.003 351.88 36.4592L350.955 34.4919C349.434 31.042 346.558 30.7569 346.558 34.4919C346.558 35.1191 346.558 35.8604 346.558 36.7158L342.26 37.0009C331.979 37.7707 328.706 35.3757 327.879 46.8372C327.443 63.1175 328.106 79.4059 329.863 95.6199C331.218 106.169 335.483 106.853 346.954 107.766ZM334.524 42.5891C334.789 41.6767 340.343 41.249 347.252 41.135C348.078 44.927 349.731 48.5194 352.839 48.2913C355.946 48.0632 355.186 44.6134 353.864 41.1065C358.624 41.1065 363.418 41.249 367.087 41.4201C370.757 41.5912 375.55 41.5912 379.947 41.5912C380.807 43.8721 382.03 45.5827 383.518 45.4687C385.832 45.2691 386.46 43.644 386.328 41.5627C392.311 41.5627 396.973 41.7337 397.601 42.5891C398.923 44.2427 399.254 55.8468 401.436 68.8764C403.618 81.906 404.742 93.1394 406.758 97.188C407.849 99.4119 405.535 102.577 400.411 101.379C395.287 100.182 370.195 101.094 355.517 101.75C340.838 102.406 335.318 103.546 335.285 98.2429C335.251 92.9398 330.755 55.191 334.524 42.5891Z" fill="#471280"/>
<path d="M350.095 63.8871C354.723 63.8871 384.013 62.4331 389.468 61.8913C394.923 61.3496 395.32 56.3602 389.138 56.9019C382.956 57.4436 354.393 59.4109 349.467 60.5798C344.541 61.7488 345.467 63.8301 350.095 63.8871Z" fill="#471280"/>
<path d="M382.162 69.3043C371.858 69.2672 361.559 69.7432 351.318 70.7298C348.508 71.186 346.393 73.5809 351.715 73.5809C357.038 73.5809 380.543 73.5809 385.006 72.8111C389.469 72.0413 386.989 69.6179 382.162 69.3043Z" fill="#471280"/>
<path d="M382.162 80.8512C375.55 81.2218 357.269 82.1342 353.831 82.6474C348.74 83.4172 351.087 85.0709 354.393 85.3275C357.699 85.5841 379.815 84.8998 383.914 85.0709C388.014 85.2419 388.873 80.5091 382.162 80.8512Z" fill="#471280"/>
<path d="M438.627 237.035C449.571 236.49 460.55 236.824 471.422 238.033C481.009 239.373 504.481 238.176 513.539 239.003C522.597 239.829 527.622 240.314 530.564 237.719C533.507 235.125 532.019 217.762 531.457 210.377C530.895 202.993 530.796 178.473 530.068 171.06C529.341 163.647 529.374 125.813 529.374 119.826C529.374 113.838 527.556 73.6661 527.093 69.1043C526.63 64.5425 527.92 56.873 525.506 54.9913C523.093 53.1096 512.911 53.3376 506.001 52.7674C499.092 52.1972 486.166 52.5393 476.777 52.1117C463.902 52.04 451.036 52.7067 438.264 54.1074C434.958 54.6777 435.883 57.8994 435.883 63.1455C435.883 68.3916 435.156 98.3568 434.627 107.994C434.098 117.63 432.445 154.011 432.445 163.761C432.445 173.512 433.371 197.234 432.875 205.93C432.379 214.625 432.875 225.517 432.412 230.021C431.949 234.526 433.867 237.548 438.627 237.035ZM439.321 148.993C439.321 140.667 440.71 91.7707 440.71 80.3662C440.71 68.9618 440.115 57.8994 441.768 57.6999C461.603 55.0483 505.935 56.4168 521.671 57.6999C524.977 67.4507 523.853 111.272 523.357 123.276C522.861 135.279 524.514 168.637 524.481 175.251C524.448 181.866 525.209 222.124 526.531 227.37C527.853 232.616 527.324 233.557 524.647 234.07C516.517 234.469 508.365 234.383 500.249 233.813C486.166 233.357 448.71 231.989 438.627 232.217C438.627 232.217 440.082 202.85 440.214 194.953C440.346 187.055 439.321 157.289 439.321 148.993Z" fill="#471280"/>
<path d="M448.545 128.693C448.545 144.003 447.09 178.16 447.024 185.402C446.958 192.643 446.462 220.755 449.404 223.635C452.347 226.515 512.613 225.574 516.151 223.635C519.688 221.696 517.506 194.525 517.539 187.711C517.572 180.897 516.151 120.824 516.151 113.867C516.151 106.91 515.688 83.8448 515.489 76.2038C515.291 68.5628 514.035 65.398 509.704 64.7993C505.373 64.2006 455.322 62.4614 450.198 65.7687C446.628 68.0496 446.892 83.1605 446.892 91.2292C446.892 99.2978 448.512 113.411 448.545 128.693ZM451.851 69.4466C451.864 69.0579 452.054 68.6893 452.38 68.4202C452.539 68.2825 452.731 68.1757 452.941 68.1069C453.152 68.0381 453.378 68.0088 453.603 68.0211C459.686 68.1921 506.762 68.9334 508.878 68.4772C510.2 70.1594 511.919 107.024 512.547 117.602C513.175 128.18 513.01 162.707 512.547 173.741C512.084 184.774 514.398 219.358 511.159 220.984C507.919 222.609 453.801 221.924 452.479 220.1C451.157 218.275 451.652 163.077 452.148 153.155C452.644 143.234 452.512 118.229 451.752 111.928C450.991 105.627 451.686 82.5333 451.95 69.4466H451.851Z" fill="#471280"/>
<path d="M162.981 275.668C166.055 277.407 185.296 278.32 197.594 277.664C209.892 277.008 244.67 278.063 258.224 278.063C271.778 278.063 316.243 278.063 326.557 278.719C336.871 279.375 347.946 279.66 352.112 276.467C356.277 273.273 355.418 242.88 355.418 235.068C355.418 227.256 354.789 200.142 353.269 191.389C351.748 182.636 353.732 177.59 349.963 174.682C346.194 171.773 318.226 172.116 297.994 172.429C277.762 172.743 254.026 173.57 237.298 173.085C220.57 172.6 197.032 171.317 184.8 171.146C172.568 170.975 163.543 170.348 160.898 172.116C158.254 173.883 159.014 185.06 160.171 191.389C161.328 197.719 158.816 237.007 157.592 251.263C156.369 265.518 159.907 273.958 162.981 275.668ZM164.634 210.691C165.554 198.659 165.089 186.578 163.245 174.625C177.692 174.625 232.868 176.592 246.786 176.592C260.703 176.592 302.556 176.791 315.35 176.934C328.144 177.077 342.525 176.934 345.103 177.504C348.673 182.18 350.855 225.317 350.558 231.02C349.897 241.882 350.062 272.96 346.789 274.385C343.516 275.811 295.515 273.672 281.431 273.672C267.348 273.672 218.619 273.672 207.082 274.243C195.544 274.813 169.725 274.955 165.791 273.245C161.857 271.534 162.683 267.543 161.857 257.849C161.031 248.155 163.179 222.295 164.634 210.691Z" fill="#471280"/>
<path d="M194.387 226.914C199.437 228.993 204.105 231.702 208.239 234.954C210.685 237.406 216.041 242.168 219.38 242.225C222.719 242.282 224.239 238.632 225.991 237.321C227.744 236.009 228.041 232.645 225.429 233.586C222.818 234.527 221.099 238.062 219.909 237.948C215.834 235.51 211.967 232.823 208.338 229.908C204.697 227.557 200.912 225.378 196.999 223.379C196.271 222.922 196.999 221.839 197.759 221.069C198.519 220.299 207.379 210.007 210.685 205.588C213.991 201.168 220.603 193.47 221.264 192.33C221.925 191.19 223.082 190.762 225.033 192.33C230.583 195.603 236.444 198.464 242.554 200.883C244.901 201.568 244.835 202.423 243.744 203.307C242.784 204.363 242.106 205.59 241.761 206.899C241.463 207.583 245.067 207.954 245.43 206.899C246.68 205.299 247.68 203.564 248.405 201.739C248.901 199.6 240.24 195.238 234.653 192.644C230.425 190.728 226.089 188.996 221.661 187.455C220.735 187.112 220.834 188.281 219.38 189.735C217.925 191.189 212.008 197.747 207.082 203.535C202.156 209.323 193.494 219.929 191.842 222.466C190.189 225.004 191.775 226.116 194.387 226.914Z" fill="#471280"/>
<path d="M230.124 233.044C231.909 243.878 239.479 251.348 254.687 250.436C269.894 249.524 275.481 237.691 272.572 226.23C269.662 214.768 261.596 210.235 249.893 209.807C236.438 209.266 228.537 222.181 230.124 233.044ZM249.959 213.657C261.431 213.657 265.96 221.012 268.671 228.568C269.391 230.565 269.593 232.674 269.263 234.745C268.932 236.817 268.077 238.801 266.759 240.556C265.44 242.311 263.69 243.794 261.632 244.9C259.574 246.007 257.26 246.709 254.852 246.958C243.81 247.841 235.017 242.367 234.256 230.336C234 228.353 234.202 226.346 234.851 224.432C235.5 222.517 236.583 220.732 238.037 219.181C239.492 217.63 241.288 216.343 243.324 215.394C245.359 214.446 247.591 213.855 249.893 213.657H249.959Z" fill="#471280"/>
<path d="M278.126 216.508C280.473 213.999 288.572 207.954 289.101 207.555C289.63 207.156 290.721 207.555 290.82 208.125C290.92 208.696 294.126 220.927 295.449 224.804C296.771 228.682 299.68 238.86 300.143 239.573C300.606 240.286 299.746 240.657 298.821 240.628C291.076 240.65 283.343 241.146 275.679 242.111C271.911 243.166 270.159 246.045 274.489 246.216C278.82 246.387 298.887 244.648 302.788 244.42C306.689 244.192 305.796 240.172 304.507 236.893C303.218 233.614 295.713 212.716 294.589 208.696C293.465 204.675 293.73 202.081 291.581 201.938C289.432 201.796 287.944 202.452 285.895 204.79C283.845 207.127 277.134 212.431 275.117 214.426C273.101 216.422 275.746 219.017 278.126 216.508Z" fill="#471280"/>
<path d="M180.601 312.618C177.097 309.596 169.328 302.269 167.113 300.986C166.458 300.48 165.646 300.151 164.776 300.04C163.906 299.928 163.018 300.039 162.221 300.359C161.871 300.515 161.573 300.744 161.354 301.025C161.134 301.307 161 301.631 160.964 301.969C160.928 302.307 160.991 302.647 161.147 302.959C161.303 303.27 161.547 303.543 161.857 303.751C163.444 305.234 164.336 306.774 165.923 308.427C167.51 310.081 176.535 321.941 178.32 324.308C182.184 329.288 186.413 334.05 190.982 338.564C193.362 340.388 197.594 342.327 199.61 340.901C200.145 340.565 200.589 340.134 200.912 339.637C201.235 339.139 201.43 338.587 201.483 338.019C201.537 337.451 201.447 336.879 201.221 336.343C200.995 335.807 200.637 335.32 200.172 334.914C198.156 332.861 184.073 315.612 180.601 312.618ZM194.552 337.737C188.117 331.682 182.09 325.314 176.502 318.663C172.766 313.987 165.593 305.434 164.7 304.151C163.807 302.868 164.932 302.668 166.089 303.523C172.992 309.378 179.494 315.576 185.56 322.084C190.684 328.071 196.205 334.144 197.726 336.568C199.247 338.991 197.263 339.847 194.552 337.737Z" fill="#471280"/>
<path d="M572.549 349.398C566.125 337.963 560.71 326.125 556.35 313.987C553.805 305.434 550.102 294.029 543.127 289.61C536.151 285.191 514.167 283.908 500.381 283.452C487.786 282.967 436.214 282.825 427.189 282.796C429.614 278.006 431.561 273.046 433.007 267.97C434.561 262.268 435.321 260.244 434.396 257.906C432.829 254.319 429.89 251.302 426.065 249.352C426.065 248.041 426.065 246.957 426.065 246.245C426.296 243.394 424.478 237.691 421.8 243.194C421.208 244.432 420.732 245.71 420.379 247.014C419.299 246.668 418.195 246.382 417.073 246.159C417.013 243.291 416.692 240.431 416.114 237.606C414.792 231.904 411.552 230.706 411.056 236.922C410.891 239.231 410.858 242.168 411.056 245.275H407.75C406.824 241.341 405.965 237.834 405.568 236.722C404.477 233.443 400.609 233.871 400.94 236.722C400.94 238.062 401.204 241.911 401.37 246.216C398.004 246.932 395.006 248.585 392.842 250.921C390.678 253.256 389.469 256.143 389.402 259.132C389.171 263.579 388.576 271.99 389.006 279.09L361.963 278.377C363.953 274.328 365.502 270.128 366.592 265.832C369.335 256.024 369.897 238.49 369.335 222.381C375.154 222.609 393.667 223.179 398.857 223.464C404.973 223.835 406.229 223.607 406.659 219.758C407.089 215.909 407.816 193.585 408.147 184.689C408.477 175.794 408.841 138.529 408.94 133.74C409.039 128.95 409.535 126.27 404.312 126.127C399.089 125.984 380.179 126.127 358.591 125.072C337.004 124.017 294.655 122.135 270.72 122.677C246.786 123.219 203.677 123.476 201.528 126.384C199.379 129.292 197.098 149.193 197.858 157.946H179.643C179.841 149.706 180.998 91.8566 180.668 80.9653C180.304 70.8154 181.329 54.8776 181.164 43.6157C181.164 42.2199 180.62 40.8646 179.618 39.7681C178.617 38.6717 177.216 37.8978 175.643 37.5713C153.493 33.2661 118.285 30.8997 72.168 34.0929C70.8837 34.1641 69.6292 34.4575 68.4792 34.9557C67.3292 35.4539 66.3072 36.1467 65.4743 36.9927C64.6413 37.8388 64.0144 38.8208 63.6309 39.8803C63.2474 40.9398 63.1152 42.055 63.2421 43.1595C65.5562 62.5186 63.5396 95.1354 64.6967 107.452C65.8537 119.769 66.9778 151.93 66.9116 165.187C66.9116 165.892 67.0737 166.59 67.3885 167.241C67.7033 167.892 68.1645 168.482 68.7456 168.978C69.3267 169.474 70.016 169.865 70.7737 170.13C71.5314 170.394 72.3424 170.527 73.1598 170.519C102.219 170.918 136.17 173.94 143.443 174.625C142.555 180.971 142.202 187.365 142.385 193.756C142.385 220.043 140.468 242.766 142.749 259.331C143.19 265.998 144.968 272.548 148.005 278.69C136.964 279.004 103.475 279.945 93.6564 280.173C81.8543 280.43 78.8459 281.399 69.7547 292.803C60.6635 304.208 37.423 335.399 35.3733 341.101C33.3237 346.804 35.0097 356.298 35.3733 359.349C35.737 362.399 38.6792 363.967 43.6381 364.538C60.3975 366.232 77.2467 367.184 94.1192 367.389C78.9121 399.777 37.4561 492.553 35.0758 496.63C32.6956 500.707 34.3816 502.646 40.2 505.468C46.0183 508.291 50.4482 504.1 52.564 501.42C54.6798 498.74 79.9699 465.61 87.6066 450.413C94.2184 437.013 126.748 379.392 134.22 366.077L145.195 365.849L120.302 407.361C111.475 422.073 107.343 430.883 106.351 435.103C105.359 439.322 107.144 439.836 110.682 440.805C114.219 441.774 118.715 442.003 121.062 439.95C123.409 437.897 170.651 385.322 176.8 379.905C181.329 375.857 187.941 368.9 190.982 365.65L200.338 365.792C222.355 366.163 259.58 364.908 283.382 366.619C305.036 368.159 370.724 367.531 416.279 367.645C430.924 390.654 470.992 441.062 474.463 443.742C477.934 446.422 481.604 448.788 485.802 447.363C490.001 445.937 493.803 444.996 496.745 443.913C499.687 442.829 499.819 437.612 496.381 431.938C493.406 427.12 464.975 380.76 456.71 367.417C464.975 367.189 473.24 366.876 481.406 366.533C490.728 395.643 512.514 446.964 517.77 462.645C523.192 478.868 534.63 515.248 536.416 519.667C538.201 524.086 539.92 524.457 543.689 523.573C547.687 522.428 551.605 521.086 555.425 519.553C558.301 518.584 558.731 517.614 557.673 512.71C556.615 507.806 534.531 392.963 530.498 364.452C539.391 364.138 546.796 364.024 551.953 364.281C572.681 365.336 571.095 365.079 573.805 361.772C576.516 358.465 575.987 355.043 572.549 349.398ZM429.007 256.68C429.304 256.993 429.404 257.25 429.007 257.535C428.177 257.908 427.285 258.168 426.362 258.305C426.362 257.164 426.197 255.454 426.131 253.886C427.149 254.77 428.109 255.703 429.007 256.68ZM422.395 246.53C422.627 245.19 423.717 244.762 423.717 245.988C423.717 247.214 423.949 255.083 424.048 258.676L421.106 259.075C421.036 254.843 421.502 250.617 422.494 246.473L422.395 246.53ZM412.709 241.94C412.448 239.671 412.604 237.381 413.172 235.154C414.511 237.223 415.163 239.571 415.056 241.94C415.056 244.791 415.056 253.971 415.056 256.195C415.056 258.419 416.742 259.046 417.04 257.364C417.292 254.576 417.369 251.777 417.271 248.982C418.096 249.21 418.902 249.487 419.684 249.809C419.108 252.949 418.81 256.123 418.792 259.303C417.403 259.303 415.916 259.303 414.362 259.474C413.392 253.646 412.873 247.77 412.808 241.882L412.709 241.94ZM411.188 248.126C411.353 252.118 411.717 256.138 412.114 259.246H410.858C410.428 257.136 409.469 252.745 408.444 248.355C409.337 248.326 410.362 248.269 411.188 248.126ZM404.808 240.457C406.485 246.573 407.733 252.772 408.543 259.018C407.32 259.018 406.097 258.79 404.907 258.619C404.609 254.342 403.717 242.481 403.651 241.17C403.585 239.858 403.75 238.575 404.808 240.571V240.457ZM401.502 249.98C401.502 252.831 401.799 255.881 401.998 258.162C399.14 257.894 396.386 257.086 393.931 255.796C393.832 255.425 396.212 252.232 401.502 250.094V249.98ZM393.072 259.987C401.535 264.748 416.411 266.345 429.999 262.553C426.693 277.293 419.221 289.924 417.37 291.064C415.519 292.205 407.849 291.064 403.948 290.523C401.971 290.135 400.135 289.334 398.602 288.191C397.069 287.047 395.885 285.596 395.155 283.965C392.966 276.16 392.263 268.101 393.072 260.101V259.987ZM220.405 157.774C220.27 152.502 219.718 147.244 218.752 142.036C218.752 142.036 248.505 142.207 262.257 142.036C276.01 141.865 322.987 142.036 341.037 142.207C359.087 142.378 381.468 142.378 382.89 143.604C382.658 146.712 383.319 158.316 383.088 170.148C382.857 181.98 386.989 206.272 383.914 208.382C381.534 210.035 372.542 208.382 368.674 207.555C368.112 197.662 367.385 189.85 366.988 187.084C365.765 178.958 367.616 157.062 330.094 157.29L220.405 157.774ZM205.065 128.893C206.255 127.724 220.239 128.893 229.893 128.893C239.546 128.893 268.869 126.754 277.365 126.754C285.861 126.754 339.814 130.033 349.368 129.605C358.922 129.178 393.105 129.263 398.427 129.434C403.75 129.605 403.948 130.147 404.147 134.367C404.345 138.586 402.626 173.028 402.328 181.182C402.031 189.336 402.328 217.448 400.94 219.245C399.551 221.041 384.08 220.385 369.203 219.074C369.203 216.65 369.203 214.255 368.906 211.974C373.866 212.187 378.809 212.625 383.716 213.286C388.84 214.17 389.667 212.202 389.468 206.557C389.27 200.912 389.865 178.958 389.468 172.059C389.072 165.159 388.84 143.262 386.361 140.354C383.881 137.446 346.459 136.933 333.169 136.733C319.879 136.534 264.671 139.071 254.092 139.071C243.513 139.071 217.727 138.159 215.446 139.071C213.165 139.983 213.892 150.846 214.156 157.717H203.049C203.677 154.866 204.702 150.105 205.197 146.085C205.958 140.183 203.875 130.033 205.065 128.893ZM76.4657 165.872C75.7027 165.842 74.983 165.558 74.4586 165.079C73.9343 164.6 73.6463 163.964 73.6557 163.306C74.0854 137.218 70.3498 122.021 70.1514 107.452C69.9861 92.3983 71.7052 69.789 71.573 58.7551C71.4932 53.2783 70.6384 47.8304 69.0274 42.5323C68.9158 42.1702 68.8964 41.7916 68.9706 41.4225C69.0448 41.0533 69.2108 40.7024 69.4572 40.3939C69.9705 39.7837 70.7431 39.3737 71.606 39.2535C114.583 34.7772 162.022 41.2778 172.734 42.9029C173.358 42.9984 173.922 43.2841 174.322 43.708C174.722 44.1319 174.933 44.6657 174.915 45.2123C172.37 103.062 176.734 103.261 173.99 121.508C172.406 133.586 172.108 145.764 173.097 157.889H167.808C166.122 157.889 164.502 157.889 163.047 157.889C161.815 141.929 162.269 125.907 164.403 110.018C167.18 92.2843 164.799 63.1458 164.403 56.4172C164.006 49.6886 163.907 45.7825 149.46 46.1817C135.013 46.5808 98.9128 44.8132 91.5737 44.2714C84.2346 43.7297 76.9946 43.1595 79.1435 47.1226C81.2923 51.0856 79.7716 62.8037 79.7716 76.1184C79.7716 89.4332 80.4658 135.108 80.5319 145.828C80.5981 156.548 82.251 157.946 89.5901 157.917C104.037 157.917 133.228 162.023 148.005 163.619C146.155 165.62 144.835 167.946 144.137 170.433C116.533 167.497 85.6561 166.185 76.4657 165.872ZM152.501 160.512C137.691 156.891 116.434 155.494 86.3834 152.956C86.3834 152.956 85.6891 145.828 85.5239 137.532C85.3586 129.235 83.6725 104.63 84.1023 92.1987C84.5321 79.7679 84.7635 56.3602 82.7469 48.6051C82.7469 48.6051 144.104 52.7393 157.559 51.5988C160.865 56.7878 162.254 85.0709 161.394 100.068C160.535 114.323 156.931 144.517 158.683 158.63C156.524 158.982 154.439 159.616 152.501 160.512ZM146.683 187.198C147.576 170.633 149.328 161.538 168.601 162.137C187.875 162.735 238.984 161.253 265.894 162.137C292.804 163.021 314.391 163.277 331.053 163.192C347.715 163.106 359.153 170.804 360.343 187.683C361.534 204.561 362.36 252.118 362.029 262.867C361.699 273.615 359.616 285.048 335.186 285.02C310.755 284.991 185.858 284.535 169.593 282.568C153.328 280.601 151.245 273.473 149.757 257.507C148.27 241.54 145.89 203.963 146.716 187.198H146.683ZM268.439 304.322C268.558 304.775 268.845 305.182 269.257 305.482C269.668 305.782 270.182 305.958 270.72 305.984C271.258 306.01 271.791 305.884 272.238 305.625C272.686 305.366 273.023 304.989 273.2 304.55C273.303 303.831 273.303 303.103 273.2 302.383C274.46 302.374 275.719 302.441 276.969 302.583C278.522 302.782 279.481 302.583 280.274 304.465C280.567 306.421 280.407 308.408 279.806 310.312C279.205 312.215 278.173 313.997 276.77 315.555C273.861 317.779 267.381 318.264 255.844 318.407C247.261 318.293 238.72 317.337 230.388 315.555C228.306 315.185 227.843 314.586 227.083 312.704C226.322 310.823 224.438 301.699 225.198 300.644C225.959 299.589 230.587 299.96 233.926 300.159C233.891 301.654 234.171 303.142 234.752 304.55C235.975 306.033 239.281 307.031 239.744 304.55C240.075 302.611 238.719 294.086 238.323 290.294L267.018 290.637C267.646 294.4 268.208 302.725 268.472 304.322H268.439ZM276.407 319.661C276.407 321.315 276.076 323.253 273.564 323.367C271.051 323.482 258.588 323.71 254.786 323.938C247.718 324.183 240.639 323.801 233.661 322.797C228.735 321.714 228.405 320.459 228.471 318.863C237.616 320.13 246.849 320.863 256.108 321.058C261.596 320.83 276.44 319.661 276.44 319.661H276.407ZM77.0607 455.574C64.2669 477.613 47.6382 499.31 45.6878 500.279C43.7373 501.249 40.8281 498.996 41.6545 497.115C42.481 495.233 60.2337 455.346 67.6389 438.638C74.5152 423.214 96.1358 379.107 99.7062 367.617C103.012 367.617 106.318 367.617 109.459 367.275C114.351 366.99 120.004 366.761 125.988 366.562C110.252 396.099 89.4909 434.162 77.0607 455.574ZM147.708 404.054C137.79 414.062 119.872 434.675 117.128 435.873C114.384 437.07 111.839 437.241 114.186 432.822C116.533 428.403 144.964 376.484 148.898 369.727L151.047 366.02C160.965 366.02 171.246 365.849 180.337 366.02C171.014 377.567 156.733 395.073 147.708 404.054ZM484.282 424.896C487.588 429.914 493.241 437.156 491.422 439.351C489.913 440.475 488.065 441.207 486.092 441.459C484.119 441.711 482.104 441.475 480.281 440.777C478.1 439.208 445.437 398.01 438.693 388.858C434.032 382.557 427.123 373.119 423.288 367.873H429.338C435.949 367.873 442.561 367.873 449.404 367.731C456.049 378.879 481.273 420.619 484.282 424.896ZM529.572 399.521C533.11 419.108 544.614 489.901 547.358 498.882C550.102 507.863 552.714 513.566 551.028 515.02C549.947 515.843 548.672 516.453 547.29 516.807C545.909 517.162 544.454 517.252 543.027 517.072C541.341 516.331 529.209 474.933 523.192 459.508C517.77 445.994 492.315 382.215 486.067 366.505C500.414 365.878 514.035 365.165 525.738 364.68C525.837 371.038 526.928 384.98 529.572 399.635V399.521ZM567.623 357.381C564.318 360.689 543.821 359.32 537.87 359.776C531.92 360.232 456.777 360.66 432.247 360.66C407.717 360.66 357.599 362.798 334.161 363.027C310.722 363.255 231.843 360.289 207.71 359.32C183.577 358.351 135.278 360.261 104.698 361.458C84.0478 361.98 63.3803 361.265 42.8447 359.32C42.1385 359.242 41.4804 358.97 40.9681 358.543C40.4559 358.117 40.1169 357.56 40.0016 356.954C39.3735 353.019 38.6792 347.488 40.0016 344.637C41.7207 341.244 73.4573 295.997 79.6724 290.038C85.8875 284.079 93.7225 284.336 101.095 284.079C108.467 283.822 135.41 286.189 144.799 283.68C147.245 283.024 149.03 282.511 150.32 282.112C152.524 284.14 155.179 285.766 158.127 286.892C161.074 288.019 164.254 288.623 167.477 288.669C176.106 289.411 203.842 289.952 234.091 290.352C233.86 292.205 233.727 294.457 233.694 296.595C231.579 296.595 227.711 296.367 225.628 296.396C222.653 296.396 219.314 297.137 219.413 300.33C219.879 305.488 220.685 310.619 221.826 315.698C222.421 317.893 224.339 317.637 224.868 318.264C225.352 320.213 226.335 322.044 227.744 323.624C230.124 325.762 246.158 326.304 253.331 326.19C260.505 326.076 275.613 325.705 277.398 324.879C279.184 324.052 279.051 319.176 280.44 318.663C281.828 318.15 283.085 316.781 284.771 312.305C285.659 310.211 286.027 307.978 285.85 305.753C285.674 303.528 284.957 301.36 283.746 299.39C281.729 297.08 275.778 297.964 272.473 298.278C271.911 295.426 271.183 292.575 270.588 290.779C298.259 291.064 322.888 291.235 331.88 291.321C345.797 291.492 353.599 289.325 358.823 283.024L389.534 284.45C389.754 286.339 390.491 288.157 391.683 289.753C395.915 294.4 412.015 296.881 417.602 294.828C420.449 293.13 422.674 290.766 424.015 288.014C456.281 287.871 487.587 288.327 500.481 288.47C513.374 288.612 533.903 289.981 540.151 293.146C546.399 296.31 556.053 320.602 558.334 327.102C560.615 333.603 570.764 354.16 567.623 357.495V357.381Z" fill="#471280"/>
<path d="M420.279 281.969C422.726 280.144 424.081 274.157 423.85 270.565C423.618 266.972 420.279 268.882 420.544 271.591C420.44 274.563 419.595 277.48 418.064 280.144C417.139 282.34 417.932 283.822 420.279 281.969Z" fill="#471280"/>
<path d="M481.571 342.356C481.571 344.409 483.951 344.494 486.992 344.038C490.034 343.582 527.688 344.209 529.969 344.352C532.25 344.494 532.713 343.582 532.713 340.417C532.713 337.252 532.713 318.578 531.589 310.452C530.465 302.326 528.845 298.392 527.556 297.337C526.57 297.076 525.545 296.941 524.514 296.938C524.447 296.467 524.348 296.001 524.217 295.54C523.655 293.288 522.564 293.63 522.134 295.826C522.134 296.196 522.134 296.538 521.969 296.823H519.39C519.284 296.256 519.141 295.695 518.961 295.141C518.266 292.832 516.051 293.317 515.919 295.797C515.919 296.139 515.919 296.453 515.919 296.766H512.25C512.115 296.265 511.949 295.77 511.754 295.284C510.927 293.26 509.142 293.488 508.878 295.455C508.846 295.873 508.846 296.292 508.878 296.709H506.233C506.109 296.088 505.921 295.477 505.671 294.885C504.844 293.031 503.059 292.974 502.729 295.455C502.729 295.911 502.729 296.31 502.729 296.681H498.828C498.828 296.111 498.662 295.54 498.596 295.056C498.398 293.317 496.58 293.031 496.381 295.056V296.567H493.935C493.637 295.626 493.373 294.742 493.274 294.286C493.042 292.775 490.926 292.575 491.026 294.286C491.026 294.828 491.026 295.712 491.026 296.652H489.703C489.669 295.926 489.581 295.202 489.439 294.486C489.174 293.117 486.662 292.775 486.629 294.486C486.629 295.113 486.629 295.797 486.629 296.538H482.794C481.339 296.538 480.645 295.94 480.182 298.506C479.231 306.852 478.988 315.247 479.455 323.624C479.951 334.458 481.505 340.332 481.571 342.356ZM528.151 340.845C522.856 341.423 517.512 341.585 512.183 341.329C505.307 341.158 485.736 341.786 485.34 341.329C484.934 340.06 485.003 338.713 485.538 337.48C486.464 336.91 508.679 338.592 513.407 338.393C518.455 338.05 523.522 337.974 528.581 338.165C529.539 338.535 528.713 340.474 528.151 340.845ZM484.612 299.618C485.319 299.49 486.039 299.424 486.761 299.418V300.273C487.026 302.497 489.571 301.898 489.604 300.273V299.446H491.059C491.389 300.587 492.05 301.414 493.307 301.271C494.563 301.129 494.265 300.444 494.199 299.446H495.951C495.951 299.846 495.951 300.216 495.951 300.615C496.15 302.583 499.092 302.526 498.993 300.929C498.993 300.473 498.993 299.96 498.993 299.418H502.662C502.769 300.044 502.923 300.663 503.125 301.271C503.654 303.039 505.968 303.524 506.431 301.67C506.502 300.911 506.502 300.149 506.431 299.389H508.911C508.994 299.849 509.139 300.298 509.34 300.729C509.869 301.984 511.39 302.982 512.117 301.129C512.344 300.578 512.478 300.002 512.514 299.418H516.051C516.051 299.931 516.283 300.473 516.448 301.072C516.468 301.244 516.526 301.411 516.621 301.564C516.715 301.716 516.844 301.852 516.999 301.961C517.154 302.071 517.332 302.154 517.524 302.204C517.716 302.254 517.918 302.272 518.118 302.255C518.317 302.238 518.511 302.187 518.688 302.106C518.865 302.024 519.022 301.914 519.149 301.78C519.277 301.646 519.372 301.492 519.431 301.327C519.489 301.161 519.509 300.987 519.489 300.815C519.489 300.416 519.489 299.988 519.489 299.504H521.804C521.804 299.874 521.804 300.302 522.002 300.758C522.023 301.04 522.161 301.305 522.391 301.506C522.622 301.706 522.928 301.828 523.255 301.849C523.581 301.87 523.905 301.788 524.167 301.619C524.429 301.45 524.611 301.205 524.68 300.929C524.68 300.615 524.68 300.245 524.68 299.76C525.11 299.76 525.374 299.903 525.374 300.017C525.374 300.787 526.994 315.356 527.324 319.547C527.655 323.738 529.341 334.601 528.349 335.342C527.358 336.083 511.588 335.342 505.803 335.342C500.018 335.342 485.968 335.342 485.406 334.316C484.451 329.295 484.085 324.203 484.315 319.119C484.579 313.274 483.092 300.159 484.612 299.618Z" fill="#471280"/>
<path d="M557.078 352.62C552.482 352.62 502.53 352.62 488.513 352.962C474.496 353.304 447.95 354.216 444.082 354.416C441.04 354.587 440.313 357.01 444.247 356.868C448.181 356.725 493.406 355.956 509.572 355.956C525.738 355.956 552.053 355.585 557.937 355.956C563.822 356.326 561.64 352.506 557.078 352.62Z" fill="#471280"/>
<path d="M453.636 332.976C452.115 323.881 443.718 312.391 436.776 312.476C429.833 312.562 421.965 327.359 422.461 336.996C422.957 346.632 428.875 351.251 439.916 350.653C450.958 350.054 455.156 342.213 453.636 332.976ZM436.776 316.183C441.966 316.183 448.545 327.587 448.479 332.234C448.412 336.882 444.908 342.242 438.263 342.299C436.818 342.295 435.388 342.044 434.055 341.561C432.723 341.078 431.514 340.372 430.5 339.484C429.486 338.596 428.685 337.544 428.145 336.387C427.605 335.231 427.336 333.994 427.354 332.748C427.089 327.958 432.015 316.183 436.809 316.183H436.776ZM426.858 344.694C424.643 343.012 427.089 342.698 428.709 343.981C431.492 345.861 434.995 346.767 438.518 346.519C442.041 346.27 445.326 344.886 447.718 342.641C450.462 339.79 451.421 341.957 450.098 343.468C448.758 344.976 447.06 346.219 445.117 347.113C443.174 348.008 441.031 348.534 438.833 348.656C436.634 348.777 434.431 348.491 432.372 347.818C430.312 347.144 428.443 346.099 426.891 344.751L426.858 344.694Z" fill="#471280"/>
<path d="M437.9 324.023C437.982 322.989 437.982 321.95 437.9 320.916C437.9 319.49 434.594 318.635 434.594 321.315C434.734 322.269 434.655 323.238 434.362 324.166C434.032 325.848 437.867 325.392 437.9 324.023Z" fill="#471280"/>
<path d="M432.478 334.116C436.313 333.574 437.801 332.605 441.635 334.43C443.222 335.171 444.214 334.002 443.024 332.491C441.447 331.293 439.45 330.586 437.353 330.482C435.255 330.379 433.178 330.886 431.453 331.921C431.227 332.092 431.068 332.32 430.999 332.573C430.929 332.825 430.952 333.09 431.064 333.331C431.177 333.572 431.373 333.777 431.626 333.918C431.88 334.058 432.177 334.128 432.478 334.116Z" fill="#471280"/>
<path d="M319.714 345.064C326.326 345.72 350.822 346.861 361.038 347.003C371.253 347.146 391.849 347.402 396.774 344.152C401.7 340.902 405.204 314.301 402.361 310.395C400.609 307.971 317.829 306.859 311.515 310.395C309.102 311.706 308.209 324.878 309.928 333.204C311.647 341.529 313.102 344.323 319.714 345.064ZM316.044 335.912C314.999 334.364 314.461 332.6 314.49 330.809H321.499C321.664 332.149 321.763 333.232 321.797 333.66C321.797 335.998 324.177 337.081 324.243 335.257C324.243 334.715 324.243 332.976 324.045 330.752H331.053C331.284 332.748 331.483 334.316 331.549 334.8C331.78 336.54 333.83 336.54 333.532 334.629C333.532 334.145 333.301 332.662 333.136 330.78H339.748C339.748 333.631 339.748 336.483 339.748 338.079C328.871 338.478 317.962 337.766 316.044 335.827V335.912ZM323.317 322.484C323.317 320.83 323.119 319.376 323.053 318.378H329.367C329.367 319.319 329.665 320.773 329.863 322.427L323.317 322.484ZM330.127 324.964C330.326 326.447 330.491 327.815 330.656 329.355H323.78C323.78 327.958 323.582 326.504 323.483 324.993L330.127 324.964ZM332.21 322.598C332.21 320.915 331.946 319.49 331.88 318.578L339.516 318.749C339.516 319.661 339.516 321.029 339.516 322.683L332.21 322.598ZM339.615 325.135C339.615 326.532 339.615 327.986 339.615 329.44H332.706C332.706 328.043 332.475 326.589 332.342 325.078L339.615 325.135ZM394.361 342.584C391.452 343.724 380.84 345.064 360.641 345.064C346.273 345.057 331.919 344.276 317.664 342.726C316.21 342.327 316.21 340.332 316.21 340.332C316.21 340.332 332.97 342.042 346.822 342.185C360.674 342.327 390.526 341.757 393.7 341.158C396.874 340.56 397.138 341.358 394.361 342.498V342.584ZM342.624 329.44L342.194 325.192L351.781 325.363L352.079 329.355L342.624 329.44ZM352.244 331.636L352.773 338.706C349.93 338.706 346.789 338.706 343.549 338.706L342.822 331.436L352.244 331.636ZM341.929 322.683L341.533 318.806L351.45 319.034L351.715 322.74L341.929 322.683ZM356.475 329.241H354.723L354.227 325.363C357.335 325.363 360.641 325.363 364.145 325.363C364.145 326.475 364.145 327.616 364.41 328.67V328.956L356.475 329.241ZM364.74 331.721C365.137 334.173 365.633 336.711 365.963 338.364C363.451 338.364 361.104 338.364 359.021 338.535H355.715L354.889 331.607C358.062 331.636 361.368 331.664 364.74 331.636V331.721ZM363.98 322.712H354.062L353.599 319.034L364.112 319.233C364.079 319.975 364.079 321.229 364.079 322.626L363.98 322.712ZM376.046 325.164C376.046 326.304 376.245 327.502 376.311 328.699L367.054 328.956C366.89 328.108 366.812 327.249 366.823 326.39V325.392C369.93 325.278 373.038 325.107 376.046 325.107V325.164ZM366.889 322.683C366.889 321.343 366.889 320.146 366.889 319.29H375.253C375.253 320.174 375.55 321.315 375.683 322.598L366.889 322.683ZM376.443 331.636C376.583 333.829 376.583 336.028 376.443 338.222C374.096 338.222 371.683 338.222 369.368 338.222C368.906 336.739 368.178 334.145 367.616 331.636H376.443ZM378.592 328.642C378.394 327.444 378.228 326.247 378.096 325.107L389.435 324.622C389.667 325.848 389.832 327.131 389.931 328.357L378.592 328.642ZM390.03 331.493C390.03 334.002 390.03 336.226 390.196 337.594C387.65 337.908 384.41 338.108 380.906 338.222C380.091 336.095 379.494 333.91 379.121 331.693L390.03 331.493ZM377.798 322.626C377.798 321.315 377.633 320.174 377.798 319.319C381.303 319.319 385.005 319.319 388.51 319.319C388.675 320.032 388.906 321.087 389.138 322.17L377.798 322.626ZM395.386 336.055C394.694 336.588 393.849 336.952 392.94 337.11C392.94 335.77 392.94 333.631 392.94 331.408H397.204C396.976 332.995 396.356 334.521 395.386 335.884V336.055ZM397.634 328.243H392.708C392.708 327.587 392.708 326.96 392.708 326.39C392.708 325.819 392.51 325.078 392.377 324.451L398.262 324.109C397.964 325.392 397.832 326.76 397.634 327.958V328.243ZM398.295 321.942C396.774 321.942 394.559 322.141 391.683 322.227C391.386 321.144 391.088 320.174 390.824 319.376C393.733 319.376 396.378 319.575 398.46 319.775C398.394 320.345 398.328 321.058 398.295 321.771V321.942ZM314.16 312.847C314.16 312.847 324.078 312.134 333.995 312.105C344.938 312.105 369.699 312.476 398.626 313.873C398.626 313.873 398.626 314.757 398.626 316.183H314.127C314.127 314.9 314.16 313.702 314.16 312.847ZM314.16 318.064H320.011C320.011 318.977 320.276 320.459 320.507 322.198H313.895C313.962 320.773 313.995 319.404 314.028 318.064H314.16ZM320.772 324.736C320.772 326.19 321.102 327.587 321.268 329.07L314.226 328.813C314.226 327.473 314.226 325.962 314.226 324.622L320.772 324.736Z" fill="#471280"/>
<path d="M413.668 355.528C406.494 355.357 337.268 352.506 315.251 351.736C296.407 351.08 233.959 348.885 215.446 350.966C209.396 351.651 211.644 354.616 216.57 354.473C221.496 354.331 244.703 354.473 271.282 354.473C297.862 354.473 363.583 356.925 383.485 358.55C394.064 359.121 404.681 358.921 415.221 357.952C419.155 357.609 420.676 355.671 413.668 355.528Z" fill="#471280"/>
<path d="M195.842 351.394C191.147 350.681 161.361 350.824 143.972 350.681C126.583 350.538 97.1273 350.396 87.4741 349.426C76.1868 348.557 64.8486 348.281 53.5225 348.6C47.7371 348.828 48.9934 351.65 52.696 352.221C56.3986 352.791 64.6303 351.65 74.2835 351.394C83.9368 351.137 105.822 354.245 123.376 353.874C140.93 353.504 181.031 353.874 190.188 354.986C199.346 356.098 200.503 352.078 195.842 351.394Z" fill="#471280"/>
<path d="M113.194 334.743C112.826 334.743 112.473 334.869 112.212 335.094C111.952 335.318 111.806 335.623 111.806 335.941C111.806 336.258 111.952 336.563 112.212 336.787C112.473 337.012 112.826 337.138 113.194 337.138C113.562 337.138 113.916 337.012 114.176 336.787C114.436 336.563 114.583 336.258 114.583 335.941C114.583 335.623 114.436 335.318 114.176 335.094C113.916 334.869 113.562 334.743 113.194 334.743Z" fill="#471280"/>
<path d="M82.6477 343.61C91.574 344.738 100.572 345.395 109.591 345.577C117.988 345.577 134.154 345.862 140.369 345.577C142.522 345.796 144.689 345.276 146.402 344.129C148.116 342.982 149.237 341.301 149.526 339.447C150.518 336.026 151.807 323.738 152.435 318.634C153.063 313.531 154.287 302.668 152.997 298.848C152.281 296.566 150.709 294.553 148.525 293.124C146.342 291.696 143.671 290.931 140.931 290.95C133.691 290.693 109.194 289.667 104.169 289.838C99.1442 290.009 94.0861 290.152 92.5654 293.516C91.0447 296.88 80.3997 322.027 78.7468 327.045C77.0938 332.063 77.3583 334.601 79.1765 336.425C78.1186 339.647 80.5981 343.353 82.6477 343.61ZM143.906 342.213C139.939 343.696 131.311 343.439 120.765 343.296C110.219 343.154 86.2842 342.441 83.9701 341.329C81.656 340.217 81.8874 338.877 85.0941 339.476C91.9414 340.411 98.8571 340.926 105.789 341.016C112.037 341.016 139.641 340.616 142.98 340.246C146.319 339.875 146.286 337.395 146.947 337.68C147.609 337.965 147.873 340.787 143.906 342.213ZM82.5155 330.809C84.4329 325.734 93.5903 298.848 94.1853 296.766C94.7804 294.685 94.9787 293.658 97.4912 293.658C102.681 293.658 105.062 292.661 141.03 294.172C145.989 294.371 146.947 297.707 148.369 302.468C149.791 307.23 147.675 321.685 146.683 326.874C145.691 332.063 147.675 337.566 139.84 338.278C132.005 338.991 96.4003 338.278 91.7059 337.053C87.0115 335.827 80.565 336.026 82.5155 330.951V330.809Z" fill="#471280"/>
<path d="M87.2429 332.69C89.4248 334.287 104.235 334.316 108.07 334.087C111.905 333.859 133.559 334.572 137.427 334.487C141.294 334.401 143.443 332.776 143.146 329.811C142.782 325.933 147.939 299.988 143.146 298.021C140.765 297.051 130.22 297.508 124.5 297.051C118.781 296.595 101.359 296.253 99.4086 296.453C97.4582 296.652 98.1193 296.681 97.2929 299.503C96.4664 302.326 90.3835 315.897 88.6975 320.345C87.0115 324.793 85.0941 331.094 87.2429 332.69ZM93.3589 312.733C94.4498 309.425 97.3259 303.324 98.6152 300.159C98.7203 299.884 98.9243 299.644 99.1976 299.475C99.471 299.306 99.7996 299.216 100.136 299.218C106.748 299.218 138.617 299.475 140.203 300.045C141.79 300.615 142.451 304.35 142.385 308.085C141.931 315.924 141.005 323.737 139.608 331.493C138.881 333.118 137.393 331.892 132.6 332.035C127.806 332.177 106.649 332.405 101.723 332.291C96.797 332.177 89.7885 331.578 88.4992 330.467C87.2099 329.355 92.1687 316.354 93.3589 312.704V312.733Z" fill="#471280"/>
</svg>
