<svg width="401" height="423" viewBox="0 0 401 423" fill="none" xmlns="http://www.w3.org/2000/svg">
<path d="M37.9932 40.0228V42.0872C38.0586 45.2139 38.9531 48.2787 40.5992 51.0154C42.2452 53.7521 44.5931 56.078 47.4388 57.791C63.7559 44.4284 85.6323 39.0572 106.755 33.8233C107.335 28.9585 106.552 24.0383 104.48 19.5301C102.409 15.0219 99.1188 11.0755 94.9215 8.06585C90.686 5.09141 85.675 3.19185 80.3901 2.55727C77.0079 1.24497 73.4137 0.453979 69.7518 0.216072C66.3679 0.123148 62.9975 0.647429 59.8352 1.75865C56.6728 2.86986 53.7812 4.546 51.3273 6.69029C47.5794 9.85858 44.7473 13.8341 43.086 18.2589C41.3459 15.4053 38.5169 13.2461 35.1458 12.1989C33.2773 11.6186 31.2722 11.5172 29.3457 11.9055C27.4193 12.2937 25.6442 13.157 24.211 14.4027C23.1451 15.2814 22.411 16.4491 22.1147 17.7368C21.8185 19.0246 21.9756 20.3656 22.5632 21.5658C22.549 22.8583 22.9358 24.1278 23.6782 25.2254C24.4206 26.323 25.488 27.2033 26.7551 27.7632C28.3312 28.3477 30.0468 28.5409 31.7297 28.3231C33.4126 28.1054 35.0037 27.4846 36.3431 26.5229C37.3263 25.7124 38.3784 24.9754 39.4893 24.319C38.7512 26.2943 37.2617 27.9579 35.2952 29.0035C33.2826 30.0721 31.0227 30.6855 28.7017 30.7932C29.6194 31.298 30.6524 31.5991 31.7188 31.6724C32.7852 31.7458 33.8555 31.5894 34.8447 31.2158C35.8935 30.8309 36.8461 30.2538 37.6445 29.5197C38.443 28.7856 39.0707 27.9097 39.4893 26.9455C39.3012 28.9561 38.4687 30.8702 37.0969 32.4456C35.7984 34.077 34.2889 35.5571 32.6017 36.8533C35.4377 35.9605 37.8996 34.2754 39.6433 32.0336C39.6421 32.0151 39.6449 31.9966 39.6518 31.9792C39.6586 31.9618 39.6692 31.9459 39.683 31.9324C39.6968 31.919 39.7134 31.9082 39.7319 31.9009C39.7504 31.8936 39.7703 31.8899 39.7904 31.8899C39.6212 32.2379 39.5201 32.6105 39.4916 32.9908C37.9839 36.1816 36.8289 39.5037 36.0444 42.9071C34.9941 46.4992 34.0955 50.4843 35.7433 53.9263C36.6659 55.6855 38.0573 57.2017 39.7881 58.334C42.3884 60.1756 45.4114 61.4474 48.6269 62.0529C46.531 60.4006 44.134 59.306 42.0357 57.7847C39.7615 56.4526 38.0262 54.4704 37.0969 52.143C36.5478 49.962 36.5991 47.6895 37.2463 45.5314C37.2344 43.6732 37.4855 41.8215 37.9932 40.0228ZM58.6769 3.93495C62.6117 2.4513 66.8703 1.83757 71.1101 2.14312C67.4038 2.43128 63.764 3.2209 60.3086 4.48644C55.6155 6.15335 51.3724 8.73801 47.8731 12.0615C50.6294 8.52532 54.3534 5.72178 58.6677 3.93495H58.6769ZM27.9571 15.0916C26.3734 15.6707 24.9799 16.6171 23.9123 17.8385C23.9246 17.3491 24.0836 16.8723 24.3719 16.4608C25.046 15.3031 26.0687 14.3486 27.3175 13.7116C28.5664 13.0745 29.9885 12.7819 31.4135 12.8687C33.5116 12.9152 35.5464 13.5386 37.2555 14.6584C36.9567 14.5211 36.7959 14.5211 36.5063 14.3837C33.6466 13.7855 30.6545 14.0332 27.9571 15.0916Z" fill="black"/>
<path d="M310.946 380.509C302.556 391.114 264.505 404.337 264.505 404.337C250.716 397.998 237.09 391.528 223.006 386.018C237.54 382.024 252.071 376.79 263.454 367.561C280.084 373.623 293.115 378.719 310.946 380.509Z" fill="#9778FF"/>
<path d="M251.919 385.054C247.576 385.88 243.68 386.569 239.337 387.395C241.922 385.618 244.24 383.534 246.231 381.198C248.273 382.292 250.18 383.585 251.919 385.054ZM274.391 388.498C266.928 388.842 259.559 390.187 252.519 392.492C256.564 389.048 260.91 385.606 263.456 381.061C263.916 382.438 264.206 383.676 264.654 385.054C264.206 385.606 263.155 386.432 262.707 387.121C263.904 386.698 265.104 386.432 266.301 386.018C269.105 386.514 271.825 387.348 274.391 388.498ZM292.818 378.719C285.627 381.335 278.287 383.539 270.946 385.606C272.684 381.037 274.736 376.574 277.089 372.245C277.484 372.554 277.942 372.788 278.436 372.934C277.089 376.239 275.448 379.546 273.943 382.713C278.713 380.935 283.323 378.815 287.732 376.374" fill="white"/>
<path d="M378.06 359.297C367.718 291.668 356.338 228.999 342.105 162.334L351.093 160.679C365.326 227.482 376.86 290.291 387.198 358.059L378.06 359.297ZM292.37 339.331C287.725 316.743 283.531 292.915 279.486 269.913C272.445 229.977 264.955 188.647 255.066 148.703L264.054 146.776C274.093 186.995 281.433 228.454 288.624 268.535C292.968 292.501 296.863 315.232 301.508 337.816L292.37 339.331Z" fill="#008C6E"/>
<path d="M209.824 307.646C191.767 315.433 174.977 325.492 159.937 337.535C156.506 340.04 153.567 343.069 151.248 346.488C150.128 348.216 149.451 350.156 149.269 352.162C149.088 354.167 149.406 356.183 150.2 358.058C152.448 362.466 157.841 364.807 162.934 366.045C181.51 370.867 201.135 367.837 220.46 367.837C233.712 367.85 246.923 369.189 259.86 371.831C275.89 375.275 291.32 380.646 307.35 383.814C323.38 386.981 340.759 387.672 355.887 381.887C362.743 379.056 369.185 375.446 375.063 371.142C383.153 365.633 390.944 359.573 396.037 351.584C401.13 343.595 402.931 333.402 398.434 325.138C394.389 317.7 385.851 313.018 377.012 311.089C368.174 309.159 359.034 309.573 350.046 310.125C336.413 310.814 322.63 310.951 308.998 311.503C291.621 312.191 273.943 312.88 257.015 309.436C248.326 307.646 240.087 304.754 231.248 303.651C222.561 302.55 217.764 304.202 209.824 307.646Z" fill="#FF465A"/>
<path d="M328.173 320.736C335.083 319.245 342.286 319.34 349.147 321.013C355.985 322.681 362.652 324.893 369.072 327.625C374.765 329.829 380.606 332.17 386.308 334.374C377.017 334.107 367.946 337.001 360.831 342.5C368.726 341.413 376.79 342.073 384.353 344.427C376.404 345.172 368.782 347.728 362.18 351.865C355.633 355.983 348.775 359.665 341.657 362.884C331.618 366.88 320.383 366.88 309.597 365.363C298.812 363.846 287.424 361.921 277.239 365.502C282.846 361.861 289.316 359.499 296.114 358.614C292.818 354.346 286.376 353.38 280.833 354.206C275.29 355.032 269.898 357.099 264.355 357.65C251.621 358.753 240.086 351.176 227.501 348.565C219.711 346.912 211.472 347.049 203.683 345.395C201.326 344.647 198.824 344.365 196.34 344.567C194.693 344.844 193.196 345.395 191.698 345.67C188.251 346.221 184.804 345.118 181.356 344.706C175.762 343.863 170.021 344.582 164.876 346.771C172.067 337.955 188.088 340.854 197.085 333.55C199.825 330.841 202.33 327.94 204.577 324.871C210.867 317.985 220.756 314.541 230.344 312.889C243.674 310.545 257.463 310.96 271.091 311.511C285.174 312.2 299.554 313.301 312.739 317.85C317.388 319.629 322.78 322.108 328.173 320.736Z" fill="#D70A32"/>
<path d="M215.818 288.363C209.494 289.441 203.507 291.792 198.289 295.25C195.703 297.029 193.544 299.28 191.945 301.861C190.347 304.442 189.345 307.299 189 310.252C188.552 315.486 190.8 320.72 190.8 325.954C190.532 330.105 189.571 334.193 187.952 338.076C186.254 341.95 185.194 346.035 184.806 350.196C184.627 352.274 184.92 354.364 185.669 356.333C186.417 358.301 187.603 360.104 189.152 361.627C192.494 360.367 195.491 358.442 197.926 355.988C200.361 353.535 202.173 350.616 203.233 347.441C206.979 336.561 201.884 324.853 202.773 313.559C203.382 304.065 207.427 294.423 215.818 288.363Z" fill="#FDB849"/>
<path d="M349.597 341.254C347.349 336.157 348.397 330.511 348.848 325.138C349.298 319.764 348.997 313.569 344.651 309.85C341.507 307.103 337.162 306.269 332.967 305.166C319.178 301.861 306.152 296.213 292.669 291.805C284.87 289.332 276.974 287.126 268.997 285.194C263.174 283.572 257.209 282.421 251.168 281.752C237.784 280.421 224.288 283.076 212.669 289.327C206.552 292.454 201.397 296.956 197.687 302.412C195.87 305.18 194.752 308.288 194.415 311.506C194.078 314.724 194.531 317.971 195.74 321.007C196.979 324.428 198.532 327.745 200.383 330.923C198.412 331.584 196.587 332.564 194.991 333.816C194.197 334.394 193.594 335.164 193.249 336.041C192.905 336.917 192.833 337.864 193.042 338.775C193.447 339.975 194.167 341.063 195.141 341.945C199.264 346.218 202.467 351.173 204.579 356.545C206.675 361.98 206.675 367.913 204.579 373.348C202.931 377.206 206.675 381.2 210.123 383.955C210.605 384.432 211.23 384.767 211.92 384.919C213.717 385.193 214.907 383.266 215.514 381.749C217.484 375.476 217.741 368.853 216.263 362.466C214.752 356.114 212.386 349.961 209.222 344.146C213.979 343.479 218.802 343.294 223.604 343.595C227.727 343.621 231.839 343.99 235.89 344.698C240.532 345.799 244.577 348.29 248.923 349.794C255.063 351.859 268.096 351.584 270.493 352.41C274.389 353.788 274.839 357.507 277.236 358.327C283.106 360.114 289.195 361.225 295.362 361.633C300.607 362.183 306.15 362.872 310.043 366.178C312.592 368.382 313.938 371.412 316.478 373.754C318.875 376.095 323.221 377.335 325.767 374.994C326.42 374.249 326.892 373.384 327.151 372.457C327.409 371.53 327.448 370.563 327.266 369.621C326.983 365.197 325.021 361.005 321.722 357.775C320.224 356.397 318.576 355.159 317.227 353.644C316.528 352.924 316.027 352.06 315.766 351.125C315.506 350.19 315.494 349.211 315.731 348.271C316.779 345.241 320.973 344.415 324.418 344.003C332.517 343.043 341.507 341.942 349.597 341.254Z" fill="#FFD340"/>
<path d="M355.887 326.241C357.51 328.981 358.287 332.077 358.135 335.194C357.987 338.668 358.598 342.134 359.932 345.387C360.332 346.054 360.58 346.789 360.659 347.547C360.738 348.305 360.647 349.07 360.392 349.795C359.952 350.331 359.387 350.77 358.739 351.08C358.091 351.39 357.376 351.562 356.645 351.584C353.619 351.664 350.674 350.682 348.406 348.837C346.215 347.124 344.431 345.014 343.164 342.64C341.215 339.47 336.571 323.769 336.872 320.327C337.161 314.258 348.397 314.533 355.887 326.241ZM223.307 342.906C236.635 341.777 250.071 342.52 263.155 345.11C264.752 345.323 266.283 345.839 267.651 346.625C268.351 347.006 268.928 347.551 269.323 348.204C269.718 348.858 269.917 349.596 269.898 350.344C269.76 351.286 269.286 352.158 268.549 352.825C265.702 355.717 260.91 355.994 256.865 355.572C252.986 355.042 249.172 354.166 245.478 352.956C241.284 351.715 237.089 350.614 233.045 349.374C230.946 348.823 228.85 348.134 226.752 347.584C224.808 347.178 222.904 346.625 221.06 345.93C220.31 345.655 220.31 345.104 220.6 344.415C220.861 343.962 221.25 343.582 221.727 343.317C222.204 343.051 222.75 342.909 223.307 342.906Z" fill="#FDB849"/>
<path d="M255.367 349.932C255.203 350.332 255.132 350.759 255.157 351.186C255.183 351.613 255.305 352.03 255.516 352.411C255.85 352.801 256.286 353.107 256.784 353.3C257.282 353.493 257.824 353.566 258.361 353.514C258.75 353.459 259.123 353.333 259.457 353.143C259.792 352.954 260.082 352.705 260.31 352.411C260.757 351.887 261.065 351.274 261.209 350.621C261.508 349.518 261.657 347.039 259.26 346.902C258.403 347.1 257.606 347.476 256.931 348.002C256.256 348.527 255.721 349.187 255.367 349.932ZM265.552 346.763C265.663 346.929 265.721 347.119 265.721 347.314C265.721 347.509 265.663 347.7 265.552 347.866C265.403 348.003 265.403 348.14 265.254 348.288C264.761 348.573 264.188 348.719 263.606 348.711C263.299 348.733 262.99 348.686 262.707 348.573C262.406 348.436 262.107 348.297 262.107 348.022C261.958 347.599 262.406 347.058 262.857 346.782C263.439 346.452 264.123 346.307 264.803 346.37C265.093 346.422 265.356 346.56 265.552 346.763ZM263.755 349.932C263.155 350.069 262.406 350.481 262.558 351.17C262.558 351.593 263.006 351.859 263.305 351.996C264.18 352.414 265.178 352.562 266.152 352.419C267.051 352.282 268.099 351.996 268.251 351.179C268.4 350.629 267.791 350.078 267.35 349.941C266.759 349.827 266.155 349.78 265.552 349.803C265.259 349.714 264.948 349.68 264.64 349.702C264.331 349.724 264.031 349.802 263.755 349.932ZM264.206 354.614C264.058 354.807 263.848 354.952 263.606 355.028C263.364 355.103 263.101 355.107 262.857 355.037C262.378 354.86 261.924 354.629 261.508 354.348C261.278 354.239 261.1 354.056 261.008 353.834C260.916 353.611 260.916 353.366 261.009 353.144C261.102 352.922 261.281 352.739 261.511 352.631C261.741 352.522 262.007 352.496 262.257 352.556C262.865 352.642 263.435 352.88 263.905 353.245C264.026 353.314 264.13 353.405 264.211 353.513C264.292 353.62 264.349 353.742 264.377 353.87C264.405 353.998 264.404 354.13 264.375 354.259C264.346 354.387 264.288 354.508 264.206 354.614ZM204.131 373.898C203.887 375.075 204.099 376.294 204.731 377.342C205.008 377.764 205.378 378.129 205.816 378.413C206.254 378.698 206.752 378.896 207.277 378.994C207.795 379.079 208.329 379.019 208.809 378.822C209.289 378.625 209.695 378.301 209.973 377.891C210.375 377.219 210.483 376.43 210.274 375.687C210.039 374.977 209.739 374.286 209.376 373.623C208.776 372.657 207.576 370.593 206.229 370.73C204.731 370.73 204.281 372.928 204.131 373.898ZM210.125 384.091C210.273 384.243 210.476 384.34 210.696 384.365C210.916 384.391 211.138 384.342 211.322 384.228C211.472 384.091 211.472 383.953 211.621 383.806C211.719 383.291 211.659 382.761 211.447 382.275C211.236 381.79 210.881 381.369 210.424 381.059C209.824 380.636 207.576 380.093 207.436 381.333C207.277 382.299 209.525 383.677 210.125 384.091ZM210.573 378.72V378.994C210.893 379.78 211.405 380.487 212.071 381.061C212.671 381.473 214.018 382.024 214.319 381.061V380.509C214.005 379.844 213.509 379.266 212.878 378.832C212.247 378.397 211.504 378.121 210.722 378.031C210.573 378.031 210.424 378.305 210.573 378.72Z" fill="black"/>
<path d="M225.854 321.419C222.073 320.551 218.092 320.792 214.468 322.108C211.301 323.026 208.279 324.322 205.48 325.964C204.047 326.645 202.774 327.578 201.734 328.711C200.836 330.501 202.483 329.814 203.683 329.4C210.872 326.516 218.364 323.906 225.854 321.419Z" fill="#FDB849"/>
<path d="M239.935 342.355C248.145 342.081 256.247 340.545 263.905 337.81C265.858 337.303 267.588 336.242 268.848 334.78C270.197 332.713 269.448 330.097 268.549 327.756C264.455 317.021 258.318 307.04 250.423 298.28C255.816 302.525 260.598 307.385 264.654 312.743C268.793 318.184 271.603 324.382 272.893 330.915C273.352 333.662 273.194 336.424 270.496 338.078C266.295 340.514 261.515 341.978 256.564 342.346C250.872 343.044 245.478 342.217 239.935 342.355ZM293.717 360.951C291.021 360.529 288.773 360.123 286.227 359.711C283.992 359.518 281.812 358.959 279.792 358.059C278.98 357.532 278.295 356.856 277.78 356.074C277.266 355.291 276.934 354.42 276.804 353.514C276.584 351.666 276.74 349.797 277.264 348.003C278.504 342.793 280.79 337.841 284.005 333.402C278.732 338.356 275.051 344.553 273.369 351.31C272.994 352.283 272.867 353.322 272.996 354.348C273.126 355.373 273.51 356.358 274.118 357.226C275.255 358.265 276.725 358.941 278.312 359.153C283.365 360.241 288.528 360.843 293.717 360.951ZM342.854 321.282C343.603 322.245 345.552 322.934 346.6 323.623L350.645 326.104C352.461 327.153 353.997 328.565 355.138 330.235C355.728 331.203 356.038 332.294 356.038 333.404C356.038 334.514 355.728 335.605 355.138 336.574C354.055 338.995 353.349 341.546 353.042 344.149C351.908 335.831 348.392 327.94 342.854 321.282Z" fill="black"/>
<path d="M337.47 316.599C341.457 317.631 345.043 319.683 347.812 322.516C351.107 325.821 352.456 331.192 353.205 335.462C353.78 338.606 353.831 341.813 353.355 344.971C352.907 348.14 351.408 350.887 350.659 354.057C350.059 356.949 351.856 359.43 353.056 361.908C354.17 363.717 354.787 365.748 354.853 367.825C354.883 369.046 354.647 370.26 354.158 371.395C353.669 372.531 352.938 373.565 352.008 374.436C349.817 375.834 347.178 376.513 344.516 376.363C341.528 376.503 338.375 377.466 335.378 377.052C331.334 376.363 329.385 373.471 327.289 370.58C326.089 368.926 324.441 367.411 323.393 365.758C320.406 361.351 315.154 358.872 310.51 356.117C304.967 352.812 302.719 349.23 301.82 342.894C301.449 339.793 301.754 336.656 302.719 333.666C304.817 326.228 309.312 322.37 316.802 319.065C323.086 315.819 330.493 314.936 337.47 316.599Z" fill="#FFD340"/>
<path d="M349.896 371.968C350.66 371.303 351.247 370.485 351.611 369.577C351.975 368.669 352.106 367.696 351.994 366.734C351.394 364.807 348.848 364.945 347.2 364.945C345.702 364.945 340.159 364.393 339.26 365.367C335.514 368.809 340.759 374.043 344.803 374.595C345.801 374.496 346.767 374.212 347.642 373.761C348.517 373.309 349.284 372.699 349.896 371.968Z" fill="black"/>
<path d="M323.979 326.378C323.193 325.961 322.33 325.681 321.433 325.552C316.039 324.586 310.645 323.623 305.102 322.805C303.43 322.366 301.651 322.414 300.009 322.942C298.48 323.922 297.412 325.399 297.022 327.075C294.413 333.894 292.409 340.895 291.03 348.011C290.761 348.701 290.688 349.444 290.819 350.167C290.951 350.891 291.281 351.571 291.78 352.144C293.278 353.245 295.523 352.281 297.171 351.318C304.962 346.082 310.96 338.921 316.935 332.035C317.742 330.809 318.948 329.848 320.383 329.288C321.881 328.736 323.678 330.251 324.729 329.7C326.227 328.857 325.027 326.93 323.979 326.378Z" fill="#FDB849"/>
<path d="M332.818 353.374C332.816 352.893 332.692 352.42 332.458 351.99C332.225 351.56 331.886 351.185 331.469 350.895C330.695 350.255 329.773 349.784 328.773 349.518C325.863 348.797 323.049 347.78 320.383 346.488C320.842 347.176 320.684 348.003 321.132 348.691C321.518 349.631 322.196 350.445 323.081 351.033C323.655 351.279 324.258 351.464 324.878 351.584C326.376 351.996 331.768 352.41 332.818 353.374ZM345.401 352.962C345.702 351.996 345.702 351.17 346.601 350.481C347.499 349.792 348.696 349.243 349.588 348.554C350.517 347.975 351.244 347.162 351.684 346.213C351.783 346.95 351.733 347.697 351.535 348.417C351.446 349.146 351.191 349.849 350.785 350.481C350.257 351.004 349.584 351.385 348.839 351.584C347.597 351.807 346.423 352.277 345.401 352.962Z" fill="black"/>
<path d="M350.045 367.286C348.248 367.286 346.299 367.423 344.502 367.561C343.97 367.573 343.452 367.719 343.004 367.983C342.633 368.224 342.359 368.571 342.224 368.969C342.088 369.367 342.099 369.795 342.254 370.187C342.519 370.998 343.04 371.718 343.753 372.254C343.495 371.812 343.401 371.305 343.483 370.81C343.566 370.314 343.822 369.857 344.212 369.507C344.994 368.907 345.917 368.482 346.908 368.267C347.947 367.975 348.997 367.561 350.045 367.286Z" fill="white"/>
<path d="M327.128 370.041C325.439 366.703 322.798 363.847 319.486 361.777C316.641 359.848 313.194 358.747 310.199 357.093C307.028 355.585 304.535 353.098 303.158 350.069C303.191 352.643 303.966 355.162 305.405 357.37C306.543 358.597 307.913 359.623 309.45 360.4C315.439 363.704 323.081 365.082 327.128 370.041Z" fill="#FDB849"/>
<path d="M3.54353 380.923H3.24476C2.49556 380.923 1.2959 380.501 0.698376 378.443C-0.179359 375.051 -0.230372 371.524 0.548993 368.112C5.3866 337.052 13.2072 306.447 23.9192 276.655L26.1646 277.344C15.4018 307.029 7.57985 337.547 2.79432 368.526C2.04416 371.658 2.04416 374.903 2.79432 378.035C2.9437 378.724 3.25395 378.998 3.39414 378.998C3.53433 378.998 3.54353 378.998 3.99397 378.724C7.13091 376.283 9.46526 373.087 10.7345 369.494C24.3674 340.432 35.3044 309.855 45.9404 280.241L48.188 280.93C37.5498 310.543 26.7644 341.121 12.9822 370.31C11.0356 374.305 9.07526 378.162 5.34071 380.503C4.88567 380.509 4.28584 380.923 3.54353 380.923ZM59.417 372.108H59.1159C57.9186 371.831 57.6175 370.593 57.3187 369.49C56.8687 366.105 56.8687 362.682 57.3187 359.297C59.7157 328.307 63.9099 297.597 69.4531 267.84L71.7008 268.262C66.1575 297.874 62.1127 328.591 59.7157 359.445C59.3401 362.649 59.3401 365.882 59.7157 369.086C61.1979 366.355 62.206 363.426 62.7034 360.408C69.7427 331.346 75.4353 300.767 80.8292 271.153L83.0768 271.576C77.6829 301.189 71.9903 331.766 64.9487 360.968C64.3919 364.567 63.069 368.03 61.0556 371.159C60.7683 371.419 60.1639 372.108 59.417 372.108ZM132.672 384.642C132.327 384.623 131.99 384.539 131.681 384.397C131.372 384.255 131.098 384.056 130.874 383.814C128.029 381.473 126.531 377.616 125.182 373.623C114.84 344.559 106.606 313.844 98.6654 284.23L100.913 283.679C108.853 313.293 117.092 343.872 127.28 372.934C128.627 376.653 129.976 380.234 132.373 382.161L132.522 382.299C132.672 382.161 132.672 381.876 132.823 381.61C133.424 378.465 133.424 375.247 132.823 372.101C129.282 341.371 123.425 310.904 115.295 280.919L117.543 280.368C125.673 310.445 131.529 341.004 135.069 371.825C135.669 375.2 135.669 378.642 135.069 382.018C134.609 383.947 133.572 384.359 132.973 384.496C132.973 384.642 132.823 384.642 132.672 384.642Z" fill="black"/>
<path d="M154.695 277.209C153.197 283.681 124.283 297.455 119.94 300.071C115.732 302.325 111.011 303.646 106.151 303.93C83.5273 306.677 53.867 304.204 31.3953 301.037C14.4669 298.696 9.52352 293.322 8.18368 284.921C6.08544 272.524 12.5272 259.852 20.6169 254.619C28.7065 249.385 37.9957 249.799 46.8345 250.348C69.0051 251.726 91.3274 252.966 113.5 254.344C117.244 254.619 141.513 245.803 144.96 247.732C152.746 252.413 157.092 266.737 154.695 277.209Z" fill="#008C6E"/>
<path d="M153.796 260.54C147.803 264.533 141.811 268.666 135.519 272.522C132.373 274.452 129.084 276.241 125.931 278.033C122.797 279.57 120.395 282.122 119.19 285.194C118.889 286.16 117.692 286.02 117.092 285.471C111.883 287.525 106.463 289.094 100.913 290.153C100.913 290.979 100.164 291.668 99.2651 291.117C92.5245 286.709 85.4759 281.889 76.9428 281.2C73.1768 281.128 69.4126 281.405 65.707 282.027C63.7711 282.301 61.8009 282.301 59.865 282.027C57.9208 281.622 56.0166 281.07 54.1724 280.374C47.3624 277.734 40.1227 276.151 32.7487 275.692C25.2589 275.415 15.6709 276.241 8.33051 273.349C7.55563 277.119 7.45472 280.981 8.03175 284.782C9.53016 293.183 14.4667 298.554 31.2434 300.898C53.7128 304.067 83.3754 306.544 105.996 303.788C110.857 303.507 115.578 302.187 119.786 299.932C124.131 297.316 153.045 283.542 154.543 277.067C155.784 271.586 155.528 265.907 153.796 260.54Z" fill="#14D29B"/>
<path d="M205.324 145.804C198.581 148.973 189.145 147.87 181.653 146.769C167.121 144.426 156.936 138.643 143.751 139.055C139.407 139.192 134.312 139.477 131.169 136.576C129.768 135.184 128.605 133.605 127.721 131.892C125.618 128.534 122.878 125.549 119.632 123.078C111.542 127.486 102.395 132.72 97.9092 140.295C104.202 148.559 109.446 152.692 117.536 159.441C119.025 160.82 120.81 161.9 122.778 162.61C124.637 163.049 126.572 163.143 128.47 162.885C140.754 161.922 153.04 160.958 165.471 160.138C172.062 159.716 178.504 159.449 185.095 159.173C192.137 158.898 198.728 158.484 205.62 160.276C206.938 160.637 208.294 160.868 209.665 160.964C210.685 160.913 211.691 160.727 212.653 160.413L225.235 157.108C225.985 156.969 226.883 156.419 226.585 155.731C226.435 155.454 226.125 155.308 225.985 155.179C222.089 153.527 217.146 155.454 213.25 153.939C215.647 152.7 218.346 151.735 220.892 150.497C222.806 149.405 224.951 148.7 227.184 148.43C231.08 148.293 234.824 151.046 238.42 149.808C237.221 148.842 236.322 147.467 235.125 146.638C234.567 146.119 233.878 145.735 233.12 145.519C232.362 145.303 231.558 145.262 230.779 145.4C232.432 145.189 234.115 145.479 235.573 146.226C236.308 146.574 237.113 146.779 237.938 146.826C238.764 146.873 239.59 146.763 240.367 146.501C238.832 144.28 236.5 142.624 233.776 141.819C232.537 141.636 231.28 141.59 230.029 141.681C227.934 141.819 225.835 141.956 223.889 142.093C224.908 141.579 225.958 141.119 227.035 140.716C227.614 140.514 228.218 140.375 228.832 140.304C229.991 140.414 231.112 140.742 232.128 141.267C233.125 141.878 234.246 142.3 235.423 142.507C236.015 142.586 236.618 142.496 237.152 142.249C237.686 142.003 238.126 141.612 238.411 141.13C237.062 140.304 235.862 139.201 234.504 138.383C234.964 138.383 235.253 137.96 235.403 137.557C233.006 137.419 230.907 135.767 228.508 135.767C226.865 135.888 225.275 136.359 223.866 137.145C217.465 140.287 211.472 142.911 205.324 145.804Z" fill="#DD4040"/>
<path d="M89.0771 104.484C85.0323 101.452 80.6887 97.4583 79.3397 92.7759C77.9906 88.0935 79.3397 80.9304 79.4891 76.1085C73.7965 76.9347 66.0079 77.7609 61.662 74.3188C58.6675 87.673 45.6322 97.1815 39.041 109.437C44.5842 109.714 50.1275 112.33 55.0708 114.533C60.0142 116.875 65.7068 118.804 71.1007 117.703C75.0076 116.877 80.3899 115.362 82.9363 112.469C85.3313 110.049 87.3937 107.367 89.0771 104.484Z" fill="#F7846C"/>
<path d="M64.9581 86.1643C66.9268 88.0273 69.2677 89.5238 71.8526 90.572C73.0834 90.983 74.4228 91.0313 75.6847 90.7102C76.9467 90.389 78.0685 89.7145 78.8943 88.7802C78.7449 84.6493 79.4918 79.6943 79.6435 76.1022C73.9509 76.9284 66.16 77.7546 61.8165 74.3125C61.2942 76.4879 60.5414 78.6111 59.5688 80.6515C61.0741 82.7131 62.8884 84.5691 64.9581 86.1643Z" fill="black"/>
<path d="M151.848 225.966C155.444 226.106 164.432 230.651 167.579 232.166C171.922 234.37 176.268 237.262 178.215 241.531C181.361 248.282 177.465 255.719 175.519 262.872C172.671 273.754 174.77 285.048 172.97 296.067C171.024 307.638 167.429 318.932 165.331 330.363C164.432 335.322 163.384 340.831 166.08 345.378C168.794 349.662 172.233 353.521 176.268 356.809C181.06 360.942 185.555 362.318 191.847 364.11C194.37 364.603 196.637 365.865 198.282 367.691C199.48 369.481 197.533 371.548 195.136 372.236C187.945 374.715 180.005 373.475 172.665 371.41C165.324 369.346 158.283 366.451 150.793 365.625C148.986 365.551 147.21 365.178 145.548 364.522C141.503 362.595 140.906 357.361 142.253 353.503C143.751 349.234 146.449 345.515 147.497 341.108C148.342 337.164 148.594 333.132 148.246 329.125C147.338 321.124 145.988 313.17 144.202 305.295C143.002 298.546 141.655 291.108 144.65 284.91C146.38 281.128 147.734 277.209 148.694 273.202C149.429 271.313 149.321 269.234 148.396 267.417C146.148 264.247 140.906 265.49 137.309 263.698C137.167 253.79 146.304 225.829 151.848 225.966Z" fill="#DD4040"/>
<path d="M200.686 368.526C199.069 366.495 196.742 365.036 194.095 364.393C187.502 362.466 182.409 361.5 177.465 357.232C173.23 353.816 169.592 349.821 166.68 345.387C163.833 340.702 164.881 335.056 165.781 329.822C166.528 325.826 167.426 321.831 168.477 317.837C165.705 319.366 162.736 320.569 159.638 321.419C156.276 322.338 152.711 322.433 149.297 321.696C148.413 321.458 147.559 321.134 146.75 320.73C147.197 323.285 147.497 325.86 147.649 328.445C148.001 332.589 147.749 336.757 146.9 340.839C145.852 345.387 142.855 349.243 141.356 353.651C139.858 357.781 140.607 363.159 144.804 365.082C146.551 365.788 148.436 366.163 150.345 366.185C158.285 367.148 165.926 370.041 173.556 372.245C181.186 374.449 189.735 375.687 197.377 373.071C199.788 372.52 201.877 370.453 200.686 368.526Z" fill="#643CFF"/>
<path d="M147.653 331.749C150.501 334.642 154.994 334.091 158.74 332.576C161.216 331.554 163.574 330.308 165.782 328.857C166.528 325.138 167.429 321.556 168.328 317.837C165.556 319.366 162.586 320.569 159.489 321.419C156.127 322.338 152.562 322.433 149.147 321.696C148.264 321.458 147.41 321.134 146.601 320.73C147.048 323.285 147.348 325.86 147.499 328.445C147.625 329.542 147.677 330.646 147.653 331.749ZM200.686 368.526C199.393 366.823 197.562 365.525 195.442 364.807C194.975 365.932 194.202 366.928 193.197 367.7C190.991 369.207 188.502 370.327 185.854 371.005C183.719 371.64 181.699 372.566 179.862 373.751C185.603 375.021 191.61 374.83 197.241 373.2C199.788 372.52 201.877 370.453 200.686 368.526ZM151.547 359.159C149.794 355.394 146.594 352.354 142.558 350.621C142.099 351.584 141.66 352.685 141.209 353.651C139.711 357.781 140.46 363.159 144.657 365.082C146.405 365.788 148.29 366.163 150.2 366.185C151.248 366.322 152.149 366.46 153.187 366.597C153.134 364.047 152.578 361.527 151.547 359.159Z" fill="black"/>
<path d="M91.6259 214.261C113.964 216.825 136.087 220.782 157.841 226.106C150.093 240.166 145.314 255.448 143.758 271.145C121.886 270.044 99.8625 267.426 78.1424 266.325C72.5992 266.05 66.4562 265.499 62.4113 261.917C59.936 259.506 58.4073 256.403 58.0678 253.102C56.7187 244.149 61.214 235.196 67.8052 228.447C74.247 221.698 83.2352 219.08 91.6259 214.261Z" fill="#FDB849"/>
<path d="M132.522 128.454C118.292 124.862 108.111 113.986 97.468 104.621C95.0293 102.312 92.257 100.321 89.229 98.7049C88.0294 98.1534 81.8863 96.9131 81.2888 96.0869C85.7817 104.076 88.1833 106.555 81.2888 108.07C80.2596 108.299 79.2003 108.392 78.1426 108.346C72.3363 108.206 66.6869 106.584 61.8255 103.662C57.4796 101.046 52.835 95.5354 47.1424 95.5354C34.7092 104.765 23.1746 114.681 15.5331 127.63C12.3184 133.114 9.85289 138.943 8.19274 144.984C-0.64608 174.597 3.24934 207.528 7.89397 238.232C8.19274 239.885 14.1841 245.119 17.0316 242.777C42.9367 221.284 71.8501 199.934 107.651 202.552C108.851 182.58 111.397 174.591 110.499 154.619C120.238 147.595 123.683 136.162 132.522 128.454Z" fill="#643CFF"/>
<path d="M106.157 139.744C104.966 135.342 103.617 130.978 102.112 126.658C100.986 123.324 99.6349 120.058 98.0677 116.879C97.1668 116.879 96.2682 116.741 95.3696 116.741C97.1401 120.752 98.6903 124.843 100.014 128.997C104.059 142.495 107.653 155.992 110.65 169.628C110.8 166.186 110.951 162.604 110.8 158.334C109.301 152.14 107.805 145.941 106.157 139.744Z" fill="black"/>
<path d="M105.408 27.9006C107.846 35.7532 109.255 43.8457 109.602 52.0057C109.901 59.3061 110.062 68.6709 105.856 75.1451C102.948 79.2029 98.5259 82.1422 93.4232 83.4091C86.5147 85.0638 79.2809 85.2085 72.3006 83.8317C67.2815 83.1298 62.6236 81.0114 58.9712 77.7695C55.3768 74.3274 53.729 69.6429 51.9295 65.2373C49.5622 59.603 47.7081 53.7977 46.3863 47.8811C44.7385 39.7546 43.6905 28.7353 48.1858 21.2975C50.3026 17.9111 53.1695 14.9712 56.6007 12.6682C60.032 10.3652 63.951 8.75046 68.1041 7.92859C73.1629 7.09379 78.3629 7.34299 83.2999 8.6568C88.2369 9.9706 92.7777 12.3136 96.5694 15.5037C100.881 18.6615 103.978 23.0061 105.408 27.9006Z" fill="#F7846C"/>
<path d="M84.5844 21.8406C81.8168 21.9537 79.0453 21.722 76.3454 21.1517C72.0336 20.0968 67.6157 19.4504 63.1607 19.2226C50.8769 19.4994 52.0742 38.0937 51.9249 40.0229C51.3273 45.5315 52.5247 51.0401 52.9751 56.5508C50.9163 55.2718 48.7665 54.1211 46.5402 53.1066C44.5914 46.7676 42.9436 28.5958 47.4388 21.0144C50.0833 16.8152 53.8187 13.2843 58.311 10.7376C62.8033 8.19094 67.9121 6.70796 73.1805 6.42136C78.4488 6.13477 83.7123 7.05351 88.4998 9.09537C93.2873 11.1372 97.4496 14.2385 100.614 18.1217C97.3003 19.7492 93.6982 20.8224 89.9759 21.2912C88.1983 21.6107 86.3949 21.7945 84.5844 21.8406Z" fill="black"/>
<path d="M45.0352 50.2139C44.0816 49.759 43.0185 49.5331 41.9445 49.5572C40.8705 49.5812 39.8206 49.8543 38.8922 50.3512C38.1369 51.0237 37.6154 51.887 37.3938 52.8319C37.1556 54.3085 37.2451 55.8142 37.6571 57.2581C38.0691 58.702 38.7949 60.0542 39.7908 61.2332C43.0789 65.5512 47.9921 68.5944 53.5799 69.7739C54.2763 69.9972 55.0209 70.0636 55.7511 69.9677C56.4813 69.8717 57.1758 69.6161 57.7763 69.2224C58.3757 68.6229 58.698 67.8326 58.6749 67.0185C58.7959 64.6813 58.1141 62.3682 56.7261 60.407C54.3986 55.7542 50.2121 52.104 45.0352 50.2139Z" fill="#F7846C"/>
<path d="M54.3335 65.0894C51.6378 56.9628 46.6944 55.0357 41.751 52.834C44.902 55.1285 47.6331 57.8721 49.8406 60.9606C48.0251 60.4556 46.0807 60.5038 44.2974 61.0979C47.8007 62.0648 51.1689 63.4051 54.3335 65.0915" fill="#DD4040"/>
<path d="M84.7338 71.7009C81.7192 71.7612 78.7196 71.2937 75.895 70.3232L76.4948 68.8082C82.4638 70.7253 89.0031 70.4789 94.7815 68.1194L95.5307 69.6365C92.1457 71.0603 88.4556 71.7659 84.7338 71.7009Z" fill="black"/>
<path d="M86.531 60.8211C86.2534 55.0511 85.6034 49.3014 84.5845 43.6023C88.4914 49.5187 89.8266 54.6216 94.77 57.7911C91.9542 58.6333 89.2018 59.6455 86.531 60.8211Z" fill="#DD4040"/>
<path d="M62.8618 48.2868C65.2588 43.6023 68.7038 40.849 72.4498 40.5722C74.452 40.4828 76.4307 41.0005 78.0816 42.0457C79.7325 43.091 80.9643 44.606 81.5874 46.3576C79.2484 48.4679 76.1672 49.7416 72.898 49.9497C69.444 50.5021 65.8888 49.913 62.8618 48.2868ZM89.677 46.6323C92.074 41.9499 95.519 39.1946 99.265 38.9199C102.859 38.4973 106.456 40.5722 108.403 44.7053C106.064 46.8152 102.984 48.0889 99.7155 48.2973C96.2613 48.7689 92.7343 48.1839 89.677 46.6323Z" fill="white"/>
<path d="M73.6382 40.9863C73.7919 44.0214 73.3353 47.0564 72.2915 49.9391H72.889C76.145 49.6832 79.2094 48.4164 81.5785 46.347C80.949 44.8502 79.867 43.5501 78.4601 42.6003C77.0531 41.6504 75.38 41.0904 73.6382 40.9863ZM100.614 39.334C100.715 42.3774 100.207 45.412 99.1159 48.2867H99.7157C102.971 48.0306 106.034 46.7638 108.403 44.6947C107.848 43.1807 106.807 41.8573 105.416 40.9C104.025 39.9427 102.35 39.3965 100.614 39.334Z" fill="black"/>
<path d="M72.7489 43.053C73.7003 42.8175 74.693 42.7571 75.6699 42.8753C76.6468 42.9935 77.5887 43.288 78.4415 43.7419C79.3539 44.2596 80.2084 44.8591 80.9924 45.5316C80.3412 43.9404 79.1364 42.5915 77.5654 41.6947C75.9945 40.7979 74.1453 40.4033 72.3053 40.5724C68.7087 40.995 65.1143 43.6024 62.7173 48.2869C65.5702 45.8454 69.006 44.0528 72.7489 43.053ZM98.8149 42.0874C100.66 41.7663 102.562 41.8613 104.358 42.3642C105.706 42.7655 106.972 43.3703 108.104 44.1539C107.429 42.4822 106.196 41.0498 104.581 40.0615C102.967 39.0732 101.054 38.5797 99.1159 38.6517C96.9466 39.15 94.9411 40.1245 93.2712 41.4917C91.6013 42.8588 90.3169 44.5779 89.5279 46.5014C92.0975 44.2397 95.322 42.7071 98.8149 42.0874Z" fill="#DD4040"/>
<path d="M83.9797 35.7525C79.9019 34.7868 75.6244 34.7868 71.5465 35.7525C67.6426 36.7174 64.1133 38.6742 61.3633 41.3984C65.9466 40.8928 70.5822 40.9396 75.1524 41.5379C76.6559 41.7211 78.1841 41.627 79.6476 41.2611C80.9849 41.0016 82.1692 40.2938 82.97 39.2756C83.7708 38.2573 84.1308 37.0014 83.9797 35.7525ZM106.755 35.7525C105.896 34.2899 104.441 33.2002 102.71 32.7225C101.019 32.2148 99.2454 31.9817 97.4677 32.0336C95.5133 31.9257 93.5597 32.2564 91.7752 32.9972C91.7752 33.686 91.1753 34.6495 91.1753 35.201C91.1166 35.8565 91.2187 36.5158 91.4741 37.1302C91.8207 37.5162 92.2555 37.8272 92.7477 38.0412C93.2398 38.2552 93.7771 38.3669 94.3215 38.3684C96.7586 38.0461 99.1311 37.3968 101.363 36.4414C103.085 35.8575 104.925 35.6226 106.755 35.7525Z" fill="black"/>
<path d="M144.652 302.55C144.359 301.934 143.824 301.442 143.154 301.172L138.217 297.865C133.279 294.131 128.942 289.772 125.334 284.919C122.488 280.926 117.844 274.863 117.545 270.044C117.085 263.432 119.492 255.994 120.992 249.657C122.64 242.909 124.587 236.16 125.936 229.411C127.056 223.177 127.508 216.857 127.285 210.542C126.933 203.527 127.486 196.499 128.932 189.604C130.879 182.58 134.625 175.005 131.628 168.263C129.682 163.992 125.336 161.237 120.992 158.896C117.927 157.071 114.436 155.938 110.804 155.589C105.261 155.452 100.318 158.482 95.9742 161.651C85.8638 168.691 76.3475 176.424 67.5066 184.784C67.3056 187.213 67.255 189.651 67.355 192.085C68.3495 208.57 75.3058 224.277 87.1193 236.711C91.1641 228.585 94.7585 220.044 98.0564 211.643C95.0688 217.84 96.4063 225.28 97.5968 232.029C98.9458 239.327 100.743 246.627 101.504 254.065C101.978 257.821 101.928 261.617 101.354 265.361C100.754 269.492 97.6082 273.488 95.6617 277.344C94.7261 278.889 94.068 280.563 93.7128 282.301C93.3418 284.209 93.6887 286.177 94.6963 287.879C95.7038 289.582 97.3121 290.918 99.256 291.668C101.802 292.771 104.799 292.632 107.495 293.597C110.732 294.984 113.635 296.951 116.035 299.383C121.427 303.928 129.068 309.162 136.707 309.299H136.859C138.384 309.329 139.887 308.955 141.189 308.222C142.49 307.49 143.535 306.429 144.199 305.166C144.692 304.374 144.853 303.444 144.652 302.55Z" fill="#F7846C"/>
<path d="M145.856 303.239C145.466 302.606 144.897 302.082 144.209 301.724C142.449 300.654 140.749 299.504 139.113 298.28C134.027 294.407 129.542 289.912 125.784 284.919C122.796 280.786 117.993 274.589 117.694 269.629C117.235 262.881 119.641 255.168 121.289 248.694L121.748 247.042C120.735 247.732 119.685 248.375 118.602 248.969C116.779 250.214 114.658 251.04 112.416 251.375C110.174 251.711 107.877 251.547 105.719 250.898C103.793 250.235 102.016 249.255 100.474 248.005C100.775 249.797 100.934 251.449 101.223 253.239C101.699 257.086 101.649 260.974 101.074 264.81C100.325 269.08 97.167 273.211 95.0825 277.065C94.1016 278.654 93.3938 280.374 92.9843 282.162C92.6393 284.121 93.0109 286.131 94.041 287.876C95.0711 289.62 96.7015 291.002 98.6769 291.803C101.375 292.906 104.519 292.769 107.217 293.732C110.572 295.128 113.58 297.142 116.056 299.649C121.748 304.331 129.539 309.702 137.477 309.979H137.629C139.213 310.015 140.776 309.631 142.13 308.874C143.484 308.117 144.573 307.019 145.268 305.709C145.569 305.368 145.779 304.967 145.881 304.538C145.984 304.109 145.975 303.664 145.856 303.239Z" fill="#9778FF"/>
<path d="M101.364 257.095C106.307 260.953 113.047 260.127 119.041 257.372C119.787 254.342 120.536 251.449 121.286 248.694L121.746 247.042C120.733 247.732 119.683 248.375 118.6 248.969C116.777 250.214 114.655 251.04 112.414 251.375C110.172 251.711 107.875 251.547 105.716 250.898C103.791 250.235 102.014 249.255 100.472 248.005C100.773 249.797 100.931 251.449 101.221 253.239C101.216 254.479 101.364 255.867 101.364 257.095ZM103.011 283.267C101.203 280.342 98.6271 277.88 95.5192 276.104L95.0596 276.93C94.0783 278.519 93.3705 280.238 92.9613 282.026C92.6163 283.986 92.9879 285.996 94.0181 287.74C95.0482 289.485 96.6786 290.866 98.654 291.668C100.691 292.336 102.801 292.798 104.946 293.046C105.402 291.383 105.465 289.65 105.131 287.963C104.797 286.277 104.074 284.675 103.011 283.267ZM144.209 301.72C143.749 301.443 143.459 301.168 143.009 300.893C140.57 302.232 138.015 303.383 135.37 304.335C133.643 304.907 132.062 305.798 130.725 306.953C130.334 307.285 129.982 307.654 129.677 308.054C132.198 309.052 134.881 309.658 137.617 309.846H137.758C139.342 309.882 140.904 309.498 142.259 308.741C143.613 307.984 144.702 306.885 145.397 305.576C145.656 305.214 145.83 304.807 145.909 304.38C145.988 303.953 145.97 303.515 145.856 303.095C145.417 302.536 144.856 302.067 144.209 301.72Z" fill="#643CFF"/>
<path d="M98.8148 208.338C99.6638 205.891 99.8694 203.295 99.4147 200.761C99.2653 198.557 98.6654 196.493 98.6654 194.289C98.5161 186.299 107.206 181.066 113.346 176.932C117.387 174.616 122.069 173.42 126.83 173.49C128.796 173.399 130.766 173.585 132.672 174.04C132.723 172.013 132.316 169.998 131.474 168.123C129.528 163.855 125.182 161.1 120.838 158.759C117.774 156.933 114.283 155.8 110.65 155.452C105.107 155.314 100.164 158.344 95.8203 161.512C85.7107 168.552 76.1951 176.286 67.355 184.647C67.1551 187.076 67.1045 189.513 67.2033 191.947C68.2 208.434 75.1606 224.141 86.9792 236.574C90.7229 229.136 94.0185 221.422 97.0154 213.847C97.6175 212.34 98.3667 209.853 98.8148 208.338Z" fill="#DD4040"/>
<path d="M96.5692 227.896C83.9844 214.81 78.2918 193.877 81.2886 176.658C81.711 172.878 83.2092 169.268 85.6322 166.19C57.6358 187.296 33.2892 212.19 13.4255 240.02C11.3273 243.05 17.4703 252.554 19.2675 254.896C22.8087 259.466 27.4816 263.196 32.9003 265.778C40.4685 269.037 48.8499 270.369 57.1691 269.634C64.0637 269.211 73.9459 268.945 79.4891 264.814C81.7967 262.757 83.6753 260.33 85.0323 257.651C90.5756 247.73 94.7812 238.915 96.5692 227.896Z" fill="#FFD340"/>
<path d="M84.5843 95.9432C82.9818 94.8889 81.6486 93.5261 80.6773 91.9497C79.9281 95.9432 82.925 99.6621 83.665 103.795C83.8152 104.196 83.8152 104.632 83.665 105.033C83.3725 105.783 82.8152 106.421 82.082 106.846C81.3488 107.27 80.482 107.456 79.6202 107.375C77.1225 107.237 74.7019 106.527 72.5786 105.31C68.099 103.137 63.7485 100.746 59.5455 98.1471C55.6969 95.2666 51.268 93.1125 46.5126 91.8081C45.9127 93.5999 45.3129 95.2523 44.8647 97.042C49.5742 98.3145 53.9212 100.525 57.5967 103.516C61.1865 106.443 65.163 108.942 69.4323 110.954C71.561 111.961 73.9156 112.497 76.3092 112.521C78.7029 112.545 81.0696 112.055 83.2214 111.091C84.8927 110.319 86.1794 108.989 86.8181 107.372C87.4415 105.434 87.3885 103.365 86.6664 101.456C86.0827 99.5248 85.1841 97.8724 84.5843 95.9432ZM53.414 185.196C55.8591 184.466 58.1234 183.3 60.0772 181.763C62.0309 180.227 63.6356 178.351 64.7992 176.243C68.9934 168.943 75.4352 148.973 77.6828 144.971C79.9304 141.115 69.1451 150.619 60.605 160.819C51.7754 171.147 49.8288 179.55 53.414 185.196Z" fill="black"/>
<path d="M69.9034 160.819C71.5512 158.072 73.0473 155.308 74.6974 152.692C76.4504 149.663 77.7116 146.415 78.4412 143.05C76.3901 139.858 73.7544 137.015 70.6503 134.647C62.5607 139.055 53.4139 144.289 48.9302 151.864C54.023 158.475 58.6676 165.638 64.3602 170.458C64.9155 169.179 65.5659 167.936 66.3067 166.739C67.0482 165.379 67.8478 164.046 68.7038 162.743C69.0123 162.057 69.4154 161.41 69.9034 160.819ZM95.3696 18.2589C94.3216 18.3962 83.835 18.5357 83.835 18.5357C78.1424 17.9842 72.4498 16.6065 66.9066 16.055C63.603 15.405 60.1561 15.8441 57.1692 17.2954C55.6886 18.3507 54.4973 19.7101 53.6908 21.2647C52.8842 22.8194 52.4848 24.5261 52.5245 26.2481C52.0649 33.5485 55.5122 40.4348 57.769 47.5894L57.3094 50.0679C56.2621 52.7938 55.5093 55.6078 55.0617 58.4692C54.9465 60.4449 55.3043 62.4198 56.1097 64.2546C55.9603 64.3919 55.9603 64.6772 55.8109 64.8061C53.7127 69.7653 54.0138 75.9627 58.2079 79.5442C55.9603 76.1001 56.7095 71.9691 58.3573 68.2503C59.8557 70.1773 61.5035 71.9691 63.1513 73.7589C61.5164 71.78 60.0159 69.7103 58.6584 67.5614C60.1545 64.1172 62.2528 60.6731 62.5515 56.9542C62.6935 53.1776 61.9276 49.4187 60.3085 45.9455C61.2071 40.2974 58.8101 34.3747 59.5593 28.7267C59.6276 27.714 59.9342 26.7271 60.4579 25.834C61.5611 24.2569 63.2746 23.124 65.2519 22.6645C69.9015 21.6043 74.7053 21.2327 79.4822 21.5636C81.8434 21.5906 84.2017 21.4059 86.5239 21.0121C89.7389 21.1168 92.8848 20.1376 95.3696 18.2589ZM58.6676 57.7909C58.1248 59.5402 57.4229 61.2443 56.5693 62.8854C56.2609 61.5732 56.1068 60.2343 56.1097 58.8918C56.4702 56.2665 57.2792 53.7101 58.5067 51.3167C59.0075 53.4458 59.0621 55.6431 58.6676 57.7909ZM58.0678 25.5508C56.2706 29.2697 56.8681 33.5401 57.4679 37.5336C56.8748 35.4486 56.4243 33.3314 56.1189 31.1946C55.569 28.6427 55.6207 26.0121 56.2706 23.4801C56.5833 22.2197 57.2235 21.0477 58.1365 20.0644C59.0494 19.0811 60.2079 18.3159 61.5127 17.8342C63.7848 17.3275 66.1613 17.3749 68.4073 17.9715C69.4553 18.1089 70.6526 18.3941 71.7029 18.523C66.1574 18.673 60.3085 21.0142 58.0678 25.5508Z" fill="black"/>
<path d="M46.5334 405.989L37.3936 404.888C47.5814 337.672 60.0146 270.043 74.0979 203.792L83.086 205.445C68.9352 271.977 56.7465 338.85 46.5334 405.989ZM145.112 422.794L136.124 421.279C141.366 395.522 145.261 368.938 149.453 340.702C154.996 302.824 160.689 263.578 169.978 226.655L178.966 228.584C169.829 265.222 164.134 304.202 158.593 341.942C154.245 370.041 150.349 396.899 145.112 422.794Z" fill="#008C6E"/>
<path d="M383.302 173.351L187.203 235.333L48.48 200.761V187.677L383.302 160.267V173.351Z" fill="#14D29B"/>
<path d="M254.317 141.121L48.48 187.677L187.203 222.247L383.302 160.267L254.317 141.121Z" fill="#008C6E"/>
<path d="M140.612 174.454L178.065 181.617L233.645 167.979V163.16H198.737L140.612 172.387V174.454Z" fill="#FFD340"/>
<path d="M140.612 172.387L177.764 178.173L178.065 181.617L140.612 174.454V172.387Z" fill="black"/>
<path d="M204.43 198.557C204.61 196.886 204.302 195.202 203.539 193.677C202.775 192.152 201.584 190.842 200.087 189.881C197.097 187.939 193.557 186.838 189.899 186.711C186.837 186.435 183.749 186.861 180.911 187.952C179.517 188.54 178.308 189.442 177.393 190.573C176.479 191.705 175.889 193.03 175.678 194.426C175.218 198.282 181.669 200.486 184.815 201.312C191.248 203.104 199.188 203.104 204.43 198.557Z" fill="#FDB849"/>
<path d="M202.633 195.666C203.088 194.681 203.217 193.594 203.004 192.542C202.791 191.49 202.245 190.518 201.435 189.75C200.748 189.253 199.911 188.964 199.038 188.921C197.07 189.155 195.26 190.036 193.943 191.402C197.09 192.359 200.836 193.462 202.633 195.666Z" fill="black"/>
<path d="M189.749 157.375C188.505 156.739 187.124 156.363 185.704 156.272C185.621 156.282 185.537 156.276 185.457 156.252C185.378 156.228 185.305 156.188 185.245 156.134C184.024 154.893 182.61 153.825 181.048 152.965C180.433 152.509 179.718 152.18 178.952 152.001C178.11 151.885 177.257 151.839 176.406 151.862C173.896 151.956 171.394 152.186 168.914 152.551C168.122 152.413 167.309 152.413 166.517 152.551C162.624 152.973 159.622 155.581 156.331 157.235C149.588 160.405 140.152 159.299 132.66 158.199C118.14 155.859 107.954 150.074 94.7812 150.488C90.4377 150.626 85.3449 150.9 82.1987 148.008C80.7972 146.617 79.6347 145.038 78.7514 143.325C76.6454 139.965 73.9016 136.98 70.6503 134.51C62.5607 138.917 53.4139 144.151 48.9302 151.726C55.2203 159.99 64.3602 165.913 72.4498 172.664C73.939 174.044 75.7243 175.123 77.6919 175.834C79.5509 176.271 81.486 176.365 83.3846 176.108C106.904 174.319 119.489 170.462 148.402 169.634C153.047 169.497 158.744 170.6 162.483 167.43C163.95 165.887 165.732 164.624 167.728 163.711C169.817 163.117 172.046 163.07 174.163 163.574C176.767 164.147 179.469 164.24 182.112 163.849C183.16 163.572 184.059 163.426 184.509 162.608C184.621 162.401 184.773 162.214 184.957 162.057C185.018 162.004 185.09 161.963 185.17 161.94C185.25 161.916 185.334 161.909 185.417 161.92H185.56C187.058 161.231 188.106 160.13 187.357 159.441C188.402 159.304 190.949 158.201 189.749 157.375Z" fill="#F7846C"/>
<path d="M28.5548 117.705C29.4659 115.411 30.8615 113.305 32.6612 111.508C34.4609 109.712 36.6292 108.26 39.0414 107.237C47.2827 104.068 54.7725 107.237 60.3157 113.297C64.3605 117.705 67.6561 122.806 71.5515 127.346C72.4501 128.312 82.9368 138.503 83.2355 138.091C78.1095 147.02 72.0382 155.463 65.1097 163.297C59.4171 169.357 51.9251 176.658 53.5729 185.483C50.7277 182.177 48.0296 179.144 46.3818 177.22C43.6861 174.05 41.1397 170.881 38.8921 167.711C32.3009 158.625 26.907 148.014 26.0084 136.994C25.0531 130.47 25.9297 123.83 28.5548 117.705Z" fill="#9778FF"/>
<path d="M304.353 169.909C311.395 166.052 320.833 160.679 327.425 156.548C312.375 150.086 296.975 144.34 281.284 139.332C272.562 143.721 264.11 148.549 255.965 153.793C273.642 158.615 287.425 164.537 304.353 169.909Z" fill="white"/>
<path d="M293.269 162.333C296.716 163.709 300.163 165.08 303.454 166.602C306 164.812 308.549 163.16 311.096 161.505C313.343 160.13 315.588 158.758 317.99 157.512C315.294 156.271 312.447 155.033 309.602 153.793C309.162 153.695 308.751 153.506 308.402 153.241C303.335 156.24 298.29 159.27 293.269 162.333Z" fill="#008C6E"/>
<path d="M292.069 150.074C289.821 151.452 287.424 152.692 285.328 154.068C283.52 155.184 281.769 156.38 280.084 157.649C281.582 158.201 283.23 158.752 284.729 159.302C286.526 159.99 288.325 160.542 289.973 161.231C294.936 157.95 300.087 154.917 305.403 152.145C302.107 150.767 298.66 149.527 295.215 148.289C294.133 148.833 293.083 149.429 292.069 150.074Z" fill="#14D29B"/>
<path d="M292.219 147.048L285.028 144.57C283.903 144.14 282.752 143.772 281.58 143.467C281.165 143.748 280.711 143.98 280.231 144.156C275.28 146.87 270.48 149.812 265.852 152.971C269.479 154.081 273.075 155.275 276.637 156.553C281.732 153.242 286.976 150.218 292.219 147.048Z" fill="#FFD340"/>
<path d="M309.298 172.112C313.791 167.705 319.335 161.645 323.23 157.11C302.367 154.869 281.433 153.215 260.46 152.151C254.779 157.117 249.614 162.558 245.03 168.404C267.651 168.943 286.976 171.009 309.298 172.112Z" fill="white"/>
<path d="M291.469 168.257C296.263 168.669 300.908 169.083 305.553 169.632C306.902 167.842 308.099 165.913 309.597 164.124C310.864 162.508 312.269 160.989 313.798 159.579C309.903 159.156 306.008 158.615 301.963 158.201C301.365 158.201 300.765 158.063 300.166 158.063C297.314 161.506 294.317 164.812 291.469 168.257Z" fill="#643CFF"/>
<path d="M280.535 158.615C279.185 160.13 277.687 161.506 276.49 163.023C275.485 164.243 274.584 165.532 273.794 166.879L280.084 167.291C282.481 167.428 284.878 167.714 287.275 167.842C290.003 164.214 293.061 160.804 296.415 157.649L282.481 156.411C281.779 157.105 281.129 157.841 280.535 158.615Z" fill="#9778FF"/>
<path d="M278.137 156.134C274.991 155.859 271.702 155.722 268.549 155.445C267.051 155.308 265.562 155.308 264.054 155.17L263.155 155.997C260.051 159.023 257.244 162.295 254.767 165.776C259.561 166.052 264.355 166.198 269.149 166.602C272.144 163.16 275.141 159.726 278.137 156.134Z" fill="#FF465A"/>
<path d="M313.384 164.532C314.511 164.285 315.331 163.725 315.216 163.281C315.101 162.838 314.094 162.678 312.967 162.925C311.84 163.172 311.019 163.732 311.134 164.176C311.249 164.62 312.256 164.78 313.384 164.532Z" fill="black"/>
<path d="M320.084 167.705C319.055 167.735 318.033 167.546 317.096 167.153L317.845 165.364C319.72 165.883 321.733 165.786 323.538 165.087C325.086 164.529 326.487 163.676 327.65 162.583C328.812 161.49 329.709 160.183 330.281 158.748C330.6 157.766 330.657 156.728 330.448 155.721C330.24 154.714 329.771 153.768 329.081 152.963C328.117 151.899 326.849 151.104 325.42 150.666C323.991 150.228 322.457 150.165 320.992 150.484C319.213 150.746 317.546 151.451 316.171 152.521C314.797 153.592 313.766 154.987 313.192 156.557C312.876 157.645 312.806 158.78 312.986 159.894C313.167 161.008 313.594 162.075 314.242 163.031L312.594 163.994C311.791 162.817 311.257 161.501 311.025 160.128C310.793 158.754 310.868 157.351 311.245 156.005C311.958 154.118 313.212 152.442 314.875 151.155C316.538 149.869 318.548 149.019 320.693 148.696C322.52 148.29 324.436 148.373 326.214 148.935C327.992 149.496 329.559 150.513 330.729 151.866C331.627 152.896 332.234 154.114 332.496 155.411C332.757 156.709 332.665 158.047 332.228 159.304C331.613 161.036 330.579 162.618 329.203 163.93C327.828 165.243 326.147 166.251 324.287 166.881C322.983 167.474 321.538 167.757 320.084 167.705ZM175.218 174.866L169.077 171.836C172.82 132.444 177.764 93.6021 183.907 55.3104C211.773 53.658 244.43 52.9692 278.436 51.04L283.83 53.7869L175.218 174.866ZM239.036 195.804C234.093 195.666 210.872 186.295 208.027 185.196C205.182 184.098 200.537 181.065 216.567 177.759C232.445 174.454 231.845 170.872 260.31 182.58L239.036 195.804Z" fill="black"/>
<path d="M266.302 152.278C270.797 117.293 276.338 87.1279 283.83 53.6538C252.37 56.1324 215.367 56.5465 190.05 58.3362C183.908 96.6293 178.964 135.473 175.218 174.866C205.179 168.812 237.089 160.819 266.302 152.278Z" fill="#FDB849"/>
<path d="M243.83 140.018C246.376 139.332 251.17 144.289 253.418 151.038C255.666 157.512 256.865 165.224 253.269 166.19C249.674 167.291 257.313 169.632 259.26 166.053C261.207 162.473 259.86 156.271 257.913 150.349C255.967 144.426 248.475 137.265 244.729 137.814C240.983 138.364 243.83 140.018 243.83 140.018Z" fill="black"/>
<path d="M270.496 172.939C268.4 166.879 266.451 160.683 264.206 154.619C260.009 142.636 255.367 129.276 250.573 117.293C242.931 118.808 234.394 120.735 226.003 120.04C231.098 142.214 236.191 164.39 241.433 186.428C242.033 188.769 242.931 195.244 241.585 196.207C243.982 197.033 271.691 188.357 272.594 186.291C274.391 182.855 272.144 177.475 270.496 172.939ZM257.612 163.572C257.393 164.182 257.022 164.737 256.528 165.191C256.034 165.646 255.431 165.988 254.767 166.19C253.466 166.219 252.179 165.943 251.026 165.388C249.873 164.834 248.892 164.019 248.176 163.02C246.223 160.723 244.657 158.169 243.531 155.443C242.293 152.587 241.584 149.561 241.433 146.49C241.306 145.308 241.514 144.116 242.038 143.029C242.562 141.943 243.383 141 244.421 140.293C245.71 139.875 247.11 139.836 248.425 140.181C249.74 140.527 250.906 141.239 251.761 142.22C257.313 147.456 259.86 158.881 257.612 163.572Z" fill="#FFD340"/>
<path d="M226.153 120.048L224.206 126.797C224.206 126.797 235.442 174.591 236.49 182.306C237.228 186.64 237.228 191.055 236.49 195.389C238.113 195.778 239.765 196.054 241.433 196.216C242.782 196.216 243.681 195.527 241.284 185.336C238.887 175.145 226.153 120.048 226.153 120.048Z" fill="black"/>
<path d="M172.97 191.396L127.429 202.964L100.614 186.024V184.095L172.97 189.604V191.396Z" fill="#643CFF"/>
<path d="M100.614 184.095L127.429 201.175L172.97 189.604L143.459 176.795L100.614 184.095Z" fill="#9778FF"/>
<path d="M109.752 185.61L143.31 179.55L163.233 188.915L162.334 189.055L143.31 179.825L110.501 186.025L109.752 185.61Z" fill="#643CFF"/>
<path d="M126.829 247.868C126.203 247.859 125.587 247.715 125.032 247.445C123.89 246.879 122.953 246.017 122.337 244.967C120.141 241.593 118.521 237.929 117.533 234.104C116.061 229.128 114.96 224.067 114.238 218.954C113.462 215.218 113.513 211.377 114.387 207.66C114.837 205.693 115.793 203.854 117.174 202.296C118.555 200.738 120.322 199.508 122.327 198.707L123.077 200.634C121.398 201.319 119.924 202.365 118.776 203.683C117.629 205.001 116.843 206.553 116.483 208.209C115.759 211.71 115.709 215.3 116.334 218.816C117.079 223.825 118.129 228.791 119.48 233.692C120.401 237.325 121.917 240.808 123.975 244.022C124.371 244.733 125 245.311 125.772 245.675C127.42 246.363 129.518 244.848 131.014 243.196C136.408 236.857 139.256 228.87 141.356 221.984L141.506 221.709C142.102 218.891 143.326 216.218 145.102 213.857C148.249 210.275 154.091 208.486 160.831 209.312C163.574 209.65 166.28 210.202 168.921 210.964C171.435 211.601 173.986 212.107 176.562 212.479C184.951 213.582 193.339 211.378 201.13 209.037C205.936 207.814 210.422 205.705 214.314 202.838C216.562 200.911 218.359 198.018 217.16 195.677C216.315 194.327 215.067 193.227 213.565 192.507C212.306 191.88 211.188 191.039 210.27 190.029C208.022 187.826 207.123 184.382 207.572 179.698C207.598 179.002 207.699 178.31 207.873 177.632C208.321 175.124 208.321 172.565 207.873 170.057C207.487 168.534 206.655 167.138 205.466 166.02C204.277 164.902 202.777 164.106 201.13 163.718L201.589 161.653C203.675 162.085 205.584 163.052 207.096 164.441C208.607 165.831 209.659 167.586 210.129 169.503C210.702 172.276 210.752 175.118 210.279 177.906C210.155 178.542 210.105 179.188 210.129 179.834C209.67 183.829 210.428 186.72 212.225 188.512C213.077 189.307 214.033 190.002 215.073 190.578C216.871 191.543 218.367 192.918 219.416 194.572C221.214 198.164 218.667 202.009 215.969 204.213C211.817 207.312 207.027 209.607 201.886 210.962C193.796 213.443 185.109 215.645 176.27 214.544C173.574 214.204 170.915 213.648 168.323 212.883C165.776 212.181 163.17 211.674 160.532 211.368C154.69 210.679 149.446 212.057 146.9 215.087C145.371 217.221 144.302 219.605 143.753 222.11L143.604 222.387C141.506 229.548 138.661 237.812 132.819 244.424C132.178 245.384 131.303 246.195 130.264 246.793C129.225 247.39 128.049 247.758 126.829 247.868Z" fill="#643CFF"/>
<path d="M199.039 164.812C199.188 163.16 199.498 161.505 199.788 159.853C200.278 159.763 200.783 159.765 201.272 159.86C201.761 159.955 202.224 160.14 202.633 160.404C203.043 160.692 203.367 161.07 203.577 161.503C203.786 161.936 203.874 162.41 203.833 162.883C203.732 163.354 203.5 163.792 203.158 164.155C202.816 164.518 202.377 164.791 201.884 164.949C201.43 165.13 200.937 165.212 200.444 165.188C199.95 165.164 199.469 165.035 199.039 164.812Z" fill="#643CFF"/>
<path d="M193.98 165.182L194.67 159.986L196.899 160.238L196.209 165.432L193.98 165.182ZM188.699 166.758L189.66 160.624L191.884 160.92L190.924 167.052L188.699 166.758ZM179.692 165.533L184.388 164.645L184.84 166.668L180.145 167.555L179.692 165.533ZM207.728 163.297L207.128 161.231L209.824 160.808L209.973 162.873L207.728 163.297Z" fill="black"/>
<path d="M132.672 386.569C122.348 383.785 113.2 378.161 106.456 370.453C99.7033 362.855 95.6741 353.521 94.9217 343.732C80.2741 346.85 65.4055 349.014 50.4266 350.207C48.7853 362.783 50.8556 375.534 56.4202 387.121C62.4116 398.415 73.0476 408.056 86.2323 411.5C103.665 406.74 119.595 398.188 132.672 386.569Z" fill="#9778FF"/>
<path d="M110.651 384.365C97.7669 379.269 82.6356 370.041 76.4949 358.333C74.309 371.514 75.3845 384.979 79.6411 397.726C91.3343 393.455 101.216 388.352 110.651 384.365Z" fill="white"/>
<path d="M100.014 395.114C87.8798 388.915 79.3305 380.651 67.6558 378.724C75.3215 378.147 83.0177 379.429 89.9757 382.443C91.2675 376.841 94.4071 371.742 98.9662 367.842C93.423 376.376 92.9726 389.048 100.014 395.114Z" fill="black"/>
<path d="M280.982 381.061C278.992 379.946 277.09 378.703 275.29 377.342C275.14 377.754 274.991 377.891 274.83 378.305C276.492 379.376 278.092 380.525 279.624 381.749C280.043 381.467 280.499 381.235 280.982 381.061ZM269.747 377.891L262.107 376.239V375.827L269.898 377.342L269.747 377.891ZM278.737 391.945L278.436 391.533C280.003 390.858 281.348 389.812 282.331 388.503C282.817 387.896 283.128 387.186 283.232 386.439C283.337 385.692 283.234 384.932 282.931 384.232L283.379 383.957C283.721 384.744 283.846 385.595 283.741 386.437C283.637 387.278 283.307 388.082 282.782 388.777C281.669 390.064 280.295 391.139 278.737 391.945Z" fill="white"/>
<path d="M276.49 393.043L278.887 389.325L279.335 389.599L277.538 392.355L280.233 392.08L280.385 392.492L276.49 393.043ZM269.299 400.067C267.516 398.177 265.615 396.384 263.606 394.696L264.066 394.284C266.161 395.934 268.115 397.729 269.91 399.655L269.299 400.067ZM268.848 397.174C267.664 396.451 266.603 395.57 265.702 394.558L266.162 394.136C267.045 395.07 268.048 395.903 269.149 396.617L268.848 397.174ZM266.472 393.377L266.906 392.997L269.487 395.492L269.053 395.873L266.472 393.377ZM273.943 396.762C272.445 394.971 270.956 393.318 269.299 391.666L269.747 391.243C271.375 392.879 272.925 394.579 274.391 396.34L273.943 396.762ZM254.317 384.228L253.719 384.091C254.198 381.96 254.449 379.792 254.468 377.616H255.066C255.04 379.837 254.789 382.05 254.317 384.228ZM255.965 383.265L255.367 383.125C255.664 381.858 255.814 380.565 255.815 379.269H256.415C256.266 380.647 256.114 381.887 255.965 383.265ZM256.206 384.94L256.642 381.938L257.24 382.012L256.803 385.012L256.206 384.94ZM268.549 380.234L268.09 379.958C268.828 379.161 269.686 378.465 270.638 377.891L268.241 375.964L268.69 375.542L271.537 377.883L271.236 378.022C270.24 378.65 269.337 379.393 268.549 380.234ZM294.466 384.78C292.65 384.801 290.839 384.616 289.072 384.228L289.224 383.677C291.37 384.207 293.6 384.394 295.815 384.228V384.78C295.368 384.711 294.913 384.711 294.466 384.78ZM293.717 385.743C292.749 385.749 291.788 385.606 290.872 385.32L291.021 384.771C292.043 385.046 293.102 385.188 294.167 385.194V385.745L293.717 385.743ZM243.382 389.599C242.828 389.62 242.275 389.532 241.76 389.342C241.245 389.152 240.78 388.865 240.394 388.498C239.826 387.836 239.505 387.022 239.478 386.179C239.451 385.335 239.72 384.506 240.245 383.814C241.07 382.464 242.401 381.436 243.991 380.923L244.14 381.473C242.681 381.995 241.462 382.965 240.693 384.22C240.253 384.833 240.019 385.551 240.019 386.286C240.019 387.021 240.253 387.739 240.693 388.353C241.372 388.97 242.287 389.316 243.242 389.316C244.345 389.242 245.42 388.96 246.399 388.487C247.378 388.015 248.241 387.362 248.934 386.569C249.327 386.133 249.611 385.624 249.766 385.076C249.921 384.529 249.944 383.956 249.833 383.4C249.601 382.524 249.094 381.73 248.375 381.118C247.655 380.505 246.756 380.101 245.788 379.956L245.938 379.404C247.044 379.562 248.07 380.031 248.875 380.746C249.68 381.462 250.224 382.389 250.433 383.4C250.604 384.674 250.227 385.959 249.383 386.981C248.572 387.971 247.483 388.738 246.232 389.198C245.313 389.476 244.35 389.612 243.382 389.599ZM231.248 385.054H236.34V385.606H231.248V385.054Z" fill="white"/>
<path d="M236.042 386.706L235.591 386.432L236.791 385.054L235.293 384.503L235.591 384.091L237.69 384.917L236.042 386.706ZM95.3699 364.53C93.5727 362.189 91.7756 359.711 89.9761 357.37L90.4357 357.093C92.2329 359.436 94.0301 361.915 95.8296 364.256L95.3699 364.53Z" fill="white"/>
<path d="M96.7187 366.045L96.2591 365.908C94.7513 365.501 93.2951 364.947 91.9155 364.256L92.2143 363.833C93.4154 364.536 94.7359 365.049 96.1212 365.35L95.9718 361.906H96.5717L96.7187 366.045ZM56.4201 366.185L55.9604 365.908C59.5347 361.36 63.4921 357.077 67.7961 353.099L68.2557 353.522C63.8752 357.382 59.9115 361.623 56.4201 366.185ZM60.1638 364.393L59.7042 364.118C60.4203 363.144 61.2219 362.225 62.1012 361.371L62.5608 361.794C61.6622 362.603 60.913 363.567 60.1638 364.393ZM57.7232 369.05L64.7142 360.964L65.1831 361.306L58.1943 369.395L57.7232 369.05ZM63.7559 366.588L63.2962 366.314C65.0619 364.278 66.911 362.304 68.8395 360.397L69.2991 360.809C67.255 362.569 65.3988 364.504 63.7559 366.588ZM104.358 390.702V390.15C108.605 389.752 112.701 388.481 116.343 386.432L116.644 386.844C112.904 388.939 108.71 390.255 104.358 390.702ZM109.152 391.251L109.003 390.702C110.887 390.287 112.702 389.638 114.396 388.773L114.695 389.195C113.017 390.218 111.132 390.917 109.152 391.251Z" fill="white"/>
</svg>
