<svg width="50" height="51" viewBox="0 0 50 51" fill="none" xmlns="http://www.w3.org/2000/svg">
<path d="M40.625 46.9819H37.5V42.2944C37.4975 40.2232 36.6736 38.2375 35.209 36.7729C33.7444 35.3083 31.7587 34.4844 29.6875 34.4819H20.3125C18.2413 34.4844 16.2556 35.3083 14.791 36.7729C13.3264 38.2375 12.5025 40.2232 12.5 42.2944V46.9819H9.375V42.2944C9.37831 39.3946 10.5317 36.6146 12.5822 34.5641C14.6326 32.5136 17.4127 31.3602 20.3125 31.3569H29.6875C32.5873 31.3602 35.3674 32.5136 37.4178 34.5641C39.4683 36.6146 40.6217 39.3946 40.625 42.2944V46.9819ZM7.8125 9.48193C7.3981 9.48193 7.00067 9.64655 6.70765 9.93958C6.41462 10.2326 6.25 10.63 6.25 11.0444V25.1069H9.375V11.0444C9.375 10.63 9.21038 10.2326 8.91735 9.93958C8.62433 9.64655 8.2269 9.48193 7.8125 9.48193Z" fill="black"/>
<path d="M6.25 3.23193V6.35693H14.0625V17.2944C14.0625 20.1952 15.2148 22.9772 17.266 25.0284C19.3172 27.0796 22.0992 28.2319 25 28.2319C27.9008 28.2319 30.6828 27.0796 32.734 25.0284C34.7852 22.9772 35.9375 20.1952 35.9375 17.2944V6.35693H43.75V3.23193H6.25ZM17.1875 6.35693H32.8125V11.0444H17.1875V6.35693ZM25 25.1069C22.928 25.1069 20.9409 24.2838 19.4757 22.8187C18.0106 21.3536 17.1875 19.3664 17.1875 17.2944V14.1694H32.8125V17.2944C32.8125 19.3664 31.9894 21.3536 30.5243 22.8187C29.0591 24.2838 27.072 25.1069 25 25.1069Z" fill="black"/>
</svg>
