<svg width="46" height="46" viewBox="0 0 46 46" fill="none" xmlns="http://www.w3.org/2000/svg">
<g clip-path="url(#clip0_8_284)">
<path d="M22.775 17.2444C25.175 17.3569 25.7938 19.4007 25.8313 20.3569H29.1875C29.0375 16.6444 26.3938 14.3757 22.7188 14.3757C18.575 14.3757 15.5 16.9819 15.5 22.8694C15.5 26.5069 17.2438 30.8194 22.7 30.8194C26.8625 30.8194 29.0938 27.7257 29.15 25.2882H25.7938C25.7375 26.3944 24.95 27.8757 22.7375 27.9882C20.2812 27.9132 19.25 26.0007 19.25 22.8694C19.25 17.4507 21.65 17.2819 22.775 17.2444ZM23 3.85693C12.65 3.85693 4.25 12.2569 4.25 22.6069C4.25 32.9569 12.65 41.3569 23 41.3569C33.35 41.3569 41.75 32.9569 41.75 22.6069C41.75 12.2569 33.35 3.85693 23 3.85693ZM23 37.6069C14.7313 37.6069 8 30.8757 8 22.6069C8 14.3382 14.7313 7.60693 23 7.60693C31.2688 7.60693 38 14.3382 38 22.6069C38 30.8757 31.2688 37.6069 23 37.6069Z" fill="black"/>
</g>
<defs>
<clipPath id="clip0_8_284">
<rect width="45" height="45" fill="white" transform="translate(0.5 0.106934)"/>
</clipPath>
</defs>
</svg>
