<svg width="64" height="65" viewBox="0 0 64 65" fill="none" xmlns="http://www.w3.org/2000/svg">
<path d="M57.063 20.8249L58.092 19.1269C58.092 19.1269 58.998 17.6249 58.998 15.6079C58.998 10.7219 54.336 10.8509 54.336 10.8509L44.179 8.08593L38.638 2.60693L31.347 4.59193L28.956 3.94093L27.139 5.73793L16.642 8.59593C16.642 8.59593 12.602 8.48493 12.602 12.7189C12.602 14.4669 13.388 15.7689 13.388 15.7689L14.739 17.9989L13.552 19.1709L7.692 20.7669C7.692 20.7669 3.03 20.6379 3.03 25.5239C3.03932 26.6623 3.30561 27.7839 3.809 28.8049L2 30.5939L2.949 30.9699C2.97 31.0209 2.978 31.0779 3.019 31.1189C4.854 32.9579 4.703 35.4279 4.441 36.7619L3.332 37.8729L11.733 41.9119L23.271 60.9569C25.12 63.8629 29.045 62.0449 29.045 62.0449L58.694 47.7889L57.585 46.6779C57.323 45.3439 57.172 42.8739 59.007 41.0339C59.048 40.9929 59.056 40.9359 59.077 40.8859L60.026 40.5089L54.513 35.0589L60.843 32.0159L59.882 31.0529C59.655 29.8969 59.524 27.7559 61.115 26.1619C61.15 26.1259 61.156 26.0779 61.175 26.0329L62 25.7059L57.063 20.8249M51.378 11.9899L50.128 13.9679L46.894 10.7699L51.378 11.9899ZM39.176 7.75093L43.819 12.7139L27.03 18.7809L23.065 12.6249L39.176 7.75093M15.744 19.6589L27.201 38.5699L5.374 29.9119L15.744 19.6589M10.969 21.7259L9.624 23.0559L9.086 22.2309L10.969 21.7259ZM6.722 22.7599L7.974 24.6869L5.261 27.3689C5.04753 26.777 4.93562 26.1532 4.93 25.5239C4.93 23.6979 5.836 23.0029 6.722 22.7599M5.154 37.6329L5.169 37.5749L30.316 48.5819L5.366 36.6879C5.389 36.5529 5.407 36.4039 5.426 36.2539L24.959 44.4339L5.494 35.3179C5.49897 34.9013 5.4702 34.4849 5.408 34.0729L23.487 41.5179L5.165 33.0069C5.04739 32.6129 4.88991 32.232 4.695 31.8699L29.578 42.4949L30.144 43.4289C31.311 45.2629 33.428 44.9239 34.495 44.6059C35.97 45.3339 38.614 47.0179 37.937 49.4989C37.58 50.8109 36.795 51.4469 35.538 51.4469C34.265 51.4469 32.994 50.7809 32.981 50.7719L5.154 37.6329ZM30.2 50.7919L28.234 51.6059L26.564 49.0429L30.2 50.7919ZM22.586 56.1729L14.857 43.4139L22.539 47.1069L26.172 52.6989C24.707 53.3249 23.07 54.7539 22.586 56.1729M56.619 43.9889C56.5568 44.4009 56.5281 44.8173 56.533 45.2339L37.068 54.3499L56.601 46.1699C56.62 46.3189 56.637 46.4689 56.661 46.6039L31.711 58.4989L56.858 47.4919C56.8636 47.5111 56.8686 47.5305 56.873 47.5499L29.046 60.6869C29.033 60.6959 27.764 61.3619 26.489 61.3619C25.231 61.3619 24.447 60.7249 24.09 59.4139C23.172 56.0469 28.392 54.1379 28.47 54.1089L33.045 52.1569C33.536 52.3659 37.039 53.7409 38.756 51.0419L39.839 49.2559L57.333 41.7859C57.1382 42.1481 56.9804 42.5291 56.862 42.9229L38.54 51.4339L56.619 43.9889M56.653 39.8279L41.828 45.9719L45.942 39.1809L52.709 35.9279L56.653 39.8279M59.046 28.7209C58.9928 29.0781 58.9677 29.4389 58.971 29.7999L42.103 37.6999L59.031 30.6109C59.048 30.7399 59.062 30.8709 59.083 30.9869L37.459 41.2949L59.253 31.7559C59.2583 31.7723 59.2626 31.789 59.266 31.8059L35.149 43.1929C35.138 43.1999 34.037 43.7779 32.933 43.7779C31.842 43.7779 31.163 43.2249 30.854 42.0889C30.058 39.1709 34.582 37.5169 34.65 37.4919L59.664 26.8119C59.4953 27.126 59.359 27.4563 59.257 27.7979L43.377 35.1739L59.046 28.7209" fill="black"/>
</svg>
