<svg width="171" height="36" viewBox="0 0 171 36" fill="none" xmlns="http://www.w3.org/2000/svg">
<path d="M11 28.2744L18 22.9369L25 28.2744L22.375 19.6119L29.375 14.6244H20.8L18 5.52441L15.2 14.6244H6.625L13.625 19.6119L11 28.2744ZM18 35.2744C15.5792 35.2744 13.3042 34.8147 11.175 33.8954C9.04583 32.9772 7.19375 31.7307 5.61875 30.1557C4.04375 28.5807 2.79717 26.7286 1.879 24.5994C0.959667 22.4702 0.5 20.1952 0.5 17.7744C0.5 15.3536 0.959667 13.0786 1.879 10.9494C2.79717 8.82025 4.04375 6.96816 5.61875 5.39316C7.19375 3.81816 9.04583 2.571 11.175 1.65166C13.3042 0.733497 15.5792 0.274414 18 0.274414C20.4208 0.274414 22.6958 0.733497 24.825 1.65166C26.9542 2.571 28.8063 3.81816 30.3813 5.39316C31.9563 6.96816 33.2028 8.82025 34.121 10.9494C35.0403 13.0786 35.5 15.3536 35.5 17.7744C35.5 20.1952 35.0403 22.4702 34.121 24.5994C33.2028 26.7286 31.9563 28.5807 30.3813 30.1557C28.8063 31.7307 26.9542 32.9772 24.825 33.8954C22.6958 34.8147 20.4208 35.2744 18 35.2744Z" fill="black"/>
<path d="M56 28.2744L63 22.9369L70 28.2744L67.375 19.6119L74.375 14.6244H65.8L63 5.52441L60.2 14.6244H51.625L58.625 19.6119L56 28.2744ZM63 35.2744C60.5792 35.2744 58.3042 34.8147 56.175 33.8954C54.0458 32.9772 52.1938 31.7307 50.6188 30.1557C49.0438 28.5807 47.7972 26.7286 46.879 24.5994C45.9597 22.4702 45.5 20.1952 45.5 17.7744C45.5 15.3536 45.9597 13.0786 46.879 10.9494C47.7972 8.82025 49.0438 6.96816 50.6188 5.39316C52.1938 3.81816 54.0458 2.571 56.175 1.65166C58.3042 0.733497 60.5792 0.274414 63 0.274414C65.4208 0.274414 67.6958 0.733497 69.825 1.65166C71.9542 2.571 73.8063 3.81816 75.3813 5.39316C76.9563 6.96816 78.2028 8.82025 79.121 10.9494C80.0403 13.0786 80.5 15.3536 80.5 17.7744C80.5 20.1952 80.0403 22.4702 79.121 24.5994C78.2028 26.7286 76.9563 28.5807 75.3813 30.1557C73.8063 31.7307 71.9542 32.9772 69.825 33.8954C67.6958 34.8147 65.4208 35.2744 63 35.2744Z" fill="black"/>
<path d="M101 28.2744L108 22.9369L115 28.2744L112.375 19.6119L119.375 14.6244H110.8L108 5.52441L105.2 14.6244H96.625L103.625 19.6119L101 28.2744ZM108 35.2744C105.579 35.2744 103.304 34.8147 101.175 33.8954C99.0458 32.9772 97.1938 31.7307 95.6188 30.1557C94.0438 28.5807 92.7972 26.7286 91.879 24.5994C90.9597 22.4702 90.5 20.1952 90.5 17.7744C90.5 15.3536 90.9597 13.0786 91.879 10.9494C92.7972 8.82025 94.0438 6.96816 95.6188 5.39316C97.1938 3.81816 99.0458 2.571 101.175 1.65166C103.304 0.733497 105.579 0.274414 108 0.274414C110.421 0.274414 112.696 0.733497 114.825 1.65166C116.954 2.571 118.806 3.81816 120.381 5.39316C121.956 6.96816 123.203 8.82025 124.121 10.9494C125.04 13.0786 125.5 15.3536 125.5 17.7744C125.5 20.1952 125.04 22.4702 124.121 24.5994C123.203 26.7286 121.956 28.5807 120.381 30.1557C118.806 31.7307 116.954 32.9772 114.825 33.8954C112.696 34.8147 110.421 35.2744 108 35.2744Z" fill="black"/>
<path d="M146 28.2744L153 22.9369L160 28.2744L157.375 19.6119L164.375 14.6244H155.8L153 5.52441L150.2 14.6244H141.625L148.625 19.6119L146 28.2744ZM153 35.2744C150.579 35.2744 148.304 34.8147 146.175 33.8954C144.046 32.9772 142.194 31.7307 140.619 30.1557C139.044 28.5807 137.797 26.7286 136.879 24.5994C135.96 22.4702 135.5 20.1952 135.5 17.7744C135.5 15.3536 135.96 13.0786 136.879 10.9494C137.797 8.82025 139.044 6.96816 140.619 5.39316C142.194 3.81816 144.046 2.571 146.175 1.65166C148.304 0.733497 150.579 0.274414 153 0.274414C155.421 0.274414 157.696 0.733497 159.825 1.65166C161.954 2.571 163.806 3.81816 165.381 5.39316C166.956 6.96816 168.203 8.82025 169.121 10.9494C170.04 13.0786 170.5 15.3536 170.5 17.7744C170.5 20.1952 170.04 22.4702 169.121 24.5994C168.203 26.7286 166.956 28.5807 165.381 30.1557C163.806 31.7307 161.954 32.9772 159.825 33.8954C157.696 34.8147 155.421 35.2744 153 35.2744Z" fill="black"/>
</svg>
