<svg width="150" height="52" viewBox="0 0 150 52" fill="none" xmlns="http://www.w3.org/2000/svg">
<g filter="url(#filter0_d_19_21)">
<rect width="142" height="44" fill="white" fill-opacity="0.9"/>
<path d="M23.47 23.11V28.61C22.75 29.13 21.98 29.52 21.16 29.78C20.3467 30.0333 19.4533 30.16 18.48 30.16C17.3267 30.16 16.2867 29.9833 15.36 29.63C14.4333 29.27 13.64 28.77 12.98 28.13C12.3267 27.4833 11.8233 26.71 11.47 25.81C11.1167 24.91 10.94 23.92 10.94 22.84C10.94 21.7467 11.11 20.75 11.45 19.85C11.7967 18.95 12.2867 18.18 12.92 17.54C13.5533 16.8933 14.3233 16.3933 15.23 16.04C16.1367 15.6867 17.15 15.51 18.27 15.51C18.8367 15.51 19.3633 15.5533 19.85 15.64C20.3367 15.72 20.7867 15.84 21.2 16C21.6133 16.1533 21.9967 16.3433 22.35 16.57C22.7033 16.79 23.0333 17.04 23.34 17.32L22.79 18.2C22.7033 18.3333 22.59 18.42 22.45 18.46C22.3167 18.4933 22.1667 18.46 22 18.36C21.84 18.2667 21.6567 18.1533 21.45 18.02C21.2433 17.8867 20.99 17.76 20.69 17.64C20.3967 17.5133 20.0467 17.4067 19.64 17.32C19.24 17.2333 18.7633 17.19 18.21 17.19C17.4033 17.19 16.6733 17.3233 16.02 17.59C15.3667 17.85 14.81 18.2267 14.35 18.72C13.89 19.2067 13.5367 19.8 13.29 20.5C13.0433 21.1933 12.92 21.9733 12.92 22.84C12.92 23.74 13.0467 24.5467 13.3 25.26C13.56 25.9667 13.9267 26.57 14.4 27.07C14.88 27.5633 15.46 27.94 16.14 28.2C16.82 28.46 17.5833 28.59 18.43 28.59C19.0967 28.59 19.6867 28.5167 20.2 28.37C20.72 28.2167 21.2267 28.0067 21.72 27.74V24.59H19.49C19.3633 24.59 19.26 24.5533 19.18 24.48C19.1067 24.4067 19.07 24.3167 19.07 24.21V23.11H23.47ZM33.6822 23.83C33.6822 23.4167 33.6222 23.04 33.5022 22.7C33.3889 22.3533 33.2189 22.0567 32.9922 21.81C32.7722 21.5567 32.5022 21.3633 32.1822 21.23C31.8622 21.09 31.4989 21.02 31.0922 21.02C30.2389 21.02 29.5622 21.27 29.0622 21.77C28.5689 22.2633 28.2622 22.95 28.1422 23.83H33.6822ZM35.1222 28.58C34.9022 28.8467 34.6389 29.08 34.3322 29.28C34.0255 29.4733 33.6955 29.6333 33.3422 29.76C32.9955 29.8867 32.6355 29.98 32.2622 30.04C31.8889 30.1067 31.5189 30.14 31.1522 30.14C30.4522 30.14 29.8055 30.0233 29.2122 29.79C28.6255 29.55 28.1155 29.2033 27.6822 28.75C27.2555 28.29 26.9222 27.7233 26.6822 27.05C26.4422 26.3767 26.3222 25.6033 26.3222 24.73C26.3222 24.0233 26.4289 23.3633 26.6422 22.75C26.8622 22.1367 27.1755 21.6067 27.5822 21.16C27.9889 20.7067 28.4855 20.3533 29.0722 20.1C29.6589 19.84 30.3189 19.71 31.0522 19.71C31.6589 19.71 32.2189 19.8133 32.7322 20.02C33.2522 20.22 33.6989 20.5133 34.0722 20.9C34.4522 21.28 34.7489 21.7533 34.9622 22.32C35.1755 22.88 35.2822 23.52 35.2822 24.24C35.2822 24.52 35.2522 24.7067 35.1922 24.8C35.1322 24.8933 35.0189 24.94 34.8522 24.94H28.0822C28.1022 25.58 28.1889 26.1367 28.3422 26.61C28.5022 27.0833 28.7222 27.48 29.0022 27.8C29.2822 28.1133 29.6155 28.35 30.0022 28.51C30.3889 28.6633 30.8222 28.74 31.3022 28.74C31.7489 28.74 32.1322 28.69 32.4522 28.59C32.7789 28.4833 33.0589 28.37 33.2922 28.25C33.5255 28.13 33.7189 28.02 33.8722 27.92C34.0322 27.8133 34.1689 27.76 34.2822 27.76C34.4289 27.76 34.5422 27.8167 34.6222 27.93L35.1222 28.58ZM41.5005 30.16C40.7005 30.16 40.0838 29.9367 39.6505 29.49C39.2238 29.0433 39.0105 28.4 39.0105 27.56V21.36H37.7905C37.6838 21.36 37.5938 21.33 37.5205 21.27C37.4471 21.2033 37.4105 21.1033 37.4105 20.97V20.26L39.0705 20.05L39.4805 16.92C39.5005 16.82 39.5438 16.74 39.6105 16.68C39.6838 16.6133 39.7771 16.58 39.8905 16.58H40.7905V20.07H43.7205V21.36H40.7905V27.44C40.7905 27.8667 40.8938 28.1833 41.1005 28.39C41.3071 28.5967 41.5738 28.7 41.9005 28.7C42.0871 28.7 42.2471 28.6767 42.3805 28.63C42.5205 28.5767 42.6405 28.52 42.7405 28.46C42.8405 28.4 42.9238 28.3467 42.9905 28.3C43.0638 28.2467 43.1271 28.22 43.1805 28.22C43.2738 28.22 43.3571 28.2767 43.4305 28.39L43.9505 29.24C43.6438 29.5267 43.2738 29.7533 42.8405 29.92C42.4071 30.08 41.9605 30.16 41.5005 30.16ZM55.0356 30H53.0956V15.67H55.0356V30ZM60.8048 21.34C61.0248 21.0933 61.2582 20.87 61.5048 20.67C61.7515 20.47 62.0115 20.3 62.2848 20.16C62.5648 20.0133 62.8582 19.9033 63.1648 19.83C63.4782 19.75 63.8148 19.71 64.1748 19.71C64.7282 19.71 65.2148 19.8033 65.6348 19.99C66.0615 20.17 66.4148 20.43 66.6948 20.77C66.9815 21.1033 67.1982 21.5067 67.3448 21.98C67.4915 22.4533 67.5648 22.9767 67.5648 23.55V30H65.7748V23.55C65.7748 22.7833 65.5982 22.19 65.2448 21.77C64.8982 21.3433 64.3682 21.13 63.6548 21.13C63.1282 21.13 62.6348 21.2567 62.1748 21.51C61.7215 21.7633 61.3015 22.1067 60.9148 22.54V30H59.1248V19.87H60.1948C60.4482 19.87 60.6048 19.9933 60.6648 20.24L60.8048 21.34ZM86.8989 17.3H82.2589V30H80.3289V17.3H75.6789V15.67H86.8989V17.3ZM91.4339 19.71C92.1739 19.71 92.8406 19.8333 93.4339 20.08C94.0272 20.3267 94.5339 20.6767 94.9539 21.13C95.3739 21.5833 95.6939 22.1333 95.9139 22.78C96.1406 23.42 96.2539 24.1367 96.2539 24.93C96.2539 25.73 96.1406 26.45 95.9139 27.09C95.6939 27.73 95.3739 28.2767 94.9539 28.73C94.5339 29.1833 94.0272 29.5333 93.4339 29.78C92.8406 30.02 92.1739 30.14 91.4339 30.14C90.6872 30.14 90.0139 30.02 89.4139 29.78C88.8206 29.5333 88.3139 29.1833 87.8939 28.73C87.4739 28.2767 87.1506 27.73 86.9239 27.09C86.7039 26.45 86.5939 25.73 86.5939 24.93C86.5939 24.1367 86.7039 23.42 86.9239 22.78C87.1506 22.1333 87.4739 21.5833 87.8939 21.13C88.3139 20.6767 88.8206 20.3267 89.4139 20.08C90.0139 19.8333 90.6872 19.71 91.4339 19.71ZM91.4339 28.75C92.4339 28.75 93.1806 28.4167 93.6739 27.75C94.1672 27.0767 94.4139 26.14 94.4139 24.94C94.4139 23.7333 94.1672 22.7933 93.6739 22.12C93.1806 21.4467 92.4339 21.11 91.4339 21.11C90.9272 21.11 90.4839 21.1967 90.1039 21.37C89.7306 21.5433 89.4172 21.7933 89.1639 22.12C88.9172 22.4467 88.7306 22.85 88.6039 23.33C88.4839 23.8033 88.4239 24.34 88.4239 24.94C88.4239 26.14 88.6706 27.0767 89.1639 27.75C89.6639 28.4167 90.4206 28.75 91.4339 28.75ZM107.842 19.87V30H106.782C106.528 30 106.368 29.8767 106.302 29.63L106.162 28.54C105.722 29.0267 105.228 29.42 104.682 29.72C104.135 30.0133 103.508 30.16 102.802 30.16C102.248 30.16 101.758 30.07 101.332 29.89C100.912 29.7033 100.558 29.4433 100.272 29.11C99.9849 28.7767 99.7682 28.3733 99.6216 27.9C99.4816 27.4267 99.4116 26.9033 99.4116 26.33V19.87H101.192V26.33C101.192 27.0967 101.365 27.69 101.712 28.11C102.065 28.53 102.602 28.74 103.322 28.74C103.848 28.74 104.338 28.6167 104.792 28.37C105.252 28.1167 105.675 27.77 106.062 27.33V19.87H107.842ZM118.714 21.67C118.661 21.7433 118.607 21.8 118.554 21.84C118.501 21.88 118.427 21.9 118.334 21.9C118.234 21.9 118.124 21.86 118.004 21.78C117.884 21.6933 117.734 21.6 117.554 21.5C117.381 21.4 117.164 21.31 116.904 21.23C116.651 21.1433 116.337 21.1 115.964 21.1C115.464 21.1 115.024 21.19 114.644 21.37C114.264 21.5433 113.944 21.7967 113.684 22.13C113.431 22.4633 113.237 22.8667 113.104 23.34C112.977 23.8133 112.914 24.3433 112.914 24.93C112.914 25.5433 112.984 26.09 113.124 26.57C113.264 27.0433 113.461 27.4433 113.714 27.77C113.974 28.09 114.284 28.3367 114.644 28.51C115.011 28.6767 115.421 28.76 115.874 28.76C116.307 28.76 116.664 28.71 116.944 28.61C117.224 28.5033 117.454 28.3867 117.634 28.26C117.821 28.1333 117.974 28.02 118.094 27.92C118.221 27.8133 118.344 27.76 118.464 27.76C118.611 27.76 118.724 27.8167 118.804 27.93L119.304 28.58C119.084 28.8533 118.834 29.0867 118.554 29.28C118.274 29.4733 117.971 29.6367 117.644 29.77C117.324 29.8967 116.987 29.99 116.634 30.05C116.281 30.11 115.921 30.14 115.554 30.14C114.921 30.14 114.331 30.0233 113.784 29.79C113.244 29.5567 112.774 29.22 112.374 28.78C111.974 28.3333 111.661 27.7867 111.434 27.14C111.207 26.4933 111.094 25.7567 111.094 24.93C111.094 24.1767 111.197 23.48 111.404 22.84C111.617 22.2 111.924 21.65 112.324 21.19C112.731 20.7233 113.227 20.36 113.814 20.1C114.407 19.84 115.087 19.71 115.854 19.71C116.567 19.71 117.194 19.8267 117.734 20.06C118.281 20.2867 118.764 20.61 119.184 21.03L118.714 21.67ZM124.005 21.22C124.438 20.76 124.918 20.3933 125.445 20.12C125.971 19.8467 126.578 19.71 127.265 19.71C127.818 19.71 128.305 19.8033 128.725 19.99C129.151 20.17 129.505 20.43 129.785 20.77C130.071 21.1033 130.288 21.5067 130.435 21.98C130.581 22.4533 130.655 22.9767 130.655 23.55V30H128.865V23.55C128.865 22.7833 128.688 22.19 128.335 21.77C127.988 21.3433 127.458 21.13 126.745 21.13C126.218 21.13 125.725 21.2567 125.265 21.51C124.811 21.7633 124.391 22.1067 124.005 22.54V30H122.215V15.27H124.005V21.22Z" fill="black"/>
</g>
<defs>
<filter id="filter0_d_19_21" x="0" y="0" width="150" height="52" filterUnits="userSpaceOnUse" color-interpolation-filters="sRGB">
<feFlood flood-opacity="0" result="BackgroundImageFix"/>
<feColorMatrix in="SourceAlpha" type="matrix" values="0 0 0 0 0 0 0 0 0 0 0 0 0 0 0 0 0 0 127 0" result="hardAlpha"/>
<feOffset dx="4" dy="4"/>
<feGaussianBlur stdDeviation="2"/>
<feComposite in2="hardAlpha" operator="out"/>
<feColorMatrix type="matrix" values="0 0 0 0 0 0 0 0 0 0 0 0 0 0 0 0 0 0 0.5 0"/>
<feBlend mode="normal" in2="BackgroundImageFix" result="effect1_dropShadow_19_21"/>
<feBlend mode="normal" in="SourceGraphic" in2="effect1_dropShadow_19_21" result="shape"/>
</filter>
</defs>
</svg>
