<svg width="170" height="62" viewBox="0 0 170 62" fill="none" xmlns="http://www.w3.org/2000/svg">
<g filter="url(#filter0_d_19_21)">
<rect width="162" height="54" fill="white" fill-opacity="0.8"/>
<path d="M33.47 28.11V33.61C32.75 34.13 31.98 34.52 31.16 34.78C30.3467 35.0333 29.4533 35.16 28.48 35.16C27.3267 35.16 26.2867 34.9833 25.36 34.63C24.4333 34.27 23.64 33.77 22.98 33.13C22.3267 32.4833 21.8233 31.71 21.47 30.81C21.1167 29.91 20.94 28.92 20.94 27.84C20.94 26.7467 21.11 25.75 21.45 24.85C21.7967 23.95 22.2867 23.18 22.92 22.54C23.5533 21.8933 24.3233 21.3933 25.23 21.04C26.1367 20.6867 27.15 20.51 28.27 20.51C28.8367 20.51 29.3633 20.5533 29.85 20.64C30.3367 20.72 30.7867 20.84 31.2 21C31.6133 21.1533 31.9967 21.3433 32.35 21.57C32.7033 21.79 33.0333 22.04 33.34 22.32L32.79 23.2C32.7033 23.3333 32.59 23.42 32.45 23.46C32.3167 23.4933 32.1667 23.46 32 23.36C31.84 23.2667 31.6567 23.1533 31.45 23.02C31.2433 22.8867 30.99 22.76 30.69 22.64C30.3967 22.5133 30.0467 22.4067 29.64 22.32C29.24 22.2333 28.7633 22.19 28.21 22.19C27.4033 22.19 26.6733 22.3233 26.02 22.59C25.3667 22.85 24.81 23.2267 24.35 23.72C23.89 24.2067 23.5367 24.8 23.29 25.5C23.0433 26.1933 22.92 26.9733 22.92 27.84C22.92 28.74 23.0467 29.5467 23.3 30.26C23.56 30.9667 23.9267 31.57 24.4 32.07C24.88 32.5633 25.46 32.94 26.14 33.2C26.82 33.46 27.5833 33.59 28.43 33.59C29.0967 33.59 29.6867 33.5167 30.2 33.37C30.72 33.2167 31.2267 33.0067 31.72 32.74V29.59H29.49C29.3633 29.59 29.26 29.5533 29.18 29.48C29.1067 29.4067 29.07 29.3167 29.07 29.21V28.11H33.47ZM43.6822 28.83C43.6822 28.4167 43.6222 28.04 43.5022 27.7C43.3889 27.3533 43.2189 27.0567 42.9922 26.81C42.7722 26.5567 42.5022 26.3633 42.1822 26.23C41.8622 26.09 41.4989 26.02 41.0922 26.02C40.2389 26.02 39.5622 26.27 39.0622 26.77C38.5689 27.2633 38.2622 27.95 38.1422 28.83H43.6822ZM45.1222 33.58C44.9022 33.8467 44.6389 34.08 44.3322 34.28C44.0255 34.4733 43.6955 34.6333 43.3422 34.76C42.9955 34.8867 42.6355 34.98 42.2622 35.04C41.8889 35.1067 41.5189 35.14 41.1522 35.14C40.4522 35.14 39.8055 35.0233 39.2122 34.79C38.6255 34.55 38.1155 34.2033 37.6822 33.75C37.2555 33.29 36.9222 32.7233 36.6822 32.05C36.4422 31.3767 36.3222 30.6033 36.3222 29.73C36.3222 29.0233 36.4289 28.3633 36.6422 27.75C36.8622 27.1367 37.1755 26.6067 37.5822 26.16C37.9889 25.7067 38.4855 25.3533 39.0722 25.1C39.6589 24.84 40.3189 24.71 41.0522 24.71C41.6589 24.71 42.2189 24.8133 42.7322 25.02C43.2522 25.22 43.6989 25.5133 44.0722 25.9C44.4522 26.28 44.7489 26.7533 44.9622 27.32C45.1755 27.88 45.2822 28.52 45.2822 29.24C45.2822 29.52 45.2522 29.7067 45.1922 29.8C45.1322 29.8933 45.0189 29.94 44.8522 29.94H38.0822C38.1022 30.58 38.1889 31.1367 38.3422 31.61C38.5022 32.0833 38.7222 32.48 39.0022 32.8C39.2822 33.1133 39.6155 33.35 40.0022 33.51C40.3889 33.6633 40.8222 33.74 41.3022 33.74C41.7489 33.74 42.1322 33.69 42.4522 33.59C42.7789 33.4833 43.0589 33.37 43.2922 33.25C43.5255 33.13 43.7189 33.02 43.8722 32.92C44.0322 32.8133 44.1689 32.76 44.2822 32.76C44.4289 32.76 44.5422 32.8167 44.6222 32.93L45.1222 33.58ZM51.5005 35.16C50.7005 35.16 50.0838 34.9367 49.6505 34.49C49.2238 34.0433 49.0105 33.4 49.0105 32.56V26.36H47.7905C47.6838 26.36 47.5938 26.33 47.5205 26.27C47.4471 26.2033 47.4105 26.1033 47.4105 25.97V25.26L49.0705 25.05L49.4805 21.92C49.5005 21.82 49.5438 21.74 49.6105 21.68C49.6838 21.6133 49.7771 21.58 49.8905 21.58H50.7905V25.07H53.7205V26.36H50.7905V32.44C50.7905 32.8667 50.8938 33.1833 51.1005 33.39C51.3071 33.5967 51.5738 33.7 51.9005 33.7C52.0871 33.7 52.2471 33.6767 52.3805 33.63C52.5205 33.5767 52.6405 33.52 52.7405 33.46C52.8405 33.4 52.9238 33.3467 52.9905 33.3C53.0638 33.2467 53.1271 33.22 53.1805 33.22C53.2738 33.22 53.3571 33.2767 53.4305 33.39L53.9505 34.24C53.6438 34.5267 53.2738 34.7533 52.8405 34.92C52.4071 35.08 51.9605 35.16 51.5005 35.16ZM65.0356 35H63.0956V20.67H65.0356V35ZM70.8048 26.34C71.0248 26.0933 71.2582 25.87 71.5048 25.67C71.7515 25.47 72.0115 25.3 72.2848 25.16C72.5648 25.0133 72.8582 24.9033 73.1648 24.83C73.4782 24.75 73.8148 24.71 74.1748 24.71C74.7282 24.71 75.2148 24.8033 75.6348 24.99C76.0615 25.17 76.4148 25.43 76.6948 25.77C76.9815 26.1033 77.1982 26.5067 77.3448 26.98C77.4915 27.4533 77.5648 27.9767 77.5648 28.55V35H75.7748V28.55C75.7748 27.7833 75.5982 27.19 75.2448 26.77C74.8982 26.3433 74.3682 26.13 73.6548 26.13C73.1282 26.13 72.6348 26.2567 72.1748 26.51C71.7215 26.7633 71.3015 27.1067 70.9148 27.54V35H69.1248V24.87H70.1948C70.4482 24.87 70.6048 24.9933 70.6648 25.24L70.8048 26.34ZM96.8989 22.3H92.2589V35H90.3289V22.3H85.6789V20.67H96.8989V22.3ZM101.434 24.71C102.174 24.71 102.841 24.8333 103.434 25.08C104.027 25.3267 104.534 25.6767 104.954 26.13C105.374 26.5833 105.694 27.1333 105.914 27.78C106.141 28.42 106.254 29.1367 106.254 29.93C106.254 30.73 106.141 31.45 105.914 32.09C105.694 32.73 105.374 33.2767 104.954 33.73C104.534 34.1833 104.027 34.5333 103.434 34.78C102.841 35.02 102.174 35.14 101.434 35.14C100.687 35.14 100.014 35.02 99.4139 34.78C98.8206 34.5333 98.3139 34.1833 97.8939 33.73C97.4739 33.2767 97.1506 32.73 96.9239 32.09C96.7039 31.45 96.5939 30.73 96.5939 29.93C96.5939 29.1367 96.7039 28.42 96.9239 27.78C97.1506 27.1333 97.4739 26.5833 97.8939 26.13C98.3139 25.6767 98.8206 25.3267 99.4139 25.08C100.014 24.8333 100.687 24.71 101.434 24.71ZM101.434 33.75C102.434 33.75 103.181 33.4167 103.674 32.75C104.167 32.0767 104.414 31.14 104.414 29.94C104.414 28.7333 104.167 27.7933 103.674 27.12C103.181 26.4467 102.434 26.11 101.434 26.11C100.927 26.11 100.484 26.1967 100.104 26.37C99.7306 26.5433 99.4172 26.7933 99.1639 27.12C98.9172 27.4467 98.7306 27.85 98.6039 28.33C98.4839 28.8033 98.4239 29.34 98.4239 29.94C98.4239 31.14 98.6706 32.0767 99.1639 32.75C99.6639 33.4167 100.421 33.75 101.434 33.75ZM117.842 24.87V35H116.782C116.528 35 116.368 34.8767 116.302 34.63L116.162 33.54C115.722 34.0267 115.228 34.42 114.682 34.72C114.135 35.0133 113.508 35.16 112.802 35.16C112.248 35.16 111.758 35.07 111.332 34.89C110.912 34.7033 110.558 34.4433 110.272 34.11C109.985 33.7767 109.768 33.3733 109.622 32.9C109.482 32.4267 109.412 31.9033 109.412 31.33V24.87H111.192V31.33C111.192 32.0967 111.365 32.69 111.712 33.11C112.065 33.53 112.602 33.74 113.322 33.74C113.848 33.74 114.338 33.6167 114.792 33.37C115.252 33.1167 115.675 32.77 116.062 32.33V24.87H117.842ZM128.714 26.67C128.661 26.7433 128.607 26.8 128.554 26.84C128.501 26.88 128.427 26.9 128.334 26.9C128.234 26.9 128.124 26.86 128.004 26.78C127.884 26.6933 127.734 26.6 127.554 26.5C127.381 26.4 127.164 26.31 126.904 26.23C126.651 26.1433 126.337 26.1 125.964 26.1C125.464 26.1 125.024 26.19 124.644 26.37C124.264 26.5433 123.944 26.7967 123.684 27.13C123.431 27.4633 123.237 27.8667 123.104 28.34C122.977 28.8133 122.914 29.3433 122.914 29.93C122.914 30.5433 122.984 31.09 123.124 31.57C123.264 32.0433 123.461 32.4433 123.714 32.77C123.974 33.09 124.284 33.3367 124.644 33.51C125.011 33.6767 125.421 33.76 125.874 33.76C126.307 33.76 126.664 33.71 126.944 33.61C127.224 33.5033 127.454 33.3867 127.634 33.26C127.821 33.1333 127.974 33.02 128.094 32.92C128.221 32.8133 128.344 32.76 128.464 32.76C128.611 32.76 128.724 32.8167 128.804 32.93L129.304 33.58C129.084 33.8533 128.834 34.0867 128.554 34.28C128.274 34.4733 127.971 34.6367 127.644 34.77C127.324 34.8967 126.987 34.99 126.634 35.05C126.281 35.11 125.921 35.14 125.554 35.14C124.921 35.14 124.331 35.0233 123.784 34.79C123.244 34.5567 122.774 34.22 122.374 33.78C121.974 33.3333 121.661 32.7867 121.434 32.14C121.207 31.4933 121.094 30.7567 121.094 29.93C121.094 29.1767 121.197 28.48 121.404 27.84C121.617 27.2 121.924 26.65 122.324 26.19C122.731 25.7233 123.227 25.36 123.814 25.1C124.407 24.84 125.087 24.71 125.854 24.71C126.567 24.71 127.194 24.8267 127.734 25.06C128.281 25.2867 128.764 25.61 129.184 26.03L128.714 26.67ZM134.005 26.22C134.438 25.76 134.918 25.3933 135.445 25.12C135.971 24.8467 136.578 24.71 137.265 24.71C137.818 24.71 138.305 24.8033 138.725 24.99C139.151 25.17 139.505 25.43 139.785 25.77C140.071 26.1033 140.288 26.5067 140.435 26.98C140.581 27.4533 140.655 27.9767 140.655 28.55V35H138.865V28.55C138.865 27.7833 138.688 27.19 138.335 26.77C137.988 26.3433 137.458 26.13 136.745 26.13C136.218 26.13 135.725 26.2567 135.265 26.51C134.811 26.7633 134.391 27.1067 134.005 27.54V35H132.215V20.27H134.005V26.22Z" fill="black"/>
</g>
<defs>
<filter id="filter0_d_19_21" x="0" y="0" width="170" height="62" filterUnits="userSpaceOnUse" color-interpolation-filters="sRGB">
<feFlood flood-opacity="0" result="BackgroundImageFix"/>
<feColorMatrix in="SourceAlpha" type="matrix" values="0 0 0 0 0 0 0 0 0 0 0 0 0 0 0 0 0 0 127 0" result="hardAlpha"/>
<feOffset dx="4" dy="4"/>
<feGaussianBlur stdDeviation="2"/>
<feComposite in2="hardAlpha" operator="out"/>
<feColorMatrix type="matrix" values="0 0 0 0 0 0 0 0 0 0 0 0 0 0 0 0 0 0 0.5 0"/>
<feBlend mode="normal" in2="BackgroundImageFix" result="effect1_dropShadow_19_21"/>
<feBlend mode="normal" in="SourceGraphic" in2="effect1_dropShadow_19_21" result="shape"/>
</filter>
</defs>
</svg>
