<svg width="698" height="475" viewBox="0 0 698 475" fill="none" xmlns="http://www.w3.org/2000/svg">
<path d="M63.0283 235.186C63.0283 293.429 92.2773 349.286 144.341 390.47C196.404 431.654 267.018 454.79 340.647 454.79C414.276 454.79 484.889 431.654 536.952 390.47C589.016 349.286 618.265 293.429 618.265 235.186C618.265 176.943 589.016 121.086 536.952 79.9022C484.889 38.7184 414.276 15.5815 340.647 15.5815C267.018 15.5815 196.404 38.7184 144.341 79.9022C92.2773 121.086 63.0283 176.943 63.0283 235.186V235.186Z" fill="#C7F0FF" stroke="#ACE5FA" stroke-width="7"/>
<path d="M168.255 107.783L72.5879 278.471" stroke="#8CA4B8" stroke-width="7" stroke-linecap="round" stroke-linejoin="round"/>
<path d="M256.017 391.161L72.5879 278.471" stroke="#8CA4B8" stroke-width="7" stroke-linecap="round" stroke-linejoin="round"/>
<path d="M542.248 222.394L447.177 354.355" stroke="#00AED9" stroke-width="7" stroke-linecap="round" stroke-linejoin="round"/>
<path d="M168.247 107.782L417.07 65.8765" stroke="#8CA4B8" stroke-width="7" stroke-linecap="round" stroke-linejoin="round"/>
<path d="M542.247 222.394L417.097 65.8767" stroke="#8CA4B8" stroke-width="7" stroke-linecap="round" stroke-linejoin="round"/>
<path d="M542.229 222.394L338.63 258.409L72.5879 278.47" stroke="#00AED9" stroke-width="7" stroke-linecap="round" stroke-linejoin="round"/>
<path d="M168.247 107.783L256.009 391.16" stroke="#8CA4B8" stroke-width="7" stroke-linecap="round" stroke-linejoin="round"/>
<path d="M417.101 65.8767L338.653 258.41" stroke="#8CA4B8" stroke-width="7" stroke-linecap="round" stroke-linejoin="round"/>
<path d="M168.247 107.783L447.149 354.355" stroke="#8CA4B8" stroke-width="7" stroke-linecap="round" stroke-linejoin="round"/>
<path d="M447.171 354.354L256.03 391.16" stroke="#8CA4B8" stroke-width="7" stroke-linecap="round" stroke-linejoin="round"/>
<path d="M72.5879 278.471L417.077 65.8767" stroke="#8CA4B8" stroke-width="7" stroke-linecap="round" stroke-linejoin="round"/>
<path d="M4 268.303C4 276.25 5.97868 284.118 9.82306 291.46C13.6674 298.802 19.3022 305.472 26.4057 311.092C33.5092 316.711 41.9423 321.168 51.2234 324.209C60.5046 327.25 70.4521 328.815 80.4979 328.815C90.5438 328.815 100.491 327.25 109.772 324.209C119.054 321.168 127.487 316.711 134.59 311.092C141.694 305.472 147.328 298.802 151.173 291.46C155.017 284.118 156.996 276.25 156.996 268.303C156.996 260.357 155.017 252.488 151.173 245.146C147.328 237.804 141.694 231.134 134.59 225.515C127.487 219.896 119.054 215.438 109.772 212.397C100.491 209.356 90.5438 207.791 80.4979 207.791C70.4521 207.791 60.5046 209.356 51.2234 212.397C41.9423 215.438 33.5092 219.896 26.4057 225.515C19.3022 231.134 13.6674 237.804 9.82306 245.146C5.97868 252.488 4 260.357 4 268.303V268.303Z" fill="white" stroke="#45413C" stroke-width="7" stroke-linecap="round" stroke-linejoin="round"/>
<path d="M121.327 283.714C121.312 282.399 120.722 281.129 119.659 280.12C118.595 279.11 117.122 278.422 115.49 278.174V274.479C115.555 270.807 114.697 267.162 112.966 263.754C111.235 260.347 108.665 257.246 105.405 254.631C102.146 252.016 98.262 249.939 93.9793 248.522C89.6965 247.105 85.1004 246.375 80.458 246.375C75.8156 246.375 71.2194 247.105 66.9367 248.522C62.6539 249.939 58.77 252.016 55.5105 254.631C52.251 257.246 49.6809 260.347 47.9497 263.754C46.2185 267.162 45.3607 270.807 45.426 274.479V278.174C43.7241 278.426 42.1957 279.158 41.1247 280.235C40.0538 281.311 39.513 282.658 39.6029 284.026C39.6928 285.394 40.4072 286.689 41.6135 287.672C42.8198 288.654 44.4359 289.257 46.1617 289.368C47.8063 295.601 52.1137 301.196 58.3596 305.212C64.6056 309.227 72.409 311.42 80.458 311.42C88.5069 311.42 96.3104 309.227 102.556 305.212C108.802 301.196 113.11 295.601 114.754 289.368C116.543 289.241 118.207 288.592 119.422 287.546C120.638 286.5 121.317 285.134 121.327 283.714V283.714Z" fill="#FFCEBF" stroke="#45413C" stroke-width="7" stroke-linecap="round" stroke-linejoin="round"/>
<path d="M57.1438 287.178C57.1438 288.097 57.6052 288.978 58.4265 289.628C59.2478 290.277 60.3617 290.642 61.5232 290.642C62.6847 290.642 63.7986 290.277 64.62 289.628C65.4413 288.978 65.9027 288.097 65.9027 287.178C65.9027 286.259 65.4413 285.378 64.62 284.729C63.7986 284.079 62.6847 283.714 61.5232 283.714C60.3617 283.714 59.2478 284.079 58.4265 284.729C57.6052 285.378 57.1438 286.259 57.1438 287.178V287.178Z" fill="#FFB59E"/>
<path d="M95.1162 287.178C95.1162 287.633 95.2295 288.084 95.4496 288.504C95.6697 288.924 95.9922 289.306 96.3989 289.628C96.8056 289.95 97.2884 290.205 97.8197 290.379C98.351 290.553 98.9205 290.643 99.4956 290.643C100.071 290.643 100.64 290.553 101.172 290.379C101.703 290.205 102.186 289.95 102.592 289.628C102.999 289.306 103.322 288.924 103.542 288.504C103.762 288.084 103.875 287.633 103.875 287.178C103.875 286.723 103.762 286.273 103.542 285.853C103.322 285.432 102.999 285.05 102.592 284.729C102.186 284.407 101.703 284.152 101.172 283.978C100.64 283.804 100.071 283.714 99.4956 283.714C98.9205 283.714 98.351 283.804 97.8197 283.978C97.2884 284.152 96.8056 284.407 96.3989 284.729C95.9922 285.05 95.6697 285.432 95.4496 285.853C95.2295 286.273 95.1162 286.723 95.1162 287.178V287.178Z" fill="#FFB59E"/>
<path d="M71.7522 295.468C74.3439 296.838 77.3908 297.569 80.5076 297.569C83.6244 297.569 86.6713 296.838 89.263 295.468" stroke="#45413C" stroke-width="7" stroke-linecap="round" stroke-linejoin="round"/>
<path d="M118.459 267.55C118.527 263.574 117.596 259.627 115.719 255.938C113.843 252.249 111.059 248.892 107.528 246.061C103.998 243.23 99.7914 240.983 95.1537 239.448C90.516 237.914 85.5391 237.124 80.5122 237.124C75.4853 237.124 70.5085 237.914 65.8708 239.448C61.233 240.983 57.0268 243.23 53.4964 246.061C49.9659 248.892 47.1816 252.249 45.3051 255.938C43.4286 259.627 42.4973 263.574 42.5652 267.55V274.479C42.5652 275.09 42.8724 275.677 43.419 276.109C43.9657 276.542 44.7071 276.785 45.4802 276.785H51.3241C52.0972 276.785 52.8386 276.542 53.3853 276.109C53.932 275.677 54.2391 275.09 54.2391 274.479C54.2419 271.729 54.9431 269.008 56.3011 266.476C57.6591 263.945 59.6461 261.655 62.1443 259.743C62.7825 259.248 63.5565 258.875 64.4063 258.654C65.256 258.433 66.1587 258.37 67.0443 258.47C70.7279 258.833 74.1501 260.165 76.7609 262.252C80.2106 265.066 84.7593 266.877 89.6713 267.392C94.5834 267.907 99.5714 267.096 103.829 265.091C105.294 267.34 106.234 269.78 106.605 272.294C106.688 272.895 107.048 273.451 107.617 273.856C108.185 274.261 108.922 274.487 109.686 274.49H115.523C116.297 274.488 117.039 274.244 117.585 273.811C118.132 273.378 118.438 272.79 118.438 272.178L118.459 267.55Z" fill="#FF6196" stroke="#45413C" stroke-width="7" stroke-linecap="round" stroke-linejoin="round"/>
<path d="M80.5059 246.765C88.0986 246.76 95.5621 248.319 102.162 251.289C108.761 254.259 114.269 258.537 118.144 263.702C116.957 256.47 112.483 249.827 105.558 245.014C98.632 240.201 89.7283 237.546 80.5094 237.546C71.2905 237.546 62.3868 240.201 55.4612 245.014C48.5356 249.827 44.0616 256.47 42.8748 263.702C46.7488 258.537 52.2559 254.26 58.8542 251.29C65.4524 248.32 72.9144 246.761 80.5059 246.765V246.765Z" fill="#FF87AF"/>
<path d="M118.459 267.55C118.527 263.574 117.596 259.627 115.719 255.938C113.843 252.249 111.059 248.892 107.528 246.061C103.998 243.23 99.7914 240.983 95.1537 239.448C90.516 237.914 85.5391 237.124 80.5122 237.124C75.4853 237.124 70.5085 237.914 65.8708 239.448C61.233 240.983 57.0268 243.23 53.4964 246.061C49.9659 248.892 47.1816 252.249 45.3051 255.938C43.4286 259.627 42.4973 263.574 42.5652 267.55V274.479C42.5652 275.09 42.8724 275.677 43.419 276.109C43.9657 276.542 44.7071 276.785 45.4802 276.785H51.3241C52.0972 276.785 52.8386 276.542 53.3853 276.109C53.932 275.677 54.2391 275.09 54.2391 274.479C54.2419 271.729 54.9431 269.008 56.3011 266.476C57.6591 263.945 59.6461 261.655 62.1443 259.743C62.7825 259.248 63.5565 258.875 64.4063 258.654C65.256 258.433 66.1587 258.37 67.0443 258.47C70.7279 258.833 74.1501 260.165 76.7609 262.252C80.2106 265.066 84.7593 266.877 89.6713 267.392C94.5834 267.907 99.5714 267.096 103.829 265.091C105.294 267.34 106.234 269.78 106.605 272.294C106.688 272.895 107.048 273.451 107.617 273.856C108.185 274.261 108.922 274.487 109.686 274.49H115.523C116.297 274.488 117.039 274.244 117.585 273.811C118.132 273.378 118.438 272.79 118.438 272.178L118.459 267.55Z" stroke="#45413C" stroke-width="7" stroke-linecap="round" stroke-linejoin="round"/>
<path d="M103.808 265.091C104.117 264.947 104.364 264.733 104.521 264.478C104.677 264.223 104.734 263.937 104.686 263.655C104.638 263.374 104.486 263.111 104.25 262.897C104.014 262.684 103.703 262.531 103.357 262.456C98.7755 261.434 94.8101 259.145 92.1829 256.005" fill="#FFDF3D"/>
<path d="M103.808 265.091C104.117 264.947 104.364 264.733 104.521 264.478C104.677 264.223 104.734 263.937 104.686 263.655C104.638 263.374 104.486 263.111 104.25 262.897C104.014 262.684 103.703 262.531 103.357 262.456C98.7755 261.434 94.8101 259.145 92.1829 256.005" stroke="#45413C" stroke-width="7" stroke-linecap="round" stroke-linejoin="round"/>
<path d="M67.3719 274.479C66.5054 274.479 65.6584 274.682 64.9381 275.063C64.2177 275.444 63.6564 275.985 63.3251 276.619C62.9939 277.252 62.9075 277.949 63.0771 278.621C63.2466 279.293 63.6644 279.911 64.2776 280.395C64.8908 280.879 65.6718 281.209 66.5217 281.342C67.3717 281.475 68.2525 281.405 69.0526 281.142C69.8527 280.879 70.5362 280.434 71.0166 279.864C71.497 279.294 71.7527 278.623 71.7513 277.938C71.7513 277.483 71.638 277.033 71.4178 276.613C71.1976 276.193 70.8749 275.811 70.4682 275.49C70.0614 275.169 69.5786 274.914 69.0473 274.741C68.516 274.567 67.9466 274.478 67.3719 274.479V274.479Z" fill="#45413C"/>
<path d="M93.6326 274.479C92.7661 274.479 91.9191 274.682 91.1988 275.063C90.4785 275.444 89.9171 275.985 89.5859 276.619C89.2546 277.252 89.1683 277.949 89.3378 278.621C89.5074 279.293 89.9252 279.911 90.5383 280.395C91.1515 280.879 91.9325 281.209 92.7825 281.342C93.6325 281.475 94.5132 281.405 95.3133 281.142C96.1135 280.879 96.797 280.434 97.2773 279.864C97.7577 279.293 98.0134 278.623 98.012 277.938C98.0102 277.02 97.548 276.14 96.7269 275.492C95.9058 274.843 94.7929 274.479 93.6326 274.479V274.479Z" fill="#45413C"/>
<path d="M80.4855 237.53C85.4568 237.524 90.3809 238.292 94.9765 239.792C99.5722 241.292 103.749 243.493 107.269 246.27C108.821 244.345 109.656 242.113 109.677 239.83C109.677 230.903 96.6082 223.662 80.4855 223.662C64.3627 223.662 51.3354 230.903 51.3354 239.83C51.3466 242.111 52.1692 244.342 53.7091 246.27C57.2277 243.493 61.4035 241.292 65.9979 239.793C70.5923 238.293 75.5153 237.524 80.4855 237.53V237.53Z" fill="#FF6196" stroke="#45413C" stroke-width="7" stroke-linecap="round" stroke-linejoin="round"/>
<path d="M336.764 64.762C336.764 80.8108 344.824 96.2023 359.17 107.551C373.516 118.899 392.974 125.274 413.262 125.274C433.551 125.274 453.008 118.899 467.355 107.551C481.701 96.2023 489.76 80.8108 489.76 64.762C489.76 48.7133 481.701 33.3218 467.355 21.9736C453.008 10.6254 433.551 4.25 413.262 4.25C392.974 4.25 373.516 10.6254 359.17 21.9736C344.824 33.3218 336.764 48.7133 336.764 64.762V64.762Z" fill="white" stroke="#45413C" stroke-width="7" stroke-linecap="round" stroke-linejoin="round"/>
<path d="M462.884 80.4691C462.866 78.9792 462.197 77.54 460.99 76.3961C459.783 75.2522 458.113 74.4741 456.263 74.1939V70.0049C456.263 61.6777 452.081 53.6915 444.637 47.8032C437.193 41.9149 427.097 38.6069 416.57 38.6069C406.043 38.6069 395.947 41.9149 388.503 47.8032C381.059 53.6915 376.878 61.6777 376.878 70.0049V74.1939C374.945 74.4761 373.208 75.3045 371.99 76.5248C370.772 77.7452 370.157 79.2741 370.259 80.8267C370.361 82.3793 371.173 83.8496 372.544 84.9636C373.915 86.0776 375.751 86.7593 377.71 86.8816C379.57 93.9478 384.449 100.292 391.528 104.846C398.607 109.4 407.453 111.886 416.577 111.886C425.701 111.886 434.547 109.4 441.626 104.846C448.705 100.292 453.584 93.9478 455.444 86.8816C457.469 86.7343 459.352 85.9962 460.728 84.8109C462.103 83.6256 462.872 82.0779 462.884 80.4691V80.4691Z" fill="#D18660" stroke="#45413C" stroke-width="7" stroke-linecap="round" stroke-linejoin="round"/>
<path d="M462.884 80.4691C462.866 78.9792 462.197 77.54 460.99 76.3961C459.783 75.2522 458.113 74.4741 456.263 74.1939V70.0049C456.263 61.6777 452.081 53.6915 444.637 47.8032C437.193 41.9149 427.097 38.6069 416.57 38.6069C406.043 38.6069 395.947 41.9149 388.503 47.8032C381.059 53.6915 376.878 61.6777 376.878 70.0049V74.1939C374.945 74.4761 373.208 75.3045 371.99 76.5248C370.772 77.7452 370.157 79.2741 370.259 80.8267C370.361 82.3793 371.173 83.8496 372.544 84.9636C373.915 86.0776 375.751 86.7593 377.71 86.8816C379.57 93.9478 384.449 100.292 391.528 104.846C398.607 109.4 407.453 111.886 416.577 111.886C425.701 111.886 434.547 109.4 441.626 104.846C448.705 100.292 453.584 93.9478 455.444 86.8816C457.469 86.7343 459.352 85.9962 460.728 84.8109C462.103 83.6256 462.872 82.0779 462.884 80.4691V80.4691Z" stroke="#45413C" stroke-width="7" stroke-linecap="round" stroke-linejoin="round"/>
<path d="M401.672 69.9939C400.691 69.9939 399.731 70.2241 398.915 70.6554C398.099 71.0868 397.463 71.6999 397.088 72.4171C396.712 73.1344 396.614 73.9237 396.805 74.6851C396.997 75.4466 397.469 76.1461 398.163 76.695C398.857 77.244 399.742 77.6179 400.704 77.7693C401.667 77.9208 402.665 77.8431 403.571 77.546C404.478 77.2489 405.253 76.7457 405.799 76.1002C406.344 75.4547 406.635 74.6957 406.635 73.9193C406.635 72.8782 406.112 71.8798 405.181 71.1436C404.251 70.4075 402.989 69.9939 401.672 69.9939V69.9939Z" fill="#45413C"/>
<path d="M431.464 69.9941C430.483 69.9941 429.523 70.2244 428.707 70.6557C427.891 71.087 427.255 71.7001 426.879 72.4174C426.504 73.1347 426.406 73.9239 426.597 74.6854C426.789 75.4468 427.261 76.1463 427.955 76.6953C428.649 77.2443 429.533 77.6181 430.496 77.7696C431.459 77.9211 432.456 77.8433 433.363 77.5462C434.27 77.2491 435.045 76.746 435.59 76.1004C436.136 75.4549 436.427 74.696 436.427 73.9196C436.427 72.8785 435.904 71.88 434.973 71.1439C434.042 70.4077 432.78 69.9941 431.464 69.9941V69.9941Z" fill="#45413C"/>
<path d="M390.117 84.3837C390.117 85.4248 390.64 86.4232 391.57 87.1594C392.501 87.8956 393.763 88.3091 395.079 88.3091C396.395 88.3091 397.657 87.8956 398.588 87.1594C399.519 86.4232 400.042 85.4248 400.042 84.3837C400.042 83.3426 399.519 82.3441 398.588 81.608C397.657 80.8718 396.395 80.4583 395.079 80.4583C393.763 80.4583 392.501 80.8718 391.57 81.608C390.64 82.3441 390.117 83.3426 390.117 84.3837V84.3837Z" fill="#BD704A"/>
<path d="M433.097 84.3834C433.097 85.4245 433.62 86.423 434.55 87.1591C435.481 87.8953 436.743 88.3089 438.059 88.3089C439.375 88.3089 440.637 87.8953 441.568 87.1591C442.499 86.423 443.022 85.4245 443.022 84.3834C443.022 83.3424 442.499 82.3439 441.568 81.6077C440.637 80.8716 439.375 80.458 438.059 80.458C436.743 80.458 435.481 80.8716 434.55 81.6077C433.62 82.3439 433.097 83.3424 433.097 84.3834V84.3834Z" fill="#BD704A"/>
<path d="M406.655 93.7827C409.593 95.3322 413.046 96.159 416.577 96.159C420.108 96.159 423.56 95.3322 426.498 93.7827" stroke="#45413C" stroke-width="7" stroke-linecap="round" stroke-linejoin="round"/>
<path d="M373.573 46.4307V69.9778C373.573 70.6714 373.921 71.3366 374.54 71.8276C375.159 72.3186 376 72.5951 376.876 72.5965H380.222L393.409 46.4307H373.573Z" fill="#614B44" stroke="#45413C" stroke-width="7" stroke-linecap="round" stroke-linejoin="round"/>
<path d="M459.58 49.0604C459.579 43.5093 456.79 38.1861 451.827 34.2614C446.864 30.3368 440.134 28.132 433.116 28.132H403.349C402.085 28.1322 400.848 27.8458 399.784 27.3067C398.72 26.7676 397.873 25.9984 397.345 25.0904C396.997 24.4819 396.45 23.9577 395.761 23.5717C395.072 23.1858 394.265 22.952 393.424 22.8944H387.802C382.736 22.8169 377.812 24.2248 373.98 26.847C370.147 29.4692 367.676 33.1204 367.043 37.0974C366.549 41.2031 368.116 45.2978 371.407 48.4968C374.698 51.6958 379.448 53.7421 384.63 54.1936C385.566 56.9713 387.534 59.4629 390.28 61.3461C393.026 63.2293 396.423 64.4174 400.031 64.7566H406.652C406.914 64.7548 407.167 64.6855 407.374 64.5595C407.581 64.4334 407.73 64.2573 407.799 64.058C407.869 63.8587 407.854 63.647 407.757 63.455C407.66 63.2631 407.487 63.1013 407.263 62.9943C404.257 61.5747 402.069 59.2843 401.162 56.6093C401.06 56.3402 401.038 56.0558 401.099 55.7789C401.16 55.5019 401.302 55.2401 401.513 55.0144C401.725 54.7887 402.001 54.6053 402.318 54.479C402.636 54.3527 402.986 54.2869 403.342 54.287H430.368C431.237 54.2869 432.098 54.4227 432.901 54.6865C433.704 54.9503 434.433 55.3369 435.046 55.8242L452.959 69.9887H456.263C456.698 69.9895 457.129 69.9222 457.531 69.7909C457.933 69.6595 458.298 69.4667 458.606 69.2233C458.914 68.98 459.157 68.691 459.323 68.373C459.489 68.0549 459.574 67.7141 459.573 67.37L459.58 49.0604Z" fill="#614B44"/>
<path d="M433.117 28.132H403.349C402.085 28.1315 400.849 27.8448 399.785 27.3058C398.721 26.7668 397.874 25.998 397.345 25.0904C396.997 24.4819 396.45 23.9577 395.761 23.5717C395.072 23.1858 394.265 22.952 393.424 22.8944H387.802C382.736 22.8169 377.812 24.2248 373.98 26.847C370.147 29.4692 367.676 33.1203 367.043 37.0973C366.82 38.9909 367.029 40.9007 367.661 42.7357C380.466 40.5082 393.542 39.4035 406.653 39.4416C424.494 39.2882 442.25 41.407 459.24 45.7168C458.235 40.8092 455.054 36.3449 450.268 33.123C445.481 29.9011 439.401 28.1318 433.117 28.132V28.132Z" fill="#947063"/>
<path d="M459.58 49.0604C459.579 43.5093 456.79 38.1861 451.827 34.2614C446.864 30.3368 440.134 28.132 433.116 28.132H403.349C402.085 28.1322 400.848 27.8458 399.784 27.3067C398.72 26.7676 397.873 25.9984 397.345 25.0904C396.997 24.4819 396.45 23.9577 395.761 23.5717C395.072 23.1858 394.265 22.952 393.424 22.8944H387.802C382.736 22.8169 377.812 24.2248 373.98 26.847C370.147 29.4692 367.676 33.1204 367.043 37.0974C366.549 41.2031 368.116 45.2978 371.407 48.4968C374.698 51.6958 379.448 53.7421 384.63 54.1936C385.566 56.9713 387.534 59.4629 390.28 61.3461C393.026 63.2293 396.423 64.4174 400.031 64.7566H406.652C406.914 64.7548 407.167 64.6855 407.374 64.5595C407.581 64.4334 407.73 64.2573 407.799 64.058C407.869 63.8587 407.854 63.647 407.757 63.455C407.66 63.2631 407.487 63.1013 407.263 62.9943C404.257 61.5747 402.069 59.2843 401.162 56.6093C401.06 56.3402 401.038 56.0558 401.099 55.7789C401.16 55.5019 401.302 55.2401 401.513 55.0144C401.725 54.7887 402.001 54.6053 402.318 54.479C402.636 54.3527 402.986 54.2869 403.342 54.287H430.368C431.237 54.2869 432.098 54.4227 432.901 54.6865C433.704 54.9503 434.433 55.3369 435.046 55.8242L452.959 69.9887H456.263C456.698 69.9895 457.129 69.9222 457.531 69.7909C457.933 69.6595 458.298 69.4667 458.606 69.2233C458.914 68.98 459.157 68.691 459.323 68.373C459.489 68.0549 459.574 67.7141 459.573 67.37L459.58 49.0604Z" stroke="#45413C" stroke-width="7" stroke-linecap="round" stroke-linejoin="round"/>
<path d="M514.816 351.016L542.589 329.047L591.188 367.492L563.416 389.461L514.816 351.016Z" fill="#F0F0F0" stroke="#45413C" stroke-width="7" stroke-linecap="round" stroke-linejoin="round"/>
<path d="M685.594 463.129L684.268 464.178C678.903 468.388 671.653 470.75 664.096 470.75C656.539 470.75 649.288 468.388 643.923 464.178L556.231 394.783C554.456 393.368 553.461 391.456 553.461 389.463C553.461 387.47 554.456 385.558 556.231 384.143L584.45 361.82C586.238 360.417 588.654 359.63 591.172 359.63C593.691 359.63 596.107 360.417 597.894 361.82L685.594 431.188C688.257 433.28 690.37 435.768 691.812 438.509C693.255 441.25 693.997 444.189 693.997 447.158C693.997 450.127 693.255 453.067 691.812 455.808C690.37 458.549 688.257 461.037 685.594 463.129Z" fill="#BF8256"/>
<path d="M685.597 463.131L684.903 463.653L570.385 372.94L584.405 361.85C586.192 360.447 588.609 359.659 591.127 359.659C593.645 359.659 596.061 360.447 597.849 361.85L685.597 431.19C688.26 433.282 690.373 435.77 691.815 438.511C693.258 441.252 694 444.192 694 447.161C694 450.13 693.258 453.069 691.815 455.81C690.373 458.551 688.26 461.039 685.597 463.131Z" fill="#DEA47A"/>
<path d="M685.594 463.129L684.268 464.178C678.903 468.388 671.653 470.75 664.096 470.75C656.539 470.75 649.288 468.388 643.923 464.178L556.231 394.783C554.456 393.368 553.461 391.456 553.461 389.463C553.461 387.47 554.456 385.558 556.231 384.143L584.45 361.82C586.238 360.417 588.654 359.63 591.172 359.63C593.691 359.63 596.107 360.417 597.894 361.82L685.594 431.188C688.257 433.28 690.37 435.768 691.812 438.509C693.255 441.25 693.997 444.189 693.997 447.158C693.997 450.127 693.255 453.067 691.812 455.808C690.37 458.549 688.257 461.037 685.594 463.129Z" stroke="#45413C" stroke-width="7" stroke-linecap="round" stroke-linejoin="round"/>
<path d="M305.861 329.443C326.251 355.8 359.042 374.671 397.021 381.903C435 389.136 475.055 384.138 508.375 368.009C541.695 351.88 565.551 325.941 574.694 295.899C583.837 265.856 577.519 234.171 557.129 207.814C536.739 181.457 503.948 162.586 465.969 155.354C427.991 148.121 387.935 153.119 354.615 169.248C321.295 185.377 297.439 211.316 288.296 241.358C279.153 271.401 285.471 303.086 305.861 329.443V329.443Z" fill="#F0F0F0" stroke="#45413C" stroke-width="7" stroke-linecap="round" stroke-linejoin="round"/>
<path d="M514.829 202.724C531.307 215.759 542.528 232.367 547.074 250.447C551.62 268.527 549.286 287.267 540.367 304.298C531.449 321.328 516.347 335.885 496.97 346.126C477.593 356.367 454.813 361.833 431.509 361.833C408.205 361.833 385.425 356.367 366.048 346.126C346.671 335.885 331.569 321.328 322.651 304.298C313.732 287.267 311.398 268.527 315.944 250.447C320.49 232.367 331.711 215.759 348.189 202.724C359.13 194.068 372.12 187.202 386.416 182.517C400.712 177.833 416.035 175.422 431.509 175.422C446.983 175.422 462.306 177.833 476.602 182.517C490.898 187.202 503.888 194.068 514.829 202.724V202.724Z" fill="#00B8F0"/>
<path d="M348.191 334.536C326.094 317.056 313.68 293.348 313.681 268.628C313.681 243.908 326.096 220.2 348.194 202.721C370.292 185.241 400.263 175.422 431.513 175.422C462.764 175.423 492.734 185.243 514.831 202.724L348.191 334.536Z" fill="#4ACFFF"/>
<path d="M428.667 313.306C415.127 313.366 401.837 316.194 390.085 321.514C378.333 326.835 368.519 334.467 361.595 343.672C381.166 355.07 404.71 361.407 429.008 361.816C453.306 362.225 477.17 356.685 497.336 345.956C490.661 336.131 480.759 327.912 468.674 322.166C456.589 316.42 442.768 313.359 428.667 313.306V313.306Z" fill="#F0F0F0"/>
<path d="M428.667 313.306C415.127 313.366 401.837 316.194 390.085 321.514C378.333 326.835 368.519 334.467 361.595 343.672C365.452 345.925 369.481 347.99 373.657 349.854C381.054 344.015 389.861 339.414 399.552 336.324C409.244 333.234 419.623 331.718 430.071 331.867C440.518 332.016 450.821 333.827 460.366 337.192C469.911 340.556 478.502 345.406 485.627 351.451C489.661 349.801 493.57 347.968 497.336 345.961C490.662 336.135 480.761 327.915 468.675 322.168C456.59 316.421 442.768 313.359 428.667 313.306V313.306Z" fill="white"/>
<path d="M428.667 313.306C415.127 313.366 401.837 316.194 390.085 321.514C378.333 326.835 368.519 334.467 361.595 343.672C381.166 355.07 404.71 361.407 429.008 361.816C453.306 362.225 477.17 356.685 497.336 345.956C490.661 336.131 480.759 327.912 468.674 322.166C456.589 316.42 442.768 313.359 428.667 313.306V313.306Z" stroke="#45413C" stroke-width="7" stroke-linejoin="round"/>
<path d="M451.941 316.297C450.691 315.983 449.43 315.701 448.158 315.452C446.688 315.158 445.384 314.484 444.454 313.537C443.523 312.59 443.019 311.425 443.022 310.225V291.68H415.42V310.017C415.419 311.223 414.906 312.394 413.964 313.341C413.021 314.289 411.703 314.959 410.221 315.243C408.625 315.551 407.036 315.891 405.467 316.281L405.308 316.446C405.716 321.131 408.357 325.519 412.697 328.724C417.037 331.928 422.753 333.71 428.69 333.71C434.627 333.71 440.343 331.928 444.683 328.724C449.023 325.519 451.664 321.131 452.072 316.446L451.941 316.297Z" fill="#FFCEBF" stroke="#45413C" stroke-width="7" stroke-linecap="round" stroke-linejoin="round"/>
<path d="M490.814 245.722C490.814 258.827 484.233 271.394 472.519 280.661C460.805 289.927 444.917 295.133 428.35 295.133C411.784 295.133 395.896 289.927 384.182 280.661C372.467 271.394 365.886 258.827 365.886 245.722C365.886 218.403 383.515 196.97 401.449 192.896C402.943 192.556 404.525 192.541 406.03 192.851C407.534 193.161 408.905 193.785 410 194.658C429.419 210.108 490.814 190.854 490.814 245.722Z" fill="#FFDF3D"/>
<path d="M490.134 253.002C483.145 207.346 422.492 227.429 407.543 208.669C389.768 208.669 370.383 227.336 366.594 253.172C366.127 250.708 365.895 248.219 365.9 245.727C365.9 218.409 383.529 196.975 401.463 192.902C402.957 192.562 404.539 192.546 406.043 192.856C407.548 193.166 408.919 193.791 410.013 194.664C429.447 210.108 490.814 190.854 490.814 245.722C490.814 248.159 490.586 250.592 490.134 253.002V253.002Z" fill="#FFEF9E"/>
<path d="M490.814 245.722C490.814 258.827 484.233 271.394 472.519 280.661C460.805 289.927 444.917 295.133 428.35 295.133C411.784 295.133 395.896 289.927 384.182 280.661C372.467 271.394 365.886 258.827 365.886 245.722C365.886 218.403 383.515 196.97 401.449 192.896C402.943 192.556 404.525 192.541 406.03 192.851C407.534 193.161 408.905 193.785 410 194.658C429.419 210.108 490.814 190.854 490.814 245.722Z" stroke="#45413C" stroke-width="7" stroke-linecap="round" stroke-linejoin="round"/>
<path d="M480.454 258.075L469.967 262.193L462.402 241.253C461.695 239.242 460.042 237.522 457.782 236.444C455.523 235.366 452.828 235.012 450.249 235.456C435.836 238.172 420.819 238.172 406.406 235.456C403.828 235.014 401.133 235.368 398.874 236.445C396.615 237.523 394.962 239.243 394.254 241.253L386.688 262.193L376.361 258.075C361.502 258.075 362.48 278.663 378.957 278.663H379.005C382.267 287.012 388.823 294.316 397.713 299.504C406.603 304.691 417.36 307.49 428.408 307.49C439.455 307.49 450.212 304.691 459.102 299.504C467.992 294.316 474.548 287.012 477.81 278.663V278.663C494.307 278.663 495.307 258.075 480.454 258.075Z" fill="#FFCEBF" stroke="#45413C" stroke-width="7" stroke-linecap="round" stroke-linejoin="round"/>
<path d="M406.043 259.107C406.043 260.397 406.691 261.634 407.844 262.546C408.997 263.459 410.561 263.971 412.192 263.971C413.823 263.971 415.387 263.459 416.54 262.546C417.693 261.634 418.341 260.397 418.341 259.107C418.341 257.817 417.693 256.58 416.54 255.667C415.387 254.755 413.823 254.243 412.192 254.243C410.561 254.243 408.997 254.755 407.844 255.667C406.691 256.58 406.043 257.817 406.043 259.107Z" fill="#45413C"/>
<path d="M438.546 259.106C438.546 260.397 439.194 261.634 440.347 262.546C441.501 263.458 443.065 263.971 444.696 263.971C446.327 263.971 447.891 263.458 449.044 262.546C450.197 261.634 450.845 260.397 450.845 259.106C450.845 257.816 450.197 256.579 449.044 255.667C447.891 254.755 446.327 254.242 444.696 254.242C443.065 254.242 441.501 254.755 440.347 255.667C439.194 256.579 438.546 257.816 438.546 259.106Z" fill="#45413C"/>
<path d="M402.429 270.426C402.429 271.241 402.124 272.037 401.551 272.715C400.979 273.392 400.166 273.92 399.214 274.231C398.262 274.543 397.216 274.624 396.206 274.464C395.196 274.305 394.268 273.912 393.54 273.336C392.813 272.76 392.318 272.025 392.117 271.226C391.917 270.427 392.021 269.599 392.417 268.847C392.812 268.095 393.48 267.452 394.337 267C395.194 266.548 396.201 266.308 397.231 266.309C397.914 266.309 398.59 266.415 399.222 266.622C399.853 266.829 400.426 267.133 400.909 267.515C401.392 267.898 401.774 268.352 402.035 268.851C402.296 269.351 402.43 269.886 402.429 270.426Z" fill="#FFB59E"/>
<path d="M464.897 270.427C464.897 271.242 464.592 272.038 464.02 272.715C463.448 273.392 462.635 273.92 461.684 274.232C460.733 274.543 459.686 274.625 458.676 274.466C457.666 274.307 456.739 273.915 456.011 273.339C455.283 272.763 454.787 272.029 454.586 271.231C454.386 270.432 454.489 269.604 454.883 268.852C455.277 268.099 455.944 267.456 456.8 267.004C457.656 266.551 458.662 266.31 459.692 266.31C461.072 266.31 462.396 266.744 463.372 267.516C464.349 268.288 464.897 269.335 464.897 270.427V270.427Z" fill="#FFB59E"/>
<path d="M415.469 283.786C419.323 285.816 423.849 286.899 428.479 286.899C433.109 286.899 437.635 285.816 441.489 283.786" stroke="#45413C" stroke-width="7" stroke-linecap="round" stroke-linejoin="round"/>
<path d="M514.829 202.724C531.307 215.759 542.528 232.367 547.074 250.447C551.62 268.527 549.286 287.267 540.367 304.298C531.449 321.328 516.347 335.885 496.97 346.126C477.593 356.367 454.813 361.833 431.509 361.833C408.205 361.833 385.425 356.367 366.048 346.126C346.671 335.885 331.569 321.328 322.651 304.298C313.732 287.267 311.398 268.527 315.944 250.447C320.49 232.367 331.711 215.759 348.189 202.724C359.13 194.068 372.12 187.202 386.416 182.517C400.712 177.833 416.035 175.422 431.509 175.422C446.983 175.422 462.306 177.833 476.602 182.517C490.898 187.202 503.888 194.068 514.829 202.724V202.724Z" stroke="#45413C" stroke-width="7" stroke-linecap="round" stroke-linejoin="round"/>
<path d="M205.121 382.091C205.121 392.301 210.249 402.093 219.375 409.313C228.502 416.532 240.881 420.588 253.788 420.588C266.695 420.588 279.073 416.532 288.2 409.313C297.327 402.093 302.454 392.301 302.454 382.091C302.454 371.881 297.327 362.09 288.2 354.87C279.073 347.651 266.695 343.595 253.788 343.595C240.881 343.595 228.502 347.651 219.375 354.87C210.249 362.09 205.121 371.881 205.121 382.091V382.091Z" fill="white" stroke="#45413C" stroke-width="7" stroke-linecap="round" stroke-linejoin="round"/>
<path d="M238.124 381.197C238.124 384.482 239.773 387.632 242.71 389.955C245.646 392.278 249.629 393.583 253.781 393.583C257.934 393.583 261.917 392.278 264.853 389.955C267.789 387.632 269.439 384.482 269.439 381.197V375.004C269.439 371.719 267.789 368.569 264.853 366.246C261.917 363.923 257.934 362.618 253.781 362.618C249.629 362.618 245.646 363.923 242.71 366.246C239.773 368.569 238.124 371.719 238.124 375.004V381.197Z" fill="#FFCEBF" stroke="#45413C" stroke-width="7" stroke-linecap="round" stroke-linejoin="round"/>
<path d="M286.324 410.716C277.392 417.065 265.809 420.577 253.801 420.577C241.793 420.577 230.209 417.065 221.278 410.716C223.95 405.642 228.46 401.306 234.241 398.255C240.021 395.204 246.813 393.574 253.762 393.569C260.71 393.564 267.506 395.186 273.293 398.229C279.079 401.272 283.599 405.602 286.282 410.672" fill="#FF6242"/>
<path d="M286.324 410.716C277.392 417.065 265.809 420.577 253.801 420.577C241.793 420.577 230.209 417.065 221.278 410.716C223.95 405.642 228.46 401.306 234.241 398.255C240.021 395.204 246.813 393.574 253.762 393.569C260.71 393.564 267.506 395.186 273.293 398.229C279.079 401.272 283.599 405.602 286.282 410.672" stroke="#45413C" stroke-width="7" stroke-linecap="round" stroke-linejoin="round"/>
<path d="M238.26 373.406C238.671 370.909 240.034 368.57 242.169 366.701C244.304 364.832 247.108 363.523 250.208 362.947C253.308 362.372 256.556 362.557 259.519 363.479C262.482 364.401 265.019 366.016 266.792 368.108C263.087 370.951 258.476 372.944 253.452 373.877C248.427 374.81 243.176 374.648 238.26 373.406V373.406Z" fill="#A86C4D" stroke="#45413C" stroke-width="7" stroke-linecap="round" stroke-linejoin="round"/>
<path d="M121.508 104.373C121.508 114.583 126.635 124.375 135.762 131.595C144.889 138.814 157.267 142.87 170.174 142.87C183.081 142.87 195.46 138.814 204.587 131.595C213.713 124.375 218.841 114.583 218.841 104.373C218.841 94.1635 213.713 84.3717 204.587 77.1521C195.46 69.9326 183.081 65.8767 170.174 65.8767C157.267 65.8767 144.889 69.9326 135.762 77.1521C126.635 84.3717 121.508 94.1635 121.508 104.373V104.373Z" fill="white" stroke="#45413C" stroke-width="7" stroke-linecap="round" stroke-linejoin="round"/>
<path d="M154.508 103.479C154.595 106.719 156.282 109.804 159.21 112.072C162.138 114.339 166.072 115.609 170.169 115.609C174.267 115.609 178.201 114.339 181.129 112.072C184.056 109.804 185.744 106.719 185.831 103.479V97.2859C185.744 94.0454 184.056 90.9607 181.129 88.6931C178.201 86.4255 174.267 85.1555 170.169 85.1555C166.072 85.1555 162.138 86.4255 159.21 88.6931C156.282 90.9607 154.595 94.0454 154.508 97.2859V103.479Z" fill="#FFCEBF" stroke="#45413C" stroke-width="7" stroke-linecap="round" stroke-linejoin="round"/>
<path d="M202.705 133.004C193.772 139.349 182.189 142.859 170.182 142.859C158.176 142.859 146.593 139.349 137.659 133.004C140.332 127.93 144.842 123.595 150.622 120.544C156.402 117.493 163.194 115.862 170.143 115.857C177.092 115.853 183.887 117.474 189.674 120.517C195.461 123.561 199.98 127.89 202.664 132.96" fill="#6DD627"/>
<path d="M202.705 133.004C193.772 139.349 182.189 142.859 170.182 142.859C158.176 142.859 146.593 139.349 137.659 133.004C140.332 127.93 144.842 123.595 150.622 120.544C156.402 117.493 163.194 115.862 170.143 115.857C177.092 115.853 183.887 117.474 189.674 120.517C195.461 123.561 199.98 127.89 202.664 132.96" stroke="#45413C" stroke-width="7" stroke-linecap="round" stroke-linejoin="round"/>
<path d="M154.669 95.6879C155.078 93.189 156.441 90.8482 158.576 88.9783C160.711 87.1083 163.516 85.7982 166.618 85.223C169.719 84.6477 172.968 84.8347 175.931 85.7589C178.895 86.6832 181.431 88.3007 183.201 90.3954C179.495 93.2363 174.884 95.2288 169.86 96.1608C164.835 97.0928 159.586 96.9294 154.669 95.6879Z" fill="#A86C4D" stroke="#45413C" stroke-width="7" stroke-linecap="round" stroke-linejoin="round"/>
</svg>
