<svg width="81" height="36" viewBox="0 0 81 36" fill="none" xmlns="http://www.w3.org/2000/svg">
<path d="M11 28.2744L18 22.9369L25 28.2744L22.375 19.6119L29.375 14.6244H20.8L18 5.52441L15.2 14.6244H6.625L13.625 19.6119L11 28.2744ZM18 35.2744C15.5792 35.2744 13.3042 34.8147 11.175 33.8954C9.04583 32.9772 7.19375 31.7307 5.61875 30.1557C4.04375 28.5807 2.79717 26.7286 1.879 24.5994C0.959667 22.4702 0.5 20.1952 0.5 17.7744C0.5 15.3536 0.959667 13.0786 1.879 10.9494C2.79717 8.82025 4.04375 6.96816 5.61875 5.39316C7.19375 3.81816 9.04583 2.571 11.175 1.65166C13.3042 0.733497 15.5792 0.274414 18 0.274414C20.4208 0.274414 22.6958 0.733497 24.825 1.65166C26.9542 2.571 28.8063 3.81816 30.3813 5.39316C31.9563 6.96816 33.2028 8.82025 34.121 10.9494C35.0403 13.0786 35.5 15.3536 35.5 17.7744C35.5 20.1952 35.0403 22.4702 34.121 24.5994C33.2028 26.7286 31.9563 28.5807 30.3813 30.1557C28.8063 31.7307 26.9542 32.9772 24.825 33.8954C22.6958 34.8147 20.4208 35.2744 18 35.2744Z" fill="black"/>
<path d="M56 28.2744L63 22.9369L70 28.2744L67.375 19.6119L74.375 14.6244H65.8L63 5.52441L60.2 14.6244H51.625L58.625 19.6119L56 28.2744ZM63 35.2744C60.5792 35.2744 58.3042 34.8147 56.175 33.8954C54.0458 32.9772 52.1938 31.7307 50.6188 30.1557C49.0438 28.5807 47.7972 26.7286 46.879 24.5994C45.9597 22.4702 45.5 20.1952 45.5 17.7744C45.5 15.3536 45.9597 13.0786 46.879 10.9494C47.7972 8.82025 49.0438 6.96816 50.6188 5.39316C52.1938 3.81816 54.0458 2.571 56.175 1.65166C58.3042 0.733497 60.5792 0.274414 63 0.274414C65.4208 0.274414 67.6958 0.733497 69.825 1.65166C71.9542 2.571 73.8063 3.81816 75.3813 5.39316C76.9563 6.96816 78.2028 8.82025 79.121 10.9494C80.0403 13.0786 80.5 15.3536 80.5 17.7744C80.5 20.1952 80.0403 22.4702 79.121 24.5994C78.2028 26.7286 76.9563 28.5807 75.3813 30.1557C73.8063 31.7307 71.9542 32.9772 69.825 33.8954C67.6958 34.8147 65.4208 35.2744 63 35.2744Z" fill="black"/>
</svg>
