<svg width="65" height="65" viewBox="0 0 65 65" fill="none" xmlns="http://www.w3.org/2000/svg">
<path d="M55.383 55.384H45.7521V40.3012C45.7521 36.7046 45.6879 32.0746 40.7431 32.0746C35.7269 32.0746 34.9593 35.9934 34.9593 40.0394V55.383H25.3287V24.3668H34.5742V28.6055H34.7037C35.6289 27.0234 36.966 25.7219 38.5724 24.8396C40.1788 23.9573 41.9945 23.5272 43.826 23.5952C53.5874 23.5952 55.3871 30.0159 55.3871 38.3689L55.383 55.384ZM14.4615 20.1273C11.3747 20.1278 8.87199 17.6258 8.87148 14.5391C8.87098 11.4523 11.3727 8.94959 14.4595 8.94909C17.5462 8.94832 20.0489 11.4503 20.0495 14.5371C20.0497 16.0194 19.4611 17.4411 18.4132 18.4895C17.3653 19.5378 15.9438 20.127 14.4615 20.1273ZM19.2771 55.3842H9.636V24.3668H19.2768V55.384L19.2771 55.3842ZM60.1844 0.00473075H4.79654C2.17877 -0.0247224 0.0319922 2.07229 0 4.69006V60.309C0.0309766 62.928 2.1775 65.0271 4.79629 64.9996H60.1844C62.8088 65.0322 64.9637 62.9331 65 60.309V4.68575C64.9627 2.06289 62.8075 -0.033863 60.1844 0.000414348" fill="#0A66C2"/>
</svg>
