<svg width="60" height="60" viewBox="0 0 60 60" fill="none" xmlns="http://www.w3.org/2000/svg">
<g clip-path="url(#clip0_9_727)">
<path d="M13.6364 59.7047V28.9555L6.44695 20.2312L0 15.3899V54.2783C0 57.2808 1.83398 59.7047 4.09102 59.7047H13.6364Z" fill="#4285F4"/>
<path d="M46.3635 59.7046H55.9089C58.1727 59.7046 59.9999 57.2717 59.9999 54.2782V15.3901L52.6977 20.9353L46.3635 28.9554V59.7046Z" fill="#34A853"/>
<path d="M13.6365 28.9554L12.6582 16.9408L13.6365 5.44165L30.0001 21.7206L46.3637 5.44165L47.458 16.32L46.3637 28.9554L30.0001 45.2344L13.6365 28.9554Z" fill="#EA4335"/>
<path d="M46.3635 5.44156V28.9553L59.9999 15.3897V8.15462C59.9999 1.44426 54.2249 -2.38113 50.182 1.64322L46.3635 5.44156Z" fill="#FBBC04"/>
<path d="M0 15.3899L6.27164 21.6293L13.6364 28.9555V5.4417L9.81797 1.64336C5.76797 -2.3813 0 1.4444 0 8.15445V15.3896V15.3899Z" fill="#C5221F"/>
</g>
<defs>
<clipPath id="clip0_9_727">
<rect width="60" height="60" fill="white"/>
</clipPath>
</defs>
</svg>
