<svg width="529" height="494" viewBox="0 0 529 494" fill="none" xmlns="http://www.w3.org/2000/svg">
<path fill-rule="evenodd" clip-rule="evenodd" d="M7.53167 406.973C20.7727 332.069 154.756 374.741 242.593 351.584C330.431 328.428 434.35 220.583 503.126 273.411C571.902 326.238 498.725 453.938 340.984 482.755C183.241 511.573 -5.70932 481.876 7.53167 406.973Z" fill="#F2F2F2"/>
<g opacity="0.5">
<path fill-rule="evenodd" clip-rule="evenodd" d="M42.5269 57.1329C41.2496 58.5342 41.7457 63.5124 41.7189 65.3552C41.6779 68.223 41.8403 71.0658 42.0586 73.9237C42.2049 75.8379 43.0294 94.0987 45.3242 92.6965C46.6178 91.9062 45.8066 86.6229 45.8041 84.9522C45.7992 81.238 45.658 77.5327 45.433 73.8256C45.2235 70.3852 45.092 66.984 45.2122 63.5365C45.2414 62.6953 45.9584 53.3571 42.5269 57.1329Z" fill="#89C5CC"/>
<path fill-rule="evenodd" clip-rule="evenodd" d="M98.1508 54.8824C87.178 54.9778 76.2093 55.5728 65.2414 55.9367C59.9633 56.1124 54.6892 56.3354 49.4176 56.6565C47.6206 56.7663 43.7678 56.1338 42.271 57.1855C38.9485 59.5198 44.3069 60.0657 45.7351 60.0086C67.4411 59.1443 89.1537 58.0052 110.878 57.9517C121.534 57.9258 132.186 58.2585 142.843 58.1845C146.917 58.156 151.428 56.2275 152.457 61.4367C153.618 67.314 152.284 73.8585 151.921 79.7653C151.679 83.7078 151.765 87.5692 151.927 91.5092C152.031 94.0326 151.76 96.8763 152.167 99.3533C152.558 101.738 154.118 103.168 155.549 100.497C156.404 98.9002 155.979 94.9585 156.035 93.1094C156.112 90.619 156.04 88.1285 156.04 85.6372C156.04 79.5565 156.821 73.5008 156.718 67.421C156.651 63.5008 156.462 56.3943 151.961 55.4524C147.004 54.415 140.912 55.4577 135.839 55.3944C123.271 55.2365 110.723 54.7744 98.1508 54.8824Z" fill="#89C5CC"/>
<path fill-rule="evenodd" clip-rule="evenodd" d="M67.9154 92.914C63.7773 92.914 59.6393 92.9416 55.5021 93.0166C51.9536 93.0808 46.375 92.2691 43.0721 93.6633C40.8112 94.6177 40.2107 97.3909 43.0721 98.1294C46.1931 98.9349 50.8963 97.6175 54.1614 97.5541C70.5349 97.2366 87.066 96.8227 103.417 97.9609C118.738 99.0259 134.354 100.06 149.697 98.9349C150.988 98.8404 157.572 98.5522 154.567 95.8415C152.815 94.2591 145.711 95.2992 143.433 95.2234C135.399 94.9575 127.357 94.8987 119.325 94.5642C111.397 94.2332 103.506 93.2547 95.5759 93.0121C86.3636 92.7302 77.131 92.914 67.9154 92.914Z" fill="#89C5CC"/>
<path fill-rule="evenodd" clip-rule="evenodd" d="M63.7748 67.0625C70.2238 67.3721 76.6046 77.646 70.0793 82.6108C63.9575 87.2705 52.4853 82.1639 55.8893 73.1298C55.3996 74.4357 56.508 71.7107 56.5218 71.6929C57.169 70.8553 58.331 69.9276 59.1292 69.2675C60.0419 68.5111 60.9928 67.6798 62.0939 67.3007C62.8166 67.0518 62.7029 67.9875 63.7748 67.0625ZM60.6339 63.3572C57.6156 64.6515 56.2384 66.1117 54.1637 68.7547C52.7289 70.5832 50.8986 71.5457 50.9148 74.0165C50.9189 74.5633 51.558 75.1645 51.6692 75.6916C51.8219 76.4195 51.6448 77.3525 51.7658 78.1259C53.0147 86.1092 61.6846 88.8003 68.0313 87.2928C73.5596 85.9798 77.6943 80.1507 76.4138 73.8113C75.1243 67.43 66.5104 60.832 60.6339 63.3572Z" fill="#89C5CC"/>
<path fill-rule="evenodd" clip-rule="evenodd" d="M57.9456 74.5007C57.9456 77.372 62.0755 77.372 62.0755 74.5007C62.0755 71.6615 57.9456 71.5393 57.9456 74.5007Z" fill="#89C5CC"/>
<path fill-rule="evenodd" clip-rule="evenodd" d="M63.1125 73.9191C63.1125 76.2008 66.393 76.2008 66.393 73.9191C66.393 71.6633 63.1125 71.5669 63.1125 73.9191Z" fill="#89C5CC"/>
<path fill-rule="evenodd" clip-rule="evenodd" d="M64.128 78.6256C63.0773 79.0689 61.7439 78.1493 60.8816 78.7549C59.3542 79.8298 60.8856 80.8011 61.7041 81.2329C65.3907 83.1765 66.0468 77.8174 64.128 78.6256Z" fill="#89C5CC"/>
<path fill-rule="evenodd" clip-rule="evenodd" d="M120.433 72.2613C120.323 72.3121 119.932 72.4941 120.433 72.2613V72.2613ZM104.377 69.6834C101.618 70.3676 99.2884 73.1987 96.2904 72.8196C93.9932 72.5297 92.4374 70.0937 90.1694 69.7405C87.2681 69.2874 79.3713 76.5571 83.5231 77.805C85.9453 78.5328 87.2892 73.6706 89.4289 73.4119C91.1219 73.2076 93.424 75.4885 95.178 75.8131C98.4504 76.4188 100.698 74.4386 103.57 73.1613C106.692 71.7742 108.468 73.0239 111.183 74.5661C113.326 75.7828 115.344 76.5758 117.796 76.0736C120.097 75.6026 122.988 73.0025 125.305 73.2692C127.573 73.5305 129.193 76.1316 131.526 76.3733C132.489 76.4723 133.921 76.8327 133.759 75.2012C133.629 73.8963 132.303 74.1175 131.473 73.642C129.34 72.4218 127.344 70.2596 124.769 70.4443C122.831 70.5834 121.068 72.0784 119.283 72.7938C113.436 75.1361 110.149 68.2616 104.377 69.6834Z" fill="#89C5CC"/>
<path fill-rule="evenodd" clip-rule="evenodd" d="M109.263 111.044C97.9845 111.158 86.6682 111.342 75.4226 112.335C72.756 112.57 45.5315 115.394 45.5834 115.598C45.6784 115.973 49.1807 116.548 49.1587 116.637C48.9224 115.994 48.3833 115.728 47.5404 115.839C73.3609 115.839 99.0986 113.3 124.953 113.756C131.449 113.871 137.97 113.823 144.462 114.048C146.083 114.104 150.098 115.38 151.371 114.576C154.711 112.467 148.643 112.223 147.638 112.135C134.914 111.016 122.021 110.904 109.263 111.044Z" fill="#69A1AC"/>
<path fill-rule="evenodd" clip-rule="evenodd" d="M42.2407 117.063C40.5547 118.92 42.1072 125.6 42.1736 128.111C42.2697 131.74 42.1905 135.396 42.4805 139.016C42.8114 143.152 43.325 147.558 44.3127 151.57C44.8567 153.781 46.7663 157.293 47.5231 153.277C48.0631 150.408 47.2429 146.603 46.9571 143.681C46.5755 139.771 46.4829 135.913 46.4691 131.984C46.4561 128.561 46.396 125.124 46.1402 121.712C46.0079 119.94 45.1967 113.833 42.2407 117.063Z" fill="#69A1AC"/>
<path fill-rule="evenodd" clip-rule="evenodd" d="M84.6592 151.082C76.656 151.233 68.6357 151.441 60.6463 151.989C57.3714 152.215 54.099 152.55 50.8363 152.93C50.1713 153.008 42.8019 153.336 46.0949 156.323C47.5809 157.673 53.6946 155.808 55.7133 155.613C59.1099 155.286 62.505 155.074 65.9106 154.916C73.8026 154.548 81.7181 154.223 89.6174 154.373C104.045 154.648 118.378 154.771 132.809 154.417C134.859 154.367 150.921 154.838 151.467 152.496C151.906 150.608 146.162 151.474 145.115 151.508C141.273 151.633 137.431 151.605 133.587 151.583C117.305 151.492 100.929 150.78 84.6592 151.082Z" fill="#69A1AC"/>
<path fill-rule="evenodd" clip-rule="evenodd" d="M148.748 113.93C149.002 121.757 150.215 129.575 150.603 137.427C150.78 141.015 150.989 144.601 151.149 148.191C151.201 149.349 150.776 152.14 152.023 152.806C153.733 153.72 153.963 151.879 154.283 150.633C155.208 147.036 154.583 142.363 154.498 138.668C154.417 135.091 154.412 131.506 154.171 127.934C153.925 124.285 153.257 120.706 152.947 117.07C152.815 115.532 153.274 112.973 151.788 112.018C150.503 111.193 148.693 112.233 148.748 113.93Z" fill="#69A1AC"/>
<path fill-rule="evenodd" clip-rule="evenodd" d="M70.0843 126.951C70.1143 126.977 70.1443 127.003 70.1744 127.028C70.1443 127.003 70.1143 126.977 70.0843 126.951ZM63.2828 124.632C65.8187 125.427 67.9016 125.131 70.3246 127.159C72.3327 128.84 74.3928 131.301 75.0587 134.02C76.5974 140.301 71.3802 143.744 66.4895 143.812C61.4793 143.881 54.0632 142.604 54.3198 135.55C54.5171 130.131 58.1192 124.842 63.2828 124.632ZM63.4615 121.082C56.8849 121.441 51.58 129.555 51.6369 136.383C51.7059 144.659 60.2426 146.792 66.3076 146.849C73.1521 146.913 79.9771 141.722 78.1435 133.267C76.6738 126.492 69.7854 120.72 63.4615 121.082Z" fill="#69A1AC"/>
<path fill-rule="evenodd" clip-rule="evenodd" d="M56.8461 132.194C56.8461 134.502 60.1656 134.502 60.1656 132.194C60.1656 129.913 56.8461 129.815 56.8461 132.194Z" fill="#69A1AC"/>
<path fill-rule="evenodd" clip-rule="evenodd" d="M63.8088 131.181C63.8088 133.508 67.1543 133.508 67.1543 131.181C67.1543 128.882 63.8088 128.783 63.8088 131.181Z" fill="#69A1AC"/>
<path fill-rule="evenodd" clip-rule="evenodd" d="M59.9707 136.446C57.8099 138.815 65.4006 142.969 67.1903 139.673C68.6609 136.965 65.4591 137.863 64.3247 137.717C63.0913 137.557 60.9776 135.342 59.9707 136.446Z" fill="#69A1AC"/>
<path fill-rule="evenodd" clip-rule="evenodd" d="M120.656 131.228C120.448 131.325 120.448 131.325 120.656 131.228V131.228ZM92.1526 127.371C89.9651 127.822 82.7852 130.483 82.6886 133.333C82.5108 138.516 89.5428 133.208 91.0694 132.526C95.2172 130.674 97.3966 134.452 101.564 134.651C105.182 134.824 108.51 131.422 111.919 131.824C115.491 132.246 117.208 136.42 121.332 134.204C123.514 133.032 123.458 131.224 121.009 131.054C119.53 130.951 118.512 131.623 116.97 130.923C114.556 129.83 113.584 128.049 110.697 128.332C108.517 128.546 106.548 129.895 104.421 130.418C99.5501 131.613 96.8485 126.405 92.1526 127.371Z" fill="#69A1AC"/>
<path fill-rule="evenodd" clip-rule="evenodd" d="M137.46 133.479C137.309 133.548 137.309 133.548 137.46 133.479V133.479ZM138.011 131.321C138.035 131.333 138.2 131.584 138.011 131.321V131.321ZM135.504 129.674C135.409 129.753 135.409 129.753 135.504 129.674V129.674ZM135.558 129.653C136.044 129.973 139.954 132.91 137.115 133.602C135.672 133.953 134.48 130.766 135.558 129.653ZM134.264 126.4C128.001 129.537 134.74 140.763 139.655 136.201C141.724 134.283 141.996 130.403 139.983 128.403C138.778 127.206 135.9 125.579 134.264 126.4Z" fill="#69A1AC"/>
<path fill-rule="evenodd" clip-rule="evenodd" d="M75.4696 170.637C67.6539 170.64 59.7701 170.46 51.9649 170.968C50.6519 171.054 45.6483 170.779 44.9714 172.287C43.7333 175.046 48.8817 173.677 49.6296 173.594C65.17 171.885 81.403 172.869 96.9945 173.356C109.746 173.754 122.429 174.001 135.166 174.723C138.514 174.913 141.858 175.122 145.204 175.344C146.295 175.417 149.039 176.21 149.269 174.297C149.482 172.526 146.058 172.926 145.203 172.877C138.403 172.484 131.607 172.072 124.808 171.651C108.444 170.638 91.8593 170.634 75.4696 170.637Z" fill="#89C5CC"/>
<path fill-rule="evenodd" clip-rule="evenodd" d="M44.7204 173.705C43.2607 175.299 43.945 181.386 43.9042 183.398C43.833 186.916 43.6818 190.433 43.6139 193.95C43.5434 197.626 43.6414 201.32 43.8394 204.992C43.9223 206.533 45.0741 213.983 46.8873 209.719C47.6977 207.814 46.8678 202.507 46.88 200.349C46.9027 196.421 47.0952 192.508 47.273 188.584C47.4265 185.212 47.4322 181.836 47.5662 178.462C47.6084 177.386 47.7245 170.395 44.7204 173.705Z" fill="#89C5CC"/>
<path fill-rule="evenodd" clip-rule="evenodd" d="M150.584 205.134C142.977 205.99 135.25 205.586 127.615 206.219C121.035 206.764 114.461 206.987 107.864 207.14C92.9264 207.486 77.9625 207.824 63.0677 209.192C59.6735 209.503 56.2825 209.834 52.8793 210.001C51.1773 210.084 44.0343 209.233 43.5023 211.204C42.5964 214.561 50.2346 213.232 51.8822 213.18C55.5054 213.066 59.1116 212.778 62.7242 212.475C77.9122 211.204 93.157 210.824 108.377 210.296C116.654 210.009 124.874 209.343 133.133 208.739C137.25 208.437 141.378 208.427 145.494 208.135C146.571 208.058 150.384 208.209 151.159 207.257C151.69 206.603 151.825 205.007 150.584 205.134Z" fill="#89C5CC"/>
<path fill-rule="evenodd" clip-rule="evenodd" d="M148.005 174.276C148.266 182.289 148.679 190.294 148.925 198.306C148.999 200.715 148.336 205.033 149.557 207.158C151.522 210.575 153.055 206.959 153.414 204.83C154.55 198.111 153.329 190.688 153.012 183.927C152.891 181.348 153.621 175.608 152.485 173.299C151.405 171.1 147.909 171.321 148.005 174.276Z" fill="#89C5CC"/>
<path fill-rule="evenodd" clip-rule="evenodd" d="M135.236 185.688C138.15 186.555 138.575 193.513 135.288 194.029C130.394 194.795 132.534 187.122 135.236 185.688ZM134.42 182.92C133.531 182.89 131.479 182.62 130.931 183.415C130.473 184.081 130.936 185.484 130.882 186.117C130.69 188.381 129.014 189.689 129.763 192.362C130.272 194.176 131.633 195.881 133.293 196.511C142.051 199.836 141.944 181.248 134.42 182.92Z" fill="#89C5CC"/>
<path fill-rule="evenodd" clip-rule="evenodd" d="M55.3517 184.169C55.3298 184.199 55.3078 184.23 55.2867 184.261C55.3078 184.23 55.3298 184.199 55.3517 184.169ZM62.2303 180.149C62.1962 179.827 62.1613 179.505 62.1272 179.183C66.8758 181.645 70.6542 186.225 69.0772 192.373C67.8746 197.063 63.5279 198.726 59.4784 197.568C54.996 196.286 52.8539 192.227 54.0622 187.244C54.6201 184.944 56.3326 181.854 58.5454 181.115C59.5758 180.771 61.8543 181.648 62.2303 180.149ZM59.4532 178.202C58.2522 178.291 57.0829 178.84 56.1028 179.592C57.0204 178.739 58.2433 178.232 59.4532 178.202ZM59.4881 175.172C56.521 175.272 54.5762 177.245 52.8166 179.614C52.2644 180.358 50.3968 182.331 50.6282 183.332C50.8109 184.125 51.2892 185.283 52.2969 184.4C47.0204 195.951 60.6509 205.804 68.9717 197.771C76.7378 190.275 69.0326 174.821 59.4881 175.172Z" fill="#89C5CC"/>
<path fill-rule="evenodd" clip-rule="evenodd" d="M56.7924 185.902C56.7924 187.441 58.9662 187.441 58.9662 185.902C58.9662 184.364 56.7924 184.364 56.7924 185.902Z" fill="#89C5CC"/>
<path fill-rule="evenodd" clip-rule="evenodd" d="M60.5015 186.165C60.5015 187.728 62.7102 187.728 62.7102 186.165C62.7102 184.601 60.5015 184.601 60.5015 186.165Z" fill="#89C5CC"/>
<path fill-rule="evenodd" clip-rule="evenodd" d="M62.1851 191.655C61.1522 191.747 57.3691 191.362 56.7056 192.355C55.5956 194.017 57.3666 194.075 58.2363 194.254C59.0199 194.416 62.4255 194.325 62.9054 193.56C63.3293 192.885 63.2302 191.557 62.1851 191.655Z" fill="#89C5CC"/>
<path fill-rule="evenodd" clip-rule="evenodd" d="M107.759 187.346C107.581 187.426 107.581 187.426 107.759 187.346V187.346ZM93.4664 186.198C91.1376 186.386 89.166 187.857 86.9394 188.444C84.5635 189.071 83.5346 187.919 81.3739 187.164C79.1262 186.379 77.5273 186.689 75.7206 188.375C74.6975 189.331 72.4514 191.53 73.0913 193.227C74.5562 197.112 77.8724 190.792 79.4323 190.497C81.8651 190.039 84.03 192.376 86.8363 191.707C89.3787 191.102 91.6345 189.184 94.2898 189.164C96.5107 189.146 98.6032 190.481 100.796 190.804C104.143 191.298 106.34 189.992 109.434 189.023C112.117 188.183 113.997 189.291 116.521 190.223C117.674 190.648 121.522 192.197 120.814 189.389C120.614 188.596 115.543 187.177 114.757 186.905C111.984 185.943 110.229 186.318 107.587 187.424C105.385 188.347 103.532 188.796 101.171 188.288C98.5691 187.729 96.2029 185.97 93.4664 186.198Z" fill="#89C5CC"/>
</g>
<g opacity="0.5">
<path fill-rule="evenodd" clip-rule="evenodd" d="M200.599 57.4359C200.975 48.5544 201.492 39.6863 201.764 30.7997C201.9 26.3962 202.005 21.9923 202.107 17.5879C202.129 16.6072 202.153 15.627 202.173 14.6462C202.239 11.3144 201.879 11.0419 204.932 10.7461C218.548 9.42577 232.219 8.98815 245.852 7.7936C262.295 6.35296 278.823 5.35812 295.312 4.91222C302.638 4.71375 309.997 4.30254 317.325 4.55283C318.949 4.60823 322.136 4.14413 322.776 5.53064C323.052 6.12961 322.472 8.19072 322.399 8.88183C322.169 11.041 321.955 13.2076 321.822 15.3775C321.043 28.1752 321.507 41.2954 323.763 53.8992C318.471 50.6211 311.785 47.8016 305.617 48.3608C299.329 48.9317 294.625 52.9225 289.591 56.5957C286.744 58.674 285.785 59.2199 282.944 57.2076C280.496 55.4727 278.18 53.4898 275.871 51.5426C272.307 48.5383 268.944 45.2817 265.488 42.1321C259.134 36.3413 250.379 28.0986 241.602 30.5255C235.332 32.2594 229.542 36.0452 224.1 39.7496C216.014 45.254 208.695 51.9948 200.599 57.4359ZM309.575 0.608822C278.335 0.608822 247.328 3.93567 216.175 5.73535C212.921 5.9232 209.679 6.19989 206.437 6.54358C204.276 6.77273 198.992 5.81063 197.576 7.83865C196.631 9.1917 197.443 9.39473 197.576 10.6803C197.744 12.3005 197.645 14.2202 197.602 15.935C197.498 20.0673 197.388 24.199 197.303 28.3315C196.98 43.95 196.778 59.566 197.354 75.1802C197.48 78.5858 198.609 83.3009 197.991 86.6102C197.544 89.006 196.048 90.4635 199.498 90.906C202.892 91.3422 207.042 90.2334 210.44 89.8784C213.856 89.5216 217.273 89.1336 220.694 88.8241C235.567 87.4781 250.586 87.6814 265.499 87.2337C280.546 86.7823 295.599 86.7538 310.651 86.744C316.949 86.7404 324.146 87.1293 330.292 85.2258C332.453 84.555 332.803 84.225 332.27 81.8693C332.169 81.4215 331.516 81.2565 331.324 80.4483C331.064 79.3485 331.198 78.0114 331.137 76.867C330.938 73.1278 330.868 69.3814 330.708 65.6404C330.44 59.3885 329.459 53.3212 328.733 47.1326C327.896 39.986 327.939 32.7288 327.922 25.535C327.912 21.5448 328.006 17.5677 328.297 13.5886C328.485 11.0364 329.629 7.22613 329.048 4.84603C328.759 3.66103 328.287 2.72123 327.164 2.21128C326.452 1.88775 325.854 2.1409 325.151 2.05902C324.317 1.96179 323.796 1.83317 322.797 1.58457C318.516 0.518645 313.938 0.608822 309.575 0.608822Z" fill="#69A1AC"/>
<path fill-rule="evenodd" clip-rule="evenodd" d="M292.286 17.5999C292.284 20.0871 291.93 23.7572 292.975 26.0992C294.298 29.0699 295.955 28.1413 296.393 25.3497C296.645 23.7502 296.638 19.0166 296.171 17.5999C295.509 15.5947 292.286 14.2288 292.286 17.5999Z" fill="#89C5CC"/>
<path fill-rule="evenodd" clip-rule="evenodd" d="M296.085 18.5604C293.959 18.6427 287.768 18.0822 286.33 19.9597C283.864 23.1798 288.158 23.7502 290.002 23.5698C292.136 23.3614 298.73 23.8701 300.159 21.9906C302.55 18.8461 297.756 18.4934 296.085 18.5604Z" fill="#89C5CC"/>
<path fill-rule="evenodd" clip-rule="evenodd" d="M213.598 101.649C222.943 103.432 220.036 119.084 211.194 115.458C208.112 114.195 203.573 110.545 205.276 106.245C206.547 103.032 210.694 101.343 213.598 101.649ZM209.729 96.7834C203.652 97.9073 199.497 105.131 201.581 111.433C203.591 117.512 211.215 121.964 216.838 119.78C222.206 117.693 224.884 109.848 223.074 104.109C221.183 98.1133 215.023 95.804 209.729 96.7834Z" fill="#89C5CC"/>
<path fill-rule="evenodd" clip-rule="evenodd" d="M266.569 103.481C264.242 103.693 262.232 105.482 259.891 105.799C257.701 106.095 255.887 105.272 253.838 104.614C251.36 103.82 249.088 103.471 246.556 104.176C244.622 104.716 242.714 106.162 240.704 106.337C236.75 106.68 232.154 101.723 229.066 107.329C227.586 110.016 229.736 111.747 231.949 110.494C234.257 109.187 233.124 108.72 235.987 109.492C238.375 110.135 240.306 110.484 242.699 109.583C244.866 108.766 246.768 107.272 249.124 107.104C251.431 106.94 253.438 108.094 255.642 108.592C258.353 109.204 260.752 108.741 263.321 107.808C265.765 106.919 266.74 106.434 269.206 107.226C270.767 107.727 274.178 109.321 275.697 108.037C278.325 105.817 274.807 105.492 273.422 105.176C271.191 104.669 268.884 103.272 266.569 103.481Z" fill="#89C5CC"/>
<path fill-rule="evenodd" clip-rule="evenodd" d="M319.811 101.988C319.829 102.004 319.848 102.02 319.866 102.036C319.848 102.02 319.829 102.004 319.811 101.988ZM317.527 101.464C320.923 101.704 324.596 108.501 320.096 108.742C316.928 108.912 313.384 102.961 317.527 101.464ZM317.05 95.9022C306.31 99.1963 311.22 115.83 321.579 113.909C326.285 113.036 327.88 107.048 326.324 102.614C325.656 100.711 324.353 99.1053 322.797 98.01C321.648 97.2009 318.363 95.5008 317.05 95.9022Z" fill="#89C5CC"/>
<path fill-rule="evenodd" clip-rule="evenodd" d="M266.942 130.626C276.393 130.27 285.845 129.914 295.306 129.817C300.433 129.765 305.532 129.864 310.652 130.187C312.922 130.329 315.192 130.467 317.464 130.573C317.856 130.591 318.398 130.562 318.995 130.53C320.402 130.454 322.119 130.361 322.927 130.831C327.447 133.457 318.239 133.745 317.12 133.724C314.613 133.678 312.109 133.541 309.604 133.406C307.416 133.287 305.228 133.168 303.037 133.109C288.983 132.73 274.844 133.424 260.766 134.114C257.539 134.272 254.316 134.431 251.097 134.575C247.679 134.729 244.263 134.829 240.846 134.928C235.963 135.071 231.079 135.214 226.196 135.515C224.33 135.63 222.466 135.752 220.602 135.874C217.931 136.049 215.26 136.223 212.588 136.378C210.496 136.499 208.403 136.617 206.308 136.675C205.932 136.685 205.44 136.743 204.904 136.805C203.605 136.958 202.043 137.14 201.198 136.761C200.183 136.306 199.362 135.668 199.92 134.316C200.392 133.173 202.108 133.31 203.359 133.41C203.701 133.438 204.008 133.462 204.245 133.457C208.244 133.372 212.233 133.125 216.224 132.856C217.684 132.758 219.143 132.657 220.602 132.557H220.603C228.201 132.032 235.792 131.508 243.409 131.365C251.256 131.218 259.099 130.922 266.942 130.626ZM316.303 198.955L319.02 198.919C320.424 199.053 321.051 200.671 320.15 201.915C319.461 202.867 316.806 202.91 315.076 202.938C314.596 202.946 314.187 202.953 313.911 202.977C309.394 203.376 304.886 203.555 300.355 203.603C290.813 203.702 281.308 204.152 271.782 204.749C262.032 205.36 252.273 205.589 242.513 205.819H242.512C235.332 205.988 228.152 206.157 220.974 206.477C216.864 206.661 212.753 206.798 208.641 206.917C208.199 206.93 207.611 206.999 206.946 207.078C204.348 207.386 200.574 207.834 199.719 205.567C198.96 203.557 200.015 202.631 201.557 202.21C201.314 201.019 201.359 199.346 201.384 198.387C201.393 198.099 201.398 197.875 201.394 197.748C201.356 196.547 201.328 195.344 201.302 194.142C201.271 192.78 201.241 191.418 201.193 190.056C201.149 188.82 201.109 187.583 201.069 186.345C200.909 181.464 200.75 176.571 200.408 171.709C200.25 169.465 200 167.248 199.75 165.034C199.351 161.499 198.952 157.973 198.935 154.365C198.931 153.715 198.901 152.904 198.868 151.988C198.697 147.303 198.428 139.896 201.075 137.64C205.743 134.647 204.82 143.284 204.408 147.139C204.341 147.776 204.287 148.281 204.274 148.584C204.006 154.993 204.369 161.121 204.956 167.489C205.354 171.791 205.121 176.077 204.89 180.372C204.807 181.905 204.724 183.439 204.67 184.976C204.643 185.736 204.619 186.496 204.595 187.255C204.521 189.593 204.448 191.929 204.288 194.264C204.27 194.517 204.265 195.001 204.257 195.62C204.236 197.366 204.203 200.183 203.863 201.892C204.587 201.858 205.289 201.867 205.871 201.874C206.24 201.878 206.561 201.882 206.806 201.874C207.92 201.836 209.035 201.801 210.149 201.765C213.441 201.659 216.733 201.553 220.024 201.417C227.794 201.096 235.565 200.989 243.337 200.882C252.516 200.755 261.696 200.629 270.871 200.15C285.992 199.36 301.166 199.158 316.303 198.955ZM319.108 136.295C319.1 147.274 319.873 157.952 320.776 168.888C321.335 175.652 321.782 182.442 322.139 189.223C322.155 189.537 322.152 190.06 322.149 190.717V190.718C322.131 194.468 322.092 202.547 325.466 200.614C328.014 199.155 327.034 190.693 326.493 186.01C326.374 184.983 326.276 184.137 326.241 183.588C326.167 182.417 326.094 181.246 326.021 180.075C325.681 174.64 325.343 169.207 324.896 163.778L324.802 162.633C324.286 156.362 323.769 150.095 323.677 143.794C323.67 143.273 323.716 142.548 323.767 141.727C323.916 139.355 324.115 136.197 323.218 134.937C321.956 133.165 319.111 133.688 319.108 136.295Z" fill="#69A1AC"/>
<path fill-rule="evenodd" clip-rule="evenodd" d="M267.374 163.211C279.446 157.211 291.658 151.142 304.211 146.82C305.119 146.508 305.692 147.536 305.487 148.398C305.274 149.287 303.311 150.045 302.008 150.548C301.618 150.699 301.288 150.826 301.082 150.927C299.329 151.788 297.571 152.637 295.813 153.487C294.012 154.357 292.212 155.227 290.416 156.109C286.683 157.941 282.946 159.766 279.209 161.59C275.207 163.543 271.205 165.497 267.207 167.461C267.056 167.535 266.904 167.61 266.753 167.684C272.189 169.806 277.593 172.023 282.975 174.307C284.813 175.087 286.646 175.884 288.478 176.681C289.515 177.131 290.552 177.581 291.591 178.029C291.929 178.175 292.517 178.373 293.225 178.61C295.529 179.382 299.094 180.579 299.358 181.786C299.787 183.754 294.864 181.851 293.007 181.132C292.761 181.037 292.569 180.963 292.45 180.921C289.709 179.959 287.002 178.887 284.297 177.816L283.921 177.667C281.777 176.819 279.636 175.961 277.494 175.103C273.311 173.427 269.128 171.751 264.922 170.144C264.327 169.917 263.732 169.69 263.137 169.464C256.388 172.795 249.651 176.157 242.937 179.572C239.337 181.405 235.756 183.279 232.185 185.178C231.406 185.592 230.44 186.233 229.392 186.93C226.88 188.598 223.888 190.584 221.83 190.534C220.727 190.507 219.983 190.248 219.868 188.779C219.749 187.262 221.52 186.467 222.794 185.896C223.098 185.758 223.374 185.634 223.589 185.517C227.406 183.42 231.246 181.376 235.097 179.358C242.746 175.351 250.467 171.503 258.215 167.731C258.259 167.71 258.304 167.688 258.349 167.666C254.051 166.069 249.743 164.509 245.424 162.983C244.992 162.831 244.109 162.562 242.947 162.208C237.457 160.538 225.762 156.98 226.283 154.902C226.88 152.525 237.844 156.87 242.698 158.794C243.608 159.154 244.303 159.43 244.675 159.56C250.478 161.591 256.266 163.68 262.023 165.864C263.804 164.986 265.587 164.099 267.374 163.211Z" fill="#89C5CC"/>
<path fill-rule="evenodd" clip-rule="evenodd" d="M215.648 215.426C219.182 216.106 221.674 219.83 221.287 223.729C220.762 228.998 215.982 231.413 211.566 230.726C206.555 229.946 205.501 225.292 207.929 220.816C208.466 219.825 209.084 218.639 210.062 218.117C210.733 217.758 211.589 218.075 212.13 217.786C214.027 216.773 212.886 215.156 215.648 215.426ZM214.039 211.985C209.727 212.589 201.76 218.071 202.163 223.554C202.513 224.19 203.039 224.45 203.742 224.335C203.573 225.523 203.628 226.698 203.907 227.861C204.317 229.37 205.134 230.607 206.229 231.59C208.484 233.614 211.566 234.111 214.374 233.756C219.618 233.094 223.749 229.158 224.044 223.167C224.331 217.32 219.685 211.201 214.039 211.985Z" fill="#89C5CC"/>
<path fill-rule="evenodd" clip-rule="evenodd" d="M234.924 219.12C232.989 220.246 229.929 221.976 228.794 224.115C227.596 226.375 228.837 228.846 231.362 227.778C233.367 226.929 234.642 224.234 236.78 223.369C238.668 222.607 239.428 222.996 241.423 223.755C243.478 224.537 245.274 225.293 247.496 225.101C250.288 224.86 252.707 223.081 255.44 222.677C257.741 222.337 259.639 223.319 261.843 223.711C264.4 224.165 266.072 223.102 268.464 222.548C270.091 222.172 272.959 223.704 274.146 223.13C276.815 221.841 273.991 220.266 272.514 219.745C270.025 218.868 268.494 219.642 266.127 220.37C263.557 221.159 262.447 220.565 259.99 219.84C255.019 218.373 251.179 221.921 246.468 221.276C242.106 220.678 239.496 216.46 234.924 219.12Z" fill="#89C5CC"/>
<path fill-rule="evenodd" clip-rule="evenodd" d="M316.198 216.499C320.982 221.426 315.608 228.436 310.333 224.498C308.476 223.113 308.446 220.886 309.891 218.894C311.213 217.073 314.116 216.363 316.198 216.499ZM314.424 212.517C309.955 213.472 305.739 215.725 305.334 221.392C304.939 226.92 310.102 229.489 314.439 229.126C324.177 228.311 323.473 210.595 314.424 212.517Z" fill="#89C5CC"/>
</g>
<g opacity="0.5">
<path fill-rule="evenodd" clip-rule="evenodd" d="M44.6389 249.525C37.7983 249.609 30.961 249.887 24.1339 250.361C17.6416 250.814 10.5972 250.47 4.21065 251.853C2.39717 252.245 -0.052602 254.06 2.35876 256.058C4.05369 257.462 10.2546 255.847 12.2786 255.711C19.7321 255.207 27.1894 254.604 34.6535 254.315C41.7196 254.04 48.785 253.944 55.8552 253.866C56.9344 253.854 58.7257 253.474 59.8008 253.819C61.3453 254.313 60.9791 254.447 61.0944 256.601C61.3039 260.502 61.2462 264.418 61.1756 268.323C61.1074 272.103 60.9799 275.881 60.9929 279.662C61.001 282.36 60.2166 287.72 61.4484 290.063C63.2219 293.434 65.0619 289.772 65.1942 287.531C65.4484 283.245 65.3347 278.908 65.3355 274.616C65.3364 270.589 65.3631 266.561 65.234 262.535C65.1398 259.627 65.5182 254.551 64.0923 251.907C62.6396 249.214 59.1423 249.795 56.5909 249.666C52.6104 249.466 48.6226 249.48 44.6389 249.525Z" fill="#89C5CC"/>
<path fill-rule="evenodd" clip-rule="evenodd" d="M1.1151 254.385C1.12265 261.953 0.325658 269.47 0.102354 277.03C-4.1503e-05 280.505 -0.207835 284.321 0.59257 287.733C1.40053 291.178 3.96658 291.924 4.26207 288.078C4.86069 280.291 4.71388 272.216 5.17998 264.366C5.34449 261.594 6.41522 256.515 5.41562 253.92C4.5354 251.634 1.11137 251.195 1.1151 254.385Z" fill="#89C5CC"/>
<path fill-rule="evenodd" clip-rule="evenodd" d="M65.2614 287.744C53.3816 289.471 40.9622 288.841 28.9977 289.113C23.2575 289.243 17.5185 289.251 11.7776 289.317C9.77398 289.339 4.68588 288.503 2.95255 289.74C0.193317 291.709 3.18706 293.229 5.01377 293.273C16.3431 293.545 27.7986 292.973 39.1258 292.565C44.215 292.381 49.3207 292.292 54.3967 291.816C57.5213 291.524 60.9358 291.24 63.9703 290.318C64.6167 290.122 66.0247 290.163 66.1693 289.194C66.2586 288.595 66.097 287.617 65.2614 287.744Z" fill="#89C5CC"/>
<path fill-rule="evenodd" clip-rule="evenodd" d="M15.8617 298.743C12.5599 298.765 2.61038 297.08 1.24294 300.617C-0.579952 305.333 6.53137 304.233 8.44391 304.178C12.7877 304.056 17.1285 304.043 21.4735 304.045C25.7367 304.047 29.9995 304.017 34.2621 303.905C35.4969 303.873 38.3713 304.436 39.0817 302.803C39.6216 301.561 39.1951 300.582 38.1993 299.924C35.8034 298.343 29.579 299.26 26.7739 299.118C23.142 298.934 19.4981 298.743 15.8617 298.743Z" fill="#89C5CC"/>
<path fill-rule="evenodd" clip-rule="evenodd" d="M56.0297 299.617C54.1425 299.74 50.3261 298.885 48.6354 299.834C46.7142 300.913 47.3914 302.601 49.0496 303.343C50.1986 303.856 54.9107 303.587 56.0297 302.992C57.1957 302.371 58.5144 299.449 56.0297 299.617Z" fill="#89C5CC"/>
<path fill-rule="evenodd" clip-rule="evenodd" d="M76.7164 255.128C74.701 255.736 75.3125 268.304 75.2605 270.295C75.1184 275.754 74.5597 282.62 76.2105 287.877C77.2637 291.229 79.2865 290.774 78.9414 287.246C78.6393 284.149 78.1196 281.088 77.8947 277.971C77.3872 270.918 76.6953 263.395 77.1752 256.336C77.3799 256.746 79.2913 260.551 79.7412 260.266C79.6056 260.355 77.5366 254.891 76.7164 255.128Z" fill="#89C5CC"/>
<path fill-rule="evenodd" clip-rule="evenodd" d="M99.3859 250.498C95.3071 250.565 91.2292 250.645 87.152 250.769C83.9096 250.868 78.8158 250.283 75.8431 251.781C72.3027 253.564 73.9819 257.538 77.3071 257.622C80.2491 257.697 83.3859 256.968 86.3538 256.856C94.3708 256.555 102.403 256.491 110.423 256.415C117.677 256.346 125.24 257.196 132.43 255.999C133.496 266.403 130.612 276.849 131.593 287.372C131.745 289.005 131.677 291.313 133.57 291.685C135.96 292.155 136.058 289.555 136.148 287.693C136.407 282.378 136.267 277.058 136.622 271.736C136.95 266.803 137.596 261.762 137.05 256.822C136.378 250.743 133.726 251.23 129.038 250.977C119.137 250.444 109.298 250.339 99.3859 250.498Z" fill="#89C5CC"/>
<path fill-rule="evenodd" clip-rule="evenodd" d="M85.7178 287.439C83.639 287.497 80.1879 286.793 78.8562 288.982C77.4709 291.26 79.1145 293.247 81.1291 293.714C83.514 294.267 86.6232 293.509 89.0982 293.501C91.6755 293.492 94.2537 293.524 96.831 293.535C107.881 293.582 118.978 293.766 130.021 293.264C131.563 293.194 135.939 293.762 137.006 292.137C137.954 290.696 137.291 289.404 136.043 288.67C133.997 287.465 129.794 287.923 127.518 287.828C124.707 287.71 121.892 287.672 119.079 287.623C107.978 287.435 96.8181 287.137 85.7178 287.439Z" fill="#89C5CC"/>
<path fill-rule="evenodd" clip-rule="evenodd" d="M95.0649 297.968C90.9301 298.045 86.5176 297.846 82.4234 298.535C78.8238 299.141 78.3804 302.964 82.2554 303.411C85.8169 303.822 90.1344 303.054 93.7129 302.801C94.9837 302.711 96.4616 302.839 97.0706 301.296C97.7064 299.683 96.4908 298.136 95.0649 297.968Z" fill="#89C5CC"/>
<path fill-rule="evenodd" clip-rule="evenodd" d="M126.327 298.369C124.12 298.43 117.673 297.387 116.58 300.157C114.76 304.766 123.487 303.015 125.162 302.948C127.272 302.862 135.496 304.216 135.498 300.526C135.499 296.907 128.348 298.315 126.327 298.369Z" fill="#89C5CC"/>
<path fill-rule="evenodd" clip-rule="evenodd" d="M0.758065 321.279C0.763344 329.665 0.288231 338.131 0.984698 346.497C1.27272 349.957 1.22335 356.586 3.04779 359.518C4.34288 361.6 6.13906 361.455 6.84649 358.955C7.31932 357.283 6.56301 353.941 6.47864 352.152C6.39736 350.437 6.30244 348.722 6.23017 347.005C6.04454 342.583 6.05924 338.169 6.11462 333.744C6.16204 329.949 6.9937 324.928 6.20946 321.279C5.47832 317.878 0.758065 317.082 0.758065 321.279Z" fill="#69A1AC"/>
<path fill-rule="evenodd" clip-rule="evenodd" d="M77.4913 313.9C64.2449 314.265 50.9684 313.939 37.7339 314.659C31.2069 315.014 24.7055 315.795 18.2112 316.572C15.0206 316.954 11.8318 317.348 8.64673 317.779C7.68563 317.91 -0.30104 318.249 2.70294 321.585C4.01459 323.043 8.18859 321.521 9.84024 321.306C13.038 320.891 16.2423 320.53 19.4445 320.158C25.5382 319.45 31.6395 318.779 37.7592 318.407C52.1718 317.53 66.6444 317.793 81.0715 317.208C84.9741 317.051 88.8644 316.937 92.7686 317.106C93.7942 317.15 101.327 317.571 98.0565 314.514C96.5096 313.069 90.6785 313.814 88.7459 313.771C84.9943 313.686 81.2412 313.797 77.4913 313.9Z" fill="#69A1AC"/>
<path fill-rule="evenodd" clip-rule="evenodd" d="M95.5491 328.03C95.4842 324.155 95.4184 320.281 95.2576 316.409C95.0887 312.331 100.145 311.714 101.644 315.014C102.724 317.391 102.534 321.433 102.371 324.898C102.306 326.294 102.244 327.598 102.273 328.659C102.337 331.092 102.5 333.61 102.665 336.159C103.081 342.576 103.51 349.204 102.418 355.262C101.887 358.205 99.6271 359.752 98.1224 358.148C98.12 358.151 98.1183 358.154 98.1159 358.158C97.5499 359.074 95.7887 359.072 94.4911 359.07C94.1338 359.07 93.8114 359.07 93.5597 359.088C90.0055 359.354 86.517 359.802 82.9937 360.382C75.9746 361.538 69.0165 362.248 61.9219 362.44C57.1074 362.572 52.2865 362.615 47.4647 362.66C38.2305 362.744 28.9918 362.828 19.7873 363.522C16.684 363.756 13.6277 364.157 10.5752 364.799C10.3154 364.853 10.0268 364.924 9.71973 365C7.45007 365.553 4.16432 366.356 3.9398 362.872C3.67297 358.737 11.8322 358.195 16.031 357.916C16.672 357.873 17.2207 357.837 17.6331 357.795C30.3822 356.493 43.3314 356.694 56.1346 356.894C56.755 356.903 57.3754 356.913 57.995 356.923C58.9937 356.938 59.9925 356.956 60.9913 356.973C66.4732 357.073 71.9487 357.172 77.4282 356.804C79.9219 356.636 82.4488 356.55 84.9799 356.464C89.0181 356.327 93.0676 356.188 97.0172 355.718C96.4212 353.182 96.3173 350.188 96.219 347.367C96.1809 346.268 96.1435 345.196 96.0785 344.186C95.7318 338.808 95.6401 333.42 95.5491 328.03Z" fill="#69A1AC"/>
<path fill-rule="evenodd" clip-rule="evenodd" d="M106.27 319.396C104.48 319.663 102.988 321.346 103.787 323.479C104.793 326.166 107.79 325.116 109.77 324.946C116.063 324.404 122.634 325.486 128.851 324.67C130.549 324.447 133.012 323.431 131.488 320.925C130.342 319.042 126.167 319.372 124.392 319.192C118.322 318.574 112.332 318.739 106.27 319.396Z" fill="#C1DEE2"/>
<path fill-rule="evenodd" clip-rule="evenodd" d="M116.891 331.117C114.451 331.298 108.769 331.156 107.741 334.206C105.896 339.679 113.122 337.75 115.322 337.439C117.878 337.078 123.903 338.045 125.264 335.323C127.697 330.455 119.032 330.955 116.891 331.117Z" fill="#C1DEE2"/>
<path fill-rule="evenodd" clip-rule="evenodd" d="M110.615 343.127C109.457 344.399 109.455 346.671 110.615 347.944C112.034 349.502 115.128 349.179 116.993 349.292C119.595 349.451 127.068 350.963 128.36 347.598C130.103 343.057 123.336 343.152 121.11 342.894C118.538 342.597 112.747 340.784 110.615 343.127Z" fill="#C1DEE2"/>
<path fill-rule="evenodd" clip-rule="evenodd" d="M19.4079 265.4C19.4079 270.282 26.349 270.282 26.349 265.4C26.349 260.544 19.4079 260.47 19.4079 265.4Z" fill="#89C5CC"/>
<path fill-rule="evenodd" clip-rule="evenodd" d="M32.5738 265.455C32.5738 271.036 40.4798 271.025 40.4798 265.455C40.4798 259.894 32.5738 259.837 32.5738 265.455Z" fill="#89C5CC"/>
<path fill-rule="evenodd" clip-rule="evenodd" d="M24.6091 272.876C20.766 274.042 24.3064 277.619 26.0909 278.437C28.9269 279.735 32.7975 280.693 35.6343 278.745C36.763 277.97 37.6793 276.941 36.8522 275.437C35.9709 273.835 34.7642 274.548 33.4224 274.695C31.7226 274.883 30.3489 274.853 28.7074 274.255C27.4824 273.808 25.9452 272.472 24.6091 272.876Z" fill="#89C5CC"/>
<path fill-rule="evenodd" clip-rule="evenodd" d="M94.3186 265.709C94.3186 269.011 98.9861 269.011 98.9861 265.709C98.9861 262.407 94.3186 262.407 94.3186 265.709Z" fill="#89C5CC"/>
<path fill-rule="evenodd" clip-rule="evenodd" d="M104.641 266.206C104.641 269.874 109.827 269.875 109.827 266.206C109.827 262.537 104.641 262.537 104.641 266.206Z" fill="#89C5CC"/>
<path fill-rule="evenodd" clip-rule="evenodd" d="M104.257 274.167C101.533 274.554 93.6552 275.431 93.2143 279.119C92.5347 284.809 101.166 280.204 103.136 279.757C105.646 279.188 107.887 279.337 110.392 279.447C111.767 279.507 113.597 279.752 113.452 277.451C113.216 273.672 106.638 273.833 104.257 274.167Z" fill="#89C5CC"/>
<path fill-rule="evenodd" clip-rule="evenodd" d="M35.7738 326.64C33.7996 327.218 31.2169 330.967 32.5752 333.263C34.8025 337.026 35.7847 331.248 36.7169 330.691C38.4129 329.679 39.7897 333.378 41.5621 331.438C44.359 328.376 37.5346 326.122 35.7738 326.64Z" fill="#69A1AC"/>
<path fill-rule="evenodd" clip-rule="evenodd" d="M58.3952 323.859C56.0542 323.882 51.1114 327.523 50.7615 330.211C50.5536 331.809 51.5175 333.344 53.0855 333.365C55.2203 333.394 55.8983 330.345 57.7489 329.707C59.7448 329.02 59.4484 330.604 61.1723 331.424C62.4342 332.026 64.012 331.774 64.4496 330.07C65.2771 326.856 60.8012 323.808 58.3952 323.859Z" fill="#69A1AC"/>
<path fill-rule="evenodd" clip-rule="evenodd" d="M40.4737 339.253C36.7289 341.663 42.8907 346.83 45.0269 347.477C48.2515 348.452 54.742 346.631 55.5061 342.304C55.8106 340.582 54.8297 339.021 53.0993 339.33C51.675 339.584 50.7615 341.548 49.442 342.251C47.6604 343.199 46.077 343.134 44.5638 341.706C43.3308 340.542 42.6705 337.845 40.4737 339.253Z" fill="#69A1AC"/>
<path fill-rule="evenodd" clip-rule="evenodd" d="M43.1879 374.87C39.842 375.654 36.441 375.128 33.079 375.865C29.6508 376.616 27.602 378.039 24.417 376.606C24.2671 376.536 24.1176 376.467 23.9682 376.398C21.503 375.231 18.9193 374.886 16.3388 376.745C14.8118 377.845 10.1763 381.65 10.735 383.972C11.9458 389.005 17.1618 381.112 18.4919 380.343C21.0282 378.876 22.7673 380.75 25.3785 381.279C28.5063 381.912 31.023 380.097 33.9694 379.374C37.4153 378.528 41.2919 378.234 44.7977 377.781C46.1824 377.602 51.4289 378.805 51.9023 376.912C52.7159 373.66 44.5028 374.564 43.1879 374.87Z" fill="#C1DEE2"/>
<path fill-rule="evenodd" clip-rule="evenodd" d="M67.3265 385.008C67.5457 385.19 67.3703 385.043 67.3265 385.008V385.008ZM76.6972 374.674C79.5611 374.355 88.7256 372.107 90.607 375.358C91.8332 377.476 89.8876 385.291 88.0329 386.303C86.5494 387.11 83.0959 386.217 81.4686 386.154C78.4406 386.037 75.4069 385.985 72.3821 385.778C71.3679 385.708 68.1044 385.913 67.3094 384.927C66.3707 383.763 66.4122 377.555 66.1913 376.016C68.8247 376.952 73.9436 374.981 76.6972 374.674ZM82.8133 371.486C79.1454 371.661 75.4775 371.963 71.8364 372.504C69.8072 372.805 67.7504 373.606 65.8762 373.986C65.2721 374.109 64.2912 373.769 63.5506 374.162C61.385 375.311 63.281 383.08 63.8031 385.155C64.6054 388.344 66.6233 388.86 69.4515 389.16C73.1762 389.557 76.9773 389.432 80.7142 389.382C84.3155 389.333 89.1722 390.21 91.1933 386.24C92.4998 383.673 93.9006 377.696 92.784 374.836C91.3151 371.071 85.8299 371.347 82.8133 371.486Z" fill="#C1DEE2"/>
<path fill-rule="evenodd" clip-rule="evenodd" d="M123.893 387.143C123.697 387.42 123.697 387.42 123.893 387.143V387.143ZM124.697 386.079C124.636 386.18 124.355 386.506 124.697 386.079V386.079ZM115.949 385.787C117.566 385.452 119.184 385.121 120.802 384.797C119.27 387.154 117.655 386.18 115.036 385.975C115.34 385.912 115.645 385.849 115.949 385.787ZM108.234 384.952C108.644 384.802 109.054 384.651 109.464 384.5C109.451 384.843 109.518 385.164 109.664 385.463C108.963 385.38 108.262 385.29 107.561 385.195C107.785 385.114 108.01 385.033 108.234 384.952ZM104.659 382.052C104.636 381.434 105.482 381.858 105.968 381.816C105.033 382.722 104.596 382.8 104.659 382.052ZM117.444 375.037C117.568 374.865 117.731 374.873 117.934 375.063C117.712 375.145 116.86 375.542 117.444 375.037ZM125.736 373.966C125.758 373.966 126.218 374.648 125.736 373.966V373.966ZM125.504 373.742C125.624 373.844 125.624 373.844 125.504 373.742V373.742ZM124.468 373.61C126.164 373.924 126.035 376.109 124.468 373.61V373.61ZM104.551 373.461C104.207 373.775 104.325 373.47 104.551 373.461V373.461ZM111.034 368.808C108.156 368.992 102.873 368.807 100.469 370.491C97.3323 372.69 98.9831 380.259 99.2641 383.577C99.6782 388.481 101.78 389.878 105.984 390.393C111.003 391.007 116.158 391.122 121.202 390.976C125.745 390.845 128.332 389.129 129.164 383.875C129.419 382.268 130.065 379.781 130.045 378.24C130.031 377.173 129.547 376.686 129.364 375.778C128.32 370.607 126.575 369.994 121.751 369.768C118.2 369.602 114.519 368.608 111.034 368.808Z" fill="#89C5CC"/>
</g>
<g opacity="0.5">
<path fill-rule="evenodd" clip-rule="evenodd" d="M263.496 250.017C270.814 250.188 279.116 254.638 277.958 264.062C277.111 270.966 271.669 276.571 265.367 277.054C258.593 277.573 251.431 271.863 250.511 264.286C249.475 255.765 256.34 249.847 263.496 250.017ZM259.907 246.181C256.94 246.667 254.105 248.379 251.493 249.911C250.496 250.497 245.441 254.066 249.406 254.952C239.853 271.876 262.335 287.597 274.976 276.597C280.653 271.658 283.641 262.293 279.971 254.962C276.177 247.38 267.177 244.981 259.907 246.181Z" fill="#89C5CC"/>
<path fill-rule="evenodd" clip-rule="evenodd" d="M258.158 260.586C258.158 263.747 262.624 263.747 262.624 260.586C262.624 257.425 258.158 257.425 258.158 260.586Z" fill="#89C5CC"/>
<path fill-rule="evenodd" clip-rule="evenodd" d="M266.439 261.092C266.439 264.519 271.282 264.519 271.282 261.092C271.282 257.666 266.439 257.666 266.439 261.092Z" fill="#89C5CC"/>
<path fill-rule="evenodd" clip-rule="evenodd" d="M260.851 267.869C260.199 270.469 267.63 271.803 267.877 268.794C267.995 267.356 261.304 266.056 260.851 267.869Z" fill="#89C5CC"/>
<path fill-rule="evenodd" clip-rule="evenodd" d="M282.632 266.263C291.183 265.136 299.998 265.657 308.589 265.926C310.74 265.995 312.89 266.061 315.04 266.1C316.407 266.126 319.359 266.847 320.553 266.143C325.439 263.265 315.854 261.873 314.497 261.741C305.951 260.969 292.763 260.693 284.192 261.058C281.657 261.166 281.109 266.463 282.632 266.263Z" fill="#89C5CC"/>
<path fill-rule="evenodd" clip-rule="evenodd" d="M321.107 312.952C321.18 303.112 321.501 293.205 322.19 283.393C322.47 279.394 322.807 275.401 323.086 271.401C323.217 269.518 323.826 266.879 322.818 265.227C321.78 263.524 319.501 263.17 318.128 264.679C316.485 267.016 316.962 270.938 316.758 273.766C316.443 278.112 316.064 282.456 315.875 286.813C315.51 295.244 315.425 303.822 316.042 312.242C316.334 316.215 316.965 320.092 317.805 323.967C318.188 325.731 321.23 333.588 320.591 334.671C319.6 336.352 312.271 335.717 310.681 335.763C306.602 335.884 302.521 335.962 298.441 336.048C294.948 336.121 291.454 336.174 287.96 336.207C286.573 336.221 278.422 335.95 280.231 338.209C260.011 339.757 239.406 337.173 219.311 336.287C218.296 336.241 216.635 335.925 215.102 335.834C214.918 335.02 214.767 334.294 214.73 333.788C214.466 330.241 214.397 326.681 214.11 323.134C213.587 316.644 212.571 310.221 211.967 303.743C211.363 297.271 211.424 290.78 211.073 284.293C211.013 283.181 210.871 274.076 208.779 271.863C209.77 272.276 211.37 272.33 212.291 272.248C219.745 271.588 227.145 270.165 234.536 268.944C236.65 268.595 241.449 268.842 243.203 267.681C244.72 266.676 245.321 263.152 242.68 263.437C235.311 264.304 227.981 265.65 220.67 266.975C218.714 267.329 216.763 267.708 214.813 268.095C213.51 268.354 210.072 268.334 209.062 269.197C207.835 270.244 207.705 270.957 208.121 271.43C207.543 271.256 206.85 271.53 206.018 272.445C204.444 274.694 205.924 280.234 206.111 282.872C206.336 286.036 206.447 289.204 206.578 292.374C206.832 298.508 207.416 304.556 208.314 310.616C209.321 317.404 210.178 324.221 211.187 331.007C211.45 332.774 211.792 334.497 212.23 336.205C209.51 337.732 211.359 340.162 213.515 340.592C213.531 340.596 213.547 340.598 213.562 340.601C214.235 342.402 215.175 344.07 215.909 341.657C215.965 341.472 215.992 341.244 215.998 340.988C221.568 341.681 227.691 341.251 233.174 341.497C245.052 342.03 257.004 342.83 268.894 342.425C273.601 342.264 278.322 341.805 282.99 341.115C285.725 340.711 288.47 340.228 291.161 339.559C291.354 339.51 291.647 339.461 291.985 339.399C292.041 339.397 292.097 339.395 292.149 339.395C296.27 339.327 300.386 339.205 304.503 339.017C307.959 338.859 311.431 338.778 314.875 338.42C317.015 338.198 321.537 338.239 322.85 335.876C324.045 333.727 322.048 328.19 321.764 325.777C321.266 321.525 321.075 317.235 321.107 312.952Z" fill="#C1DEE2"/>
<path fill-rule="evenodd" clip-rule="evenodd" d="M279.35 284.538C276.057 284.848 273.013 286.546 269.69 286.567C266.901 286.584 264.155 285.669 261.351 285.805C258.061 285.962 256.251 288.299 253.37 289.081C251.076 289.703 249.631 287.773 247.613 286.92C245.066 285.843 243.183 286.4 241 288.029C239.395 289.226 235.653 291.914 235.683 294.336C235.769 301.674 243.562 291.538 245.132 291.415C247.22 291.252 249.552 293.866 251.773 294.014C254.709 294.212 256.591 292.132 259.295 291.375C262.029 290.609 264.985 291.547 267.727 291.839C270.854 292.171 273.591 291.405 276.617 290.586C279.549 289.791 282.047 289.833 285.027 290.5C287.037 290.95 292.047 293.569 292.927 290.202C294.124 285.616 281.651 284.323 279.35 284.538Z" fill="#89C5CC"/>
<path fill-rule="evenodd" clip-rule="evenodd" d="M280.352 298.532C273.606 299.251 266.818 299.882 260.041 300.084C257.105 300.172 245.822 298.789 246.822 302.887C247.68 306.4 263.035 304.188 266.163 303.92C269.616 303.626 273.064 303.214 276.5 302.736C277.717 302.567 280.657 302.742 281.517 301.621C282.336 300.55 281.932 298.359 280.352 298.532Z" fill="#89C5CC"/>
<path fill-rule="evenodd" clip-rule="evenodd" d="M233.811 317.191C233.658 317.262 233.658 317.262 233.811 317.191V317.191ZM235.234 317.169C236.916 317.111 236.556 316.137 238.233 316.645C239.007 316.879 239.087 316.532 239.687 317.344C240.857 318.929 239.755 322.38 238.601 323.658C234.329 328.387 229.202 317.38 235.234 317.169ZM235.234 312.529C223.539 312.961 228.432 332.807 238.612 328.755C242.815 327.083 245.458 319.546 242.985 315.31C241.783 313.249 240.249 312.883 238.233 312.74C237.766 312.707 237.177 313.453 236.885 313.42C236.191 313.339 236.256 312.487 235.234 312.529Z" fill="#89C5CC"/>
<path fill-rule="evenodd" clip-rule="evenodd" d="M263.203 317.871C262.994 317.8 266.895 319.046 266.469 318.558C267.38 319.599 266.154 322.06 265.124 322.489C262.628 323.53 261.229 319.267 263.203 317.871ZM264.934 312.489C261.272 313.059 258.446 314.734 257.945 319.208C257.483 323.337 260.023 327.518 264.028 327.599C272.761 327.774 273.026 311.249 264.934 312.489Z" fill="#89C5CC"/>
<path fill-rule="evenodd" clip-rule="evenodd" d="M304.796 318.052C305.307 325.384 298.386 318.672 304.796 318.052V318.052ZM301.826 310.208C301.22 311.344 301.736 312.55 302.65 313.211C294.486 315.106 296.335 328.602 304.642 326.608C308.867 325.593 309.644 320.714 309.014 316.684C308.715 314.768 304.368 305.432 301.826 310.208Z" fill="#89C5CC"/>
</g>
<path opacity="0.5" fill-rule="evenodd" clip-rule="evenodd" d="M321.14 317.249C318.707 317.724 312.954 320.677 313.003 323.848C313.081 328.798 317.971 323.391 319.059 322.664C324.902 318.758 332.47 323.819 338.554 324.897C341.343 325.39 346.8 326.302 349.264 324.249C353.645 320.597 343.512 321.512 342.221 321.364C335.207 320.569 328.228 315.858 321.14 317.249Z" fill="#C1DEE2"/>
<g opacity="0.5">
<path fill-rule="evenodd" clip-rule="evenodd" d="M436.094 282.446C436.092 287.51 435.858 292.68 436.709 297.684C436.966 299.2 437.169 302.101 438.623 302.887C440.085 303.677 441.502 302.79 441.865 301.144C442.289 299.23 441.36 296.364 441.266 294.354C441.137 291.608 441.128 288.859 441.127 286.11C441.126 284.124 441.72 280.93 439.586 279.909C438.001 279.149 436.094 280.562 436.094 282.446Z" fill="#C1DEE2"/>
<path fill-rule="evenodd" clip-rule="evenodd" d="M508.986 274.434C493.711 276.119 478.214 276.469 462.882 277.348C455.796 277.754 447.231 277.235 440.554 280.248C439.314 280.809 434.874 283.923 438.479 285.192C439.603 285.587 440.744 284.257 441.667 283.812C443.203 283.071 444.982 282.841 446.621 282.552C460.552 280.094 475.123 280.522 489.198 279.373C492.804 279.079 496.413 278.777 500.012 278.388C502.583 278.109 507.987 276.074 510.359 277.115C514.415 278.894 514.32 290.455 514.399 294.43C514.441 296.486 512.624 303.866 516.236 303.118C519.126 302.52 518.08 294.852 517.854 292.755C517.263 287.257 516.255 273.625 508.986 274.434Z" fill="#C1DEE2"/>
<path fill-rule="evenodd" clip-rule="evenodd" d="M514.62 302.852C501.351 304.168 487.776 302.876 474.452 303.394C467.468 303.666 460.492 304.098 453.507 304.352C450.486 304.461 447.462 304.466 444.44 304.49C442.994 304.501 436.416 305.463 440.485 308.611C442.287 310.005 448.03 308.882 450.097 308.855C453.203 308.815 456.306 308.673 459.41 308.539C466.598 308.231 473.782 307.803 480.974 307.589C487.853 307.384 494.737 307.341 501.616 307.136C505.039 307.034 508.509 306.919 511.901 306.37C512.667 306.246 515.153 306.147 515.685 305.21C516.188 304.323 515.835 302.723 514.62 302.852Z" fill="#89C5CC"/>
<path fill-rule="evenodd" clip-rule="evenodd" d="M449.405 291.908C449.334 292.094 449.334 292.094 449.405 291.908V291.908ZM455.151 289.989C455.36 290.087 455.36 290.087 455.151 289.989V289.989ZM454.882 289.936C457.978 293.403 453.217 297.542 450.316 294.159C447.237 290.567 452.889 289.948 454.882 289.936ZM451.597 284.691C440.932 286.776 444.707 302.391 454.67 300.134C459.044 299.144 461.545 294.304 460.039 289.655C459.451 287.838 458.169 285.844 456.384 285.273C455.494 284.987 454.707 285.436 453.859 285.331C453.05 285.231 452.601 284.492 451.597 284.691Z" fill="#C1DEE2"/>
<path fill-rule="evenodd" clip-rule="evenodd" d="M492.418 289.086C485.987 289.109 479.554 289.408 473.122 289.543C471.15 289.583 466.08 288.614 466.073 292.03C466.064 295.68 471.711 294.332 473.59 294.283C479.969 294.115 486.365 293.808 492.718 293.141C494.323 292.973 499.879 293.263 499.874 290.866C499.867 288.325 493.714 289.086 492.418 289.086Z" fill="#C1DEE2"/>
<path fill-rule="evenodd" clip-rule="evenodd" d="M507.781 312.909C491.873 313.379 475.99 313.542 460.095 314.436C454.15 314.771 448.212 315.02 442.258 315.02C441.112 315.02 438.802 314.532 437.723 315.325C434.794 317.476 438.129 319.324 440.038 319.44C453.096 320.235 466.343 318.254 479.393 317.807C487.033 317.546 494.674 317.468 502.309 317.041C504.392 316.925 506.476 316.789 508.556 316.612C509.752 316.51 512.914 316.789 513.881 316.021C518.102 312.665 509.204 312.867 507.781 312.909Z" fill="#89C5CC"/>
<path fill-rule="evenodd" clip-rule="evenodd" d="M434.794 321.454C434.644 325.984 434.629 330.436 435.169 334.942C435.381 336.714 435.478 338.726 437.37 339.177C439.088 339.585 439.96 338.158 440.315 336.576C441.184 332.711 440.42 327.148 440.41 323.134C440.405 321.148 440.403 318.926 438.17 318.477C436.466 318.135 434.859 319.487 434.794 321.454Z" fill="#89C5CC"/>
<path fill-rule="evenodd" clip-rule="evenodd" d="M524.643 332.376C498.892 333.867 473.175 335.168 447.407 336.364C445.397 336.458 429.785 336.271 435.243 342.251C436.928 344.099 441.272 342.847 443.452 342.73C446.728 342.553 450.006 342.418 453.283 342.235C466.272 341.508 479.295 341.313 492.275 340.498C499.418 340.049 506.544 339.347 513.65 338.434C517.03 337.999 521.226 338.044 524.391 336.589C526.02 335.841 527.777 332.193 524.643 332.376Z" fill="#89C5CC"/>
<path fill-rule="evenodd" clip-rule="evenodd" d="M509.836 309.394C507.878 311.537 508.885 315.763 509.033 318.411C509.236 322.055 509.482 325.701 509.897 329.325C510.166 331.679 510.023 335.343 511.167 337.376C512.506 339.758 515.453 339.494 516.664 337.194C517.735 335.159 517.192 330.878 517.165 328.623C517.127 325.505 516.95 322.382 516.782 319.27C516.64 316.67 517.177 312.502 515.875 310.276C514.551 308.014 511.672 307.389 509.836 309.394Z" fill="#89C5CC"/>
<path fill-rule="evenodd" clip-rule="evenodd" d="M450.979 326.02C450.749 326.215 450.749 326.215 450.979 326.02V326.02ZM455.552 325.39C459.82 326.333 452.919 331.807 450.738 328.05C450.398 327.463 450.22 326.742 450.768 326.232C451.266 325.766 451.58 326.59 452.051 326.369C452.863 325.987 454.686 325.355 455.552 325.39ZM454.963 320.897C452.05 321.15 448.044 321.348 446.602 324.556C444.664 328.866 447.978 333.086 451.811 333.741C455.5 334.373 461.007 332.129 461.303 327.403C461.541 323.592 458.241 320.605 454.963 320.897Z" fill="#89C5CC"/>
<path fill-rule="evenodd" clip-rule="evenodd" d="M479.289 323.176C476.273 323.229 470.344 322.25 467.716 323.864C465.116 325.463 466.275 328.308 468.647 328.989C470.215 329.438 472.778 328.713 474.41 328.64C476.558 328.543 478.707 328.523 480.856 328.49C484.469 328.436 488.081 328.482 491.696 328.482C495.386 328.482 499.141 328.593 502.825 328.295C507.488 327.917 507.362 324.083 502.802 323.604C495.057 322.789 487.06 323.042 479.289 323.176Z" fill="#89C5CC"/>
<path fill-rule="evenodd" clip-rule="evenodd" d="M471.585 366.124C471.585 367.946 473.056 366.124 473.045 366.124C473.056 366.124 471.585 364.302 471.585 366.124Z" fill="#89C5CC"/>
<path fill-rule="evenodd" clip-rule="evenodd" d="M438.295 351.458C438.39 356.754 438.453 362.055 438.658 367.347C438.724 369.02 438.287 372.287 440.133 373.14C442.189 374.09 442.828 371.723 443.065 370.119C443.814 365.038 443.079 359.237 443.007 354.095C442.983 352.369 443.323 349.966 441.538 349.106C440.082 348.403 438.266 349.707 438.295 351.458Z" fill="#89C5CC"/>
<path fill-rule="evenodd" clip-rule="evenodd" d="M517.579 351.541C517.701 351.857 517.701 351.857 517.579 351.541V351.541ZM517.751 351.487C517.85 351.533 518.249 351.717 517.751 351.487V351.487ZM478.803 347.207C471.403 347.334 463.996 347.431 456.6 347.778C453.443 347.927 450.25 348.048 447.104 348.374C444.876 348.606 439.341 348.702 437.896 350.702C434.913 354.831 441.237 353.705 442.6 353.369C445.079 352.759 447.609 352.564 450.142 352.417C455.636 352.098 461.134 351.929 466.636 351.807C481.557 351.477 496.488 351.527 511.411 351.453C512.856 351.446 515.468 350.808 516.802 351.45C518.139 352.093 518.064 353.675 518.202 355.512C518.387 357.956 516.919 362.613 518.038 364.669C519.772 367.858 522.294 365.15 522.68 362.825C523.212 359.613 522.368 355.756 521.541 352.685C520.375 348.354 518.756 348.182 514.942 347.843C510.485 347.447 506.045 347.208 501.573 347.162C493.985 347.085 486.392 347.077 478.803 347.207Z" fill="#89C5CC"/>
<path fill-rule="evenodd" clip-rule="evenodd" d="M508.077 369.098C492.024 371.146 475.514 369.939 459.375 370.012C455.451 370.03 451.523 370.064 447.602 370.273C445.531 370.383 440.622 369.756 439.204 371.511C436.213 375.21 441.6 375.748 443.567 375.596C447.543 375.284 451.529 375.143 455.516 375.109C469.557 374.99 483.679 375.71 497.709 374.949C503.587 374.63 509.334 373.525 515.103 372.291C516.381 372.018 525.131 370.19 520.142 368C517.193 366.706 511.174 368.701 508.077 369.098Z" fill="#89C5CC"/>
<path fill-rule="evenodd" clip-rule="evenodd" d="M461.206 362.326C461.094 362.484 461.094 362.484 461.206 362.326V362.326ZM461.098 362.299C461.06 362.412 460.942 362.692 461.098 362.299V362.299ZM460.086 360.864C460.109 360.897 460.205 361.032 460.086 360.864V360.864ZM460.047 360.854C460.433 361.36 460.694 361.926 460.828 362.549C457.502 363.539 456.22 360.583 460.047 360.854ZM459.836 360.715C459.838 360.716 460.306 360.932 459.836 360.715V360.715ZM454.373 356.312C452.22 359.256 450.443 362.687 453.127 366.051C455.527 369.059 460.354 369.447 463.4 367.439C466.537 365.371 466.266 361.015 464.078 358.172C462.669 356.342 461.527 356.393 459.482 356.094C458.091 355.89 455.554 354.701 454.373 356.312Z" fill="#89C5CC"/>
<path fill-rule="evenodd" clip-rule="evenodd" d="M476.625 361.762C476.625 365.683 492.038 363.995 494.78 363.991C497.077 363.987 510.966 365.379 509.969 361.344C509.149 358.028 495.469 359.676 492.556 359.671C490.038 359.668 476.625 357.769 476.625 361.762Z" fill="#89C5CC"/>
</g>
<g opacity="0.5">
<path fill-rule="evenodd" clip-rule="evenodd" d="M275.407 398.5C283.126 399.731 291.155 403.719 291.087 413.589C291.031 421.887 284.695 430.718 276.559 430.222C269.238 429.777 262.343 420.981 261.426 413.444C260.951 409.539 261.84 405.335 263.931 402.122C266.671 397.914 271.018 397.92 275.407 398.5ZM271.761 393.135C266.177 393.168 262.093 395.387 258.638 400.07C257.399 401.748 255.957 403.556 255.014 405.458C254.133 407.235 254.287 411.753 257.311 409.634C256.566 418.381 261.22 426.87 267.909 431.353C275.181 436.225 283.4 435.275 289.452 428.446C294.992 422.195 296.941 411.636 292.889 403.905C288.838 396.179 279.453 393.052 271.761 393.135Z" fill="#89C5CC"/>
<path fill-rule="evenodd" clip-rule="evenodd" d="M288.501 390.791C284.927 393.669 281.663 397.458 278.953 401.302C276.303 405.058 274.552 409.749 271.369 413.025C269.762 411.102 267.879 405.908 264.672 407.969C262.011 409.678 263.724 412.618 265.02 414.55C268.367 419.535 272.082 421.542 276.374 416.615C280.272 412.142 282.485 406.175 286.129 401.444C287.727 399.368 290.198 397.308 291.47 395.016C292.624 392.939 291.197 388.615 288.501 390.791Z" fill="#89C5CC"/>
</g>
<g opacity="0.5">
<path fill-rule="evenodd" clip-rule="evenodd" d="M423.579 78.7242C423.585 79.1167 423.59 79.4851 423.597 79.8249C423.765 87.232 423.668 95.0191 423.12 102.409C422.931 104.961 421.241 108.195 419.313 104.677C418.465 103.131 418.585 99.9553 418.672 97.6192C418.695 96.9921 418.716 96.4266 418.716 95.9681C418.715 93.3618 418.839 90.7286 418.964 88.0874C419.208 82.9255 419.454 77.7359 418.758 72.6659C418.745 72.5633 418.731 72.4652 418.719 72.3697C418.416 70.1406 418.396 69.9863 416.163 70.0372C415.233 70.0586 414.302 70.0862 413.372 70.1139C412.457 70.1406 411.542 70.1683 410.627 70.1888C409.717 70.2102 408.809 70.229 407.9 70.2486C405.05 70.3083 402.2 70.369 399.35 70.4832C398.875 70.5028 397.988 70.625 396.869 70.7793C394.63 71.087 391.463 71.5241 388.798 71.5214C388.799 71.5339 388.8 71.5464 388.801 71.5589C388.802 71.5821 388.804 71.6044 388.804 71.6276C388.834 73.2439 388.455 75.0475 388.074 76.86C387.756 78.3781 387.436 79.9025 387.354 81.3262C387.158 84.7148 387.156 88.1392 387.154 91.5644C387.151 95.7344 387.148 99.9045 386.797 104.009C386.78 104.21 386.769 104.422 386.759 104.636C386.758 104.664 386.756 104.693 386.754 104.721C386.875 104.701 386.992 104.686 387.105 104.678C389.027 104.545 390.963 104.533 392.897 104.521C393.964 104.514 395.03 104.508 396.091 104.48C397.998 104.432 399.928 104.435 401.865 104.437C406.142 104.442 410.457 104.447 414.641 103.906C415.877 103.73 416.309 105.47 415.754 106.373C415.258 107.181 413.891 107.312 412.891 107.408C412.637 107.433 412.406 107.454 412.219 107.485C409.521 107.923 406.787 108.077 404.064 108.21C401.205 108.349 398.343 108.452 395.482 108.54C394.801 108.561 393.892 108.662 392.884 108.774C390.223 109.069 386.874 109.441 385.212 108.615C383.424 107.726 383.467 106.741 384.196 105.977C383.876 105.204 383.826 104.075 383.786 103.192C383.771 102.855 383.757 102.554 383.731 102.322C383.335 98.8064 383.096 95.3357 383.09 91.7901C383.078 84.8451 383.091 77.6315 384.841 70.9086C384.14 70.5715 383.718 70.0746 383.719 69.3593C383.727 65.7521 393.946 65.9358 398.805 66.0232C399.674 66.0384 400.37 66.0509 400.807 66.0384C404.346 65.9367 407.886 65.9233 411.425 65.9447C412.173 65.9492 413.005 65.8948 413.868 65.8395C415.702 65.7208 417.673 65.5942 419.257 65.9982C423.419 67.0597 423.519 74.3419 423.579 78.7242Z" fill="#89C5CC"/>
<path fill-rule="evenodd" clip-rule="evenodd" d="M449.613 66.7885C453.477 66.5638 457.344 66.5129 461.213 66.4969C465.31 66.4746 469.412 66.5548 473.507 66.6931L473.602 66.6967C475.416 66.7564 485.502 67.0891 480.868 69.8498C480.599 70.0113 480.294 70.1451 479.962 70.2575C480.158 71.5357 480.182 72.8549 480.15 73.4909C480.031 75.902 479.952 78.3166 479.873 80.7303C479.82 82.3662 479.766 84.0021 479.7 85.6371C479.518 90.1542 479.344 94.6721 479.203 99.1918C479.185 99.7466 479.212 100.472 479.242 101.281C479.34 103.954 479.472 107.537 478.15 108.862C476.99 110.024 476.197 109.791 475.663 109.001C472.344 110.061 465.526 109.716 462.098 109.543C461.272 109.501 460.643 109.469 460.307 109.469C459.706 109.47 458.589 109.552 457.179 109.657C451.309 110.089 440.351 110.898 440.329 107.719C440.327 107.413 440.417 107.139 440.587 106.893C440.122 106.372 439.704 105.607 439.435 104.652C438.47 101.223 438.379 97.5238 438.308 93.9683C438.206 88.9482 438.206 83.9218 438.205 78.8973C438.204 76.3159 438.203 73.7353 438.189 71.1566C437.562 70.2307 437.934 69.1719 438.717 68.4334C440.384 66.8617 444.522 66.843 447.515 66.8287C448.321 66.8251 449.044 66.8215 449.613 66.7885ZM443.325 105.499C447.049 104.626 453.325 104.907 456.687 105.057C457.568 105.097 458.249 105.127 458.632 105.125C462.066 105.111 465.501 105.164 468.932 105.314C469.288 105.33 469.814 105.315 470.435 105.297C471.681 105.264 473.305 105.218 474.685 105.387C474.666 105.181 474.654 104.993 474.646 104.831C474.491 101.475 474.603 98.0911 474.714 94.7256C474.737 94.0102 474.761 93.2957 474.782 92.583C474.856 90.0667 474.953 87.5513 475.052 85.0368V85.035C475.113 83.4518 475.174 81.8685 475.23 80.2852C475.255 79.5903 475.218 78.6457 475.178 77.5843C475.095 75.4239 474.992 72.7747 475.345 70.7391C474.074 70.7133 472.772 70.6143 471.578 70.5233C470.428 70.4359 469.377 70.3565 468.551 70.3556C467.504 70.3556 466.457 70.352 465.41 70.3485C462.508 70.3387 459.607 70.3288 456.705 70.3922C456.43 70.3984 456.155 70.4038 455.879 70.41C451.884 70.4948 447.855 70.5804 443.893 71.1584C443.661 71.1923 443.382 71.2574 443.073 71.3368C443.507 73.3313 443.294 76.1419 443.109 78.6029C443.018 79.7982 442.933 80.9114 442.932 81.8087C442.927 87.389 443.061 92.947 443.195 98.4996V98.5005C443.246 100.601 443.296 102.7 443.339 104.8C443.345 105.05 443.339 105.283 443.325 105.499Z" fill="#89C5CC"/>
<path fill-rule="evenodd" clip-rule="evenodd" d="M400.932 108.378C398.392 110.008 399.762 116.527 400.642 118.781C402.088 122.489 405.023 125.39 408.189 127.314C414.59 131.203 423.816 130.17 428.656 136.914C428.707 136.983 430.379 138.803 430.76 136.446C431.073 134.513 427.95 131.559 426.739 130.59C423.297 127.833 418.883 126.945 414.902 125.568C410.656 124.099 405.996 121.392 404.215 116.584C403.585 114.881 404.787 105.893 400.932 108.378Z" fill="#C1DEE2"/>
<path fill-rule="evenodd" clip-rule="evenodd" d="M458.987 111.513C456.66 112.217 458.199 115.735 458.195 117.496C458.191 119.694 457.551 121.993 456.319 123.747C453.192 128.194 447.07 128.86 442.481 130.135C439.148 131.061 431.175 133.048 430.863 137.999C430.515 143.528 437.554 136.8 438.149 136.524C444.728 133.873 453.239 133.361 458.318 127.526C460.414 125.116 461.653 121.902 461.85 118.583C461.96 116.715 461.98 110.614 458.987 111.513Z" fill="#C1DEE2"/>
<path fill-rule="evenodd" clip-rule="evenodd" d="M410.9 160.553C410.846 150.324 419.758 144.135 427.817 141.808C437.503 139.005 446.526 146.46 447.668 157.185C448.873 168.504 441.108 177.615 430.866 178.115C421.858 178.554 410.958 171.469 410.9 160.553ZM432.537 146.727C433.062 147.509 433.535 148.758 432.479 149.437C431.464 150.088 430.957 149.306 430.447 148.519C430.123 148.023 429.8 147.524 429.345 147.383C428.168 147.019 426.276 148.379 425.295 149.172C424.897 149.494 424.33 150.188 423.668 150.998C421.56 153.577 418.482 157.343 416.78 154.102C409.995 166.973 426.912 176.605 436.53 171.734C447.095 166.385 445.038 146.828 432.537 146.727Z" fill="#89C5CC"/>
<path fill-rule="evenodd" clip-rule="evenodd" d="M423.672 157.129C423.672 159.477 427.047 159.477 427.047 157.129C427.047 154.807 423.672 154.708 423.672 157.129Z" fill="#89C5CC"/>
<path fill-rule="evenodd" clip-rule="evenodd" d="M429.611 156.688C429.611 159.564 433.747 159.564 433.747 156.688C433.747 153.845 429.611 153.723 429.611 156.688Z" fill="#89C5CC"/>
<path fill-rule="evenodd" clip-rule="evenodd" d="M425.361 163.39C421.978 165.576 431.653 169.919 432.034 165.48C432.199 163.565 430.511 164.082 429.385 163.942C428.309 163.806 426.383 162.737 425.361 163.39Z" fill="#89C5CC"/>
<path fill-rule="evenodd" clip-rule="evenodd" d="M423.894 178.897C424.041 184.48 423.97 190.06 424.934 195.565C425.118 196.61 425.244 200.403 425.997 201.18C427.848 203.09 427.878 199.429 427.95 198.025C428.206 192.998 427.726 187.815 427.62 182.778C427.597 181.693 427.859 179.448 427.393 178.398C426.654 176.733 423.822 176.238 423.894 178.897Z" fill="#C1DEE2"/>
<path fill-rule="evenodd" clip-rule="evenodd" d="M420.275 174.37C412.859 183.514 402.646 182.841 392.358 183.642C386.922 184.064 381.426 184.933 377.052 188.796C375.017 190.593 373.263 192.843 372.084 195.408C371.569 196.529 369.125 202.999 372.795 201.464C374.097 200.919 375.379 196.641 376.22 195.376C377.824 192.966 379.876 190.976 382.337 189.682C387.085 187.187 392.754 187.23 397.902 186.913C403.284 186.582 409.06 186.273 414.006 183.702C416.334 182.493 418.516 180.985 420.39 179.042C421.059 178.347 422.494 177.167 422.601 176.104C422.723 174.89 421.66 172.667 420.275 174.37Z" fill="#C1DEE2"/>
<path fill-rule="evenodd" clip-rule="evenodd" d="M382.836 202.435C375.87 202.691 368.912 203 361.955 203.485C360.53 203.584 355.777 203.267 356.987 206.477C357.958 209.048 363.755 207.347 365.672 207.222C372.921 206.749 380.2 206.585 387.434 205.869C389.059 205.709 396.404 205.772 393.371 202.609C391.928 201.103 384.83 202.361 382.836 202.435Z" fill="#89C5CC"/>
<path fill-rule="evenodd" clip-rule="evenodd" d="M352.564 206.126C350.368 209.294 351.377 216.994 351.543 220.802C351.704 224.493 351.051 231.241 355.437 231.813C354.044 231.612 356.494 231.906 356.892 231.929C357.782 231.982 358.677 231.999 359.569 232.009C361.629 232.034 363.69 232.004 365.749 231.959C370.414 231.857 375.091 231.707 379.751 231.424C381.709 231.305 392.334 231.405 392.754 229.169C393.292 226.313 383.105 227.929 381.281 228.02C376.841 228.244 372.392 228.292 367.947 228.355C365.744 228.387 363.539 228.411 361.336 228.364C360.426 228.344 356.823 228.755 356.27 228.087C355.799 227.52 356.167 222.302 356.157 221.504C356.124 218.902 356.127 216.294 356.211 213.693C356.268 211.942 357.13 208.611 356.427 206.966C355.744 205.367 353.754 204.821 352.564 206.126Z" fill="#89C5CC"/>
<path fill-rule="evenodd" clip-rule="evenodd" d="M388.436 206.274C388.563 212.07 388.602 217.982 389.848 223.651C390.263 225.537 390.844 229.427 392.57 230.403C394.379 231.428 395.943 229.965 396.061 227.994C396.211 225.517 395.002 222.264 394.755 219.722C394.466 216.756 394.297 213.787 394.198 210.806C394.124 208.565 394.744 205.204 392.798 203.759C391.051 202.46 388.379 203.768 388.436 206.274Z" fill="#89C5CC"/>
<path fill-rule="evenodd" clip-rule="evenodd" d="M402.299 204.86C400.133 207.23 401.101 214.736 401.372 217.783C401.57 220.013 403.793 230.989 407.124 225.266C408.598 222.734 406.725 216.04 406.739 213.087C406.747 211.207 407.353 208.83 407.061 207.023C406.674 204.637 404.264 202.704 402.299 204.86Z" fill="#89C5CC"/>
<path fill-rule="evenodd" clip-rule="evenodd" d="M417.301 202.902C423.808 202.165 430.324 201.612 436.868 201.543C437.182 201.54 437.512 201.536 437.855 201.531C442.34 201.469 449.08 201.374 452.098 205.074C453.743 207.089 454.487 210.205 455.137 212.921C455.258 213.427 455.376 213.92 455.496 214.389C455.597 214.79 455.73 215.246 455.874 215.741C456.552 218.072 457.47 221.227 456.539 223.18C456.029 224.251 455.208 225.165 453.962 224.785C453.671 224.696 453.443 224.583 453.264 224.449C453.742 225.016 453.953 225.825 453.643 226.616C453.043 228.145 451.151 228.178 449.658 228.203C449.297 228.209 448.959 228.215 448.668 228.242C443.7 228.697 438.708 229 433.722 229.048C431.348 229.071 428.974 229.049 426.599 229.029C424.156 229.006 421.712 228.984 419.268 229.011C417.494 229.029 415.688 229.215 413.881 229.401C411.6 229.634 409.317 229.868 407.098 229.768C405.438 229.693 403.666 229.096 404.086 226.74C404.43 224.816 406.078 224.648 407.555 224.497C407.683 224.485 407.811 224.471 407.936 224.457C412.64 223.932 417.346 223.745 422.073 223.764C432.005 223.802 441.929 223.745 451.86 223.688C452.269 223.726 452.653 223.897 452.97 224.157C452.612 223.681 452.62 223.046 452.627 222.371C452.63 222.065 452.633 221.75 452.603 221.439C452.542 220.812 452.487 220.187 452.431 219.564C452.248 217.504 452.066 215.46 451.708 213.388C451.654 213.075 451.602 212.731 451.547 212.367C451.221 210.217 450.791 207.367 449.234 206.205C447.669 205.038 444.599 205.094 442.207 205.138C441.562 205.149 440.965 205.16 440.46 205.146C434.077 204.965 427.657 205.463 421.302 206.097C420.814 206.146 420.326 206.193 419.836 206.24C417.419 206.471 414.988 206.704 412.606 207.178C412.17 207.266 411.504 207.521 410.74 207.814C408.707 208.593 405.981 209.638 405.055 208.487C401.987 204.676 415.471 203.11 417.301 202.902Z" fill="#89C5CC"/>
<path fill-rule="evenodd" clip-rule="evenodd" d="M486.537 194.223C486.82 194.623 486.82 194.623 486.537 194.223V194.223ZM442.498 170.607C438.545 173.159 445.86 180.647 447.724 181.805C451.917 184.411 457.68 184.805 462.362 185.537C468.288 186.466 474.737 186.807 480.433 188.94C482.86 189.849 484.401 191.267 485.99 193.447C486.796 194.552 488.734 199.313 490.499 198.185C494.054 195.916 484.476 186.392 482.365 185.368C477.568 183.039 471.897 182.387 466.767 181.484C461.997 180.643 457.124 180.017 452.472 178.535C449.915 177.72 448.096 176.406 446.622 173.889C445.703 172.321 444.949 169.032 442.498 170.607Z" fill="#C1DEE2"/>
<path fill-rule="evenodd" clip-rule="evenodd" d="M503.089 199.859C498.532 199.97 493.984 200.356 489.436 200.74C486.885 200.956 484.335 201.172 481.783 201.339C480.985 201.392 480.186 201.439 479.387 201.487C477.138 201.62 474.888 201.752 472.65 202.001C472.311 202.039 471.917 202.074 471.488 202.113C469.587 202.284 466.997 202.518 465.341 203.279C463.824 202.018 461.481 203.09 461.445 205.338C461.382 209.432 461.416 213.454 461.871 217.524C461.976 218.468 462.52 223.25 463.702 225.74C463.281 228.091 465.106 228.749 466.804 228.929C473.381 229.627 480.278 229.086 487.082 228.552C490.542 228.28 493.978 228.011 497.336 227.906C498.452 227.872 499.583 227.858 500.721 227.844C504.434 227.798 508.218 227.752 511.812 226.98C511.956 226.949 512.111 226.919 512.274 226.887C513.695 226.608 515.654 226.221 515.803 224.503C515.893 223.472 515.363 222.529 514.477 222.396C514.538 221.537 514.44 220.599 514.368 219.911C514.351 219.75 514.335 219.603 514.324 219.474C514.108 217.085 513.566 214.711 513.031 212.368C512.911 211.841 512.792 211.315 512.676 210.793C512.547 210.213 512.429 209.523 512.3 208.779C511.849 206.154 511.28 202.857 509.771 201.325C508.187 199.72 505.609 199.79 503.543 199.847C503.389 199.852 503.237 199.856 503.089 199.859ZM511.108 222.653C510.568 221.099 510.409 218.998 510.259 217.001C510.165 215.748 510.073 214.535 509.893 213.524C509.756 212.766 509.645 211.967 509.532 211.154C509.258 209.18 508.973 207.129 508.298 205.4C507.395 203.083 506.591 203.172 504.689 203.381C504.336 203.42 503.944 203.463 503.507 203.496C501.569 203.641 499.632 203.824 497.696 204.009C496.767 204.097 495.838 204.186 494.909 204.27C490.934 204.628 486.956 204.905 482.978 205.18C480.654 205.342 478.329 205.502 476.005 205.681C474.181 205.82 472.4 206.201 470.628 206.58C469.224 206.88 467.824 207.18 466.411 207.358C466.391 207.888 466.35 208.421 466.311 208.928C466.258 209.62 466.209 210.264 466.22 210.791C466.266 213.13 466.454 215.453 466.642 217.781C466.671 218.139 466.7 218.497 466.728 218.855C466.762 219.284 466.847 219.836 466.94 220.448C467.084 221.394 467.25 222.484 467.287 223.487C467.459 223.487 467.63 223.487 467.799 223.487C468.016 223.488 468.23 223.489 468.435 223.486C473.444 223.389 478.449 223.223 483.455 223.011C484.094 222.984 484.733 222.957 485.372 222.93C489.838 222.739 494.304 222.547 498.775 222.491C500.551 222.469 502.349 222.53 504.154 222.592C506.476 222.67 508.806 222.75 511.108 222.653Z" fill="#89C5CC"/>
</g>
</svg>
