<svg width="380" height="371" viewBox="0 0 380 371" fill="none" xmlns="http://www.w3.org/2000/svg">
<path d="M157.89 304.413H160.664V312.777C160.664 314.628 161.69 315.59 163.476 315.59C165.262 315.59 166.288 314.628 166.288 312.777V304.413H169.1V312.74C169.1 316.294 166.478 318.033 163.438 318.033C160.398 318.033 157.89 316.294 157.89 312.74V304.413Z" fill="#78797A"/>
<path d="M173.774 304.413H176.548V317.922H173.774V304.413Z" fill="#78797A"/>
<path d="M186.01 299.602H188.746L183.388 321.401H180.652L186.01 299.602Z" fill="#78797A"/>
<path d="M192.85 304.413H195.624V312.777C195.624 314.628 196.65 315.59 198.436 315.59C200.222 315.59 201.248 314.628 201.248 312.777V304.413H204.06V312.74C204.06 316.294 201.438 318.033 198.398 318.033C195.358 318.033 192.85 316.294 192.85 312.74V304.413Z" fill="#78797A"/>
<path d="M214.016 313.37L211.28 317.922H208.126L212.496 311.112L208.088 304.413H211.28L214.282 308.928L216.98 304.413H220.134L215.802 311.186L220.21 317.885H217.018L214.016 313.37Z" fill="#78797A"/>
<path d="M345.724 246.602H36.366C34.466 246.602 32.946 245.122 32.946 243.271C32.946 241.421 34.466 239.94 36.366 239.94H345.762C347.662 239.94 349.182 241.421 349.182 243.271C349.144 245.122 347.624 246.602 345.724 246.602Z" fill="#444E59"/>
<path d="M208.316 239.755H154.812V242.864H208.316V239.755Z" fill="#444E59"/>
<path d="M245.48 219.436H119.244C116.736 219.436 114.684 217.438 114.684 214.995V132.646C114.684 130.204 116.736 128.205 119.244 128.205H245.48C247.988 128.205 250.04 130.204 250.04 132.646V214.958C250.04 217.438 248.026 219.436 245.48 219.436Z" fill="#BBBFC2"/>
<path d="M242.017 203.81V136.562H123.229V203.81H242.017Z" fill="#28A8E0"/>
<path opacity="0.4" d="M245.784 219.436H225.986V184.35C225.986 181.537 228.304 179.28 231.192 179.28H245.784V219.436Z" fill="#848484"/>
<path opacity="0.4" d="M124.298 185.535H114.684V213.182C114.684 216.624 117.724 219.436 121.296 219.436H132.354V193.529C132.316 189.199 128.706 185.535 124.298 185.535Z" fill="#848484"/>
<path d="M245.86 219.436H119.396C116.888 219.436 114.836 217.438 114.836 214.995V132.646C114.836 130.204 116.888 128.205 119.396 128.205H245.86C248.368 128.205 250.42 130.204 250.42 132.646V214.958C250.42 217.438 248.368 219.436 245.86 219.436Z" stroke="#444E59" stroke-width="4" stroke-miterlimit="10" stroke-linecap="round" stroke-linejoin="round"/>
<path d="M241.864 203.809V136.561H123.418V203.809H241.864Z" stroke="#444E59" stroke-width="4" stroke-miterlimit="10" stroke-linecap="round" stroke-linejoin="round"/>
<path opacity="0.32" d="M218.842 200.561H153.558C152.076 200.561 150.898 199.377 150.898 197.97V152.595C150.898 151.152 152.114 150.004 153.558 150.004H218.842C220.324 150.004 221.502 151.189 221.502 152.595V197.933C221.502 199.377 220.324 200.561 218.842 200.561Z" fill="#848484"/>
<path d="M215.802 198.044H150.518C149.036 198.044 147.858 196.86 147.858 195.454V150.116C147.858 148.672 149.074 147.525 150.518 147.525H215.802C217.284 147.525 218.462 148.709 218.462 150.116V195.454C218.5 196.897 217.284 198.044 215.802 198.044Z" fill="#AFB1B2"/>
<path d="M215.802 198.044H150.518C149.036 198.044 147.858 196.86 147.858 195.454V150.116C147.858 148.672 149.074 147.525 150.518 147.525H215.802C217.284 147.525 218.462 148.709 218.462 150.116V195.454C218.5 196.897 217.284 198.044 215.802 198.044Z" stroke="#444E59" stroke-width="4" stroke-miterlimit="10" stroke-linecap="round" stroke-linejoin="round"/>
<path d="M198.55 239.755H166.706L170.658 219.437H194.598L198.55 239.755Z" fill="#AEAEAF"/>
<path opacity="0.32" d="M195.662 225.173L194.598 219.437H170.658L169.594 225.173H195.662Z" fill="#848484"/>
<path d="M198.55 239.755H166.706L170.658 219.437H194.598L198.55 239.755Z" stroke="#444E59" stroke-width="4" stroke-miterlimit="10" stroke-linecap="round" stroke-linejoin="round"/>
<path d="M208.316 239.755H154.812V242.864H208.316V239.755Z" stroke="#444E59" stroke-width="4" stroke-miterlimit="10" stroke-linecap="round" stroke-linejoin="round"/>
<path d="M182.438 212.404C183.739 212.404 184.794 211.377 184.794 210.11C184.794 208.842 183.739 207.815 182.438 207.815C181.137 207.815 180.082 208.842 180.082 210.11C180.082 211.377 181.137 212.404 182.438 212.404Z" fill="#444E59"/>
<path d="M210.444 193.381H145.16C143.678 193.381 142.5 192.196 142.5 190.79V145.415C142.5 143.972 143.716 142.824 145.16 142.824H210.444C211.926 142.824 213.104 144.009 213.104 145.415V190.753C213.142 192.196 211.926 193.381 210.444 193.381Z" fill="white"/>
<path d="M210.444 193.381H145.16C143.678 193.381 142.5 192.196 142.5 190.79V145.415C142.5 143.972 143.716 142.824 145.16 142.824H210.444C211.926 142.824 213.104 144.009 213.104 145.415V190.753C213.142 192.196 211.926 193.381 210.444 193.381Z" stroke="#444E59" stroke-width="4" stroke-miterlimit="10" stroke-linecap="round" stroke-linejoin="round"/>
<path d="M213.142 150.633H142.5V145.526C142.5 144.045 143.754 142.787 145.312 142.787H210.52C211.964 142.787 213.142 143.934 213.142 145.341V150.633Z" fill="#BBBFC2"/>
<path d="M213.142 150.633H142.5V145.526C142.5 144.045 143.754 142.787 145.312 142.787H210.52C211.964 142.787 213.142 143.934 213.142 145.341V150.633Z" stroke="#444E59" stroke-width="4" stroke-miterlimit="10" stroke-linecap="round" stroke-linejoin="round"/>
<path d="M149.302 147.969C149.995 147.969 150.556 147.422 150.556 146.747C150.556 146.073 149.995 145.526 149.302 145.526C148.61 145.526 148.048 146.073 148.048 146.747C148.048 147.422 148.61 147.969 149.302 147.969Z" fill="#444E59"/>
<path d="M153.444 147.969C154.137 147.969 154.698 147.422 154.698 146.747C154.698 146.073 154.137 145.526 153.444 145.526C152.752 145.526 152.19 146.073 152.19 146.747C152.19 147.422 152.752 147.969 153.444 147.969Z" fill="#444E59"/>
<path d="M157.548 147.969C158.241 147.969 158.802 147.422 158.802 146.747C158.802 146.073 158.241 145.526 157.548 145.526C156.856 145.526 156.294 146.073 156.294 146.747C156.294 147.422 156.856 147.969 157.548 147.969Z" fill="#444E59"/>
<path d="M206.492 164.18H148.618C148.2 164.18 147.858 163.847 147.858 163.439V155.556C147.858 155.149 148.2 154.816 148.618 154.816H206.492C206.91 154.816 207.252 155.149 207.252 155.556V163.439C207.252 163.847 206.91 164.18 206.492 164.18Z" fill="#6567C3"/>
<path opacity="0.2" d="M165.262 174.061H148.58C148.162 174.061 147.82 173.728 147.82 173.321V169.065C147.82 168.658 148.162 168.325 148.58 168.325H165.262C165.68 168.325 166.022 168.658 166.022 169.065V173.321C166.022 173.728 165.718 174.061 165.262 174.061Z" fill="#444E59"/>
<path opacity="0.2" d="M150.518 178.244H163.894" stroke="#444E59" stroke-width="4" stroke-miterlimit="10" stroke-linecap="round" stroke-linejoin="round"/>
<path opacity="0.2" d="M150.518 182.426H163.894" stroke="#444E59" stroke-width="4" stroke-miterlimit="10" stroke-linecap="round" stroke-linejoin="round"/>
<path opacity="0.2" d="M186.162 174.061H169.48C169.062 174.061 168.72 173.728 168.72 173.321V169.065C168.72 168.658 169.062 168.325 169.48 168.325H186.162C186.58 168.325 186.922 168.658 186.922 169.065V173.321C186.922 173.728 186.58 174.061 186.162 174.061Z" fill="#444E59"/>
<path opacity="0.2" d="M171.38 178.244H184.224" stroke="#444E59" stroke-width="4" stroke-miterlimit="10" stroke-linecap="round" stroke-linejoin="round"/>
<path opacity="0.2" d="M171.38 182.426H184.224" stroke="#444E59" stroke-width="4" stroke-miterlimit="10" stroke-linecap="round" stroke-linejoin="round"/>
<g opacity="0.2">
<path opacity="0.2" d="M207.024 182.944H190.342C189.924 182.944 189.582 182.611 189.582 182.204V169.102C189.582 168.695 189.924 168.362 190.342 168.362H207.024C207.442 168.362 207.784 168.695 207.784 169.102V182.204C207.784 182.611 207.442 182.944 207.024 182.944Z" fill="#444E59"/>
</g>
<g opacity="0.09">
<path opacity="0.09" d="M206.492 187.126H190.608C190 187.126 189.544 186.645 189.544 186.09C189.544 185.535 190.038 185.054 190.608 185.054H206.492C207.1 185.054 207.556 185.535 207.556 186.09C207.556 186.645 207.062 187.126 206.492 187.126Z" fill="#444E59"/>
</g>
<path d="M87.096 227.023H56.468C56.088 227.023 55.746 227.134 55.48 227.394L48.07 233.685C47.386 234.278 47.386 235.314 48.07 235.869L55.48 242.272C55.746 242.494 56.088 242.716 56.468 242.716H87.096C88.844 242.716 90.288 241.162 90.288 239.459V230.021C90.25 228.393 88.844 227.023 87.096 227.023ZM55.632 236.609C54.606 236.609 53.732 235.795 53.732 234.759C53.732 233.722 54.568 232.908 55.632 232.908C56.696 232.908 57.532 233.722 57.532 234.759C57.532 235.795 56.696 236.609 55.632 236.609Z" fill="white"/>
<path d="M72.428 227.023H63.498V242.753H72.428V227.023Z" fill="#F09F54"/>
<path d="M81.358 227.023H72.428V242.753H81.358V227.023Z" fill="#ED8B3B"/>
<path d="M86.298 242.753H81.358V227.023H86.45C88.54 227.023 90.288 228.689 90.288 230.762V238.904C90.25 241.013 88.464 242.753 86.298 242.753Z" fill="#FF6C37"/>
<path opacity="0.4" d="M87.932 227.801C87.78 227.764 87.628 227.764 87.476 227.764H56.848C56.468 227.764 56.126 227.875 55.86 228.134L48.45 234.426C47.766 235.018 47.766 236.054 48.45 236.609L53.086 240.569L58.102 241.791C58.33 241.865 58.596 241.865 58.862 241.865C59.356 241.865 59.812 241.754 60.268 241.532L87.552 227.986C87.666 227.949 87.818 227.875 87.932 227.801ZM56.012 237.349C54.986 237.349 54.112 236.535 54.112 235.499C54.112 234.463 54.948 233.648 56.012 233.648C57.076 233.648 57.912 234.463 57.912 235.499C57.912 236.535 57.076 237.349 56.012 237.349Z" fill="#848484"/>
<path d="M87.096 227.023H56.468C56.088 227.023 55.746 227.134 55.48 227.394L48.07 233.685C47.386 234.278 47.386 235.314 48.07 235.869L55.48 242.272C55.746 242.494 56.088 242.716 56.468 242.716H87.096C88.844 242.716 90.288 241.162 90.288 239.459V230.021C90.25 228.393 88.844 227.023 87.096 227.023ZM55.632 236.609C54.606 236.609 53.732 235.795 53.732 234.759C53.732 233.722 54.568 232.908 55.632 232.908C56.696 232.908 57.532 233.722 57.532 234.759C57.532 235.795 56.696 236.609 55.632 236.609Z" stroke="#444E59" stroke-width="4" stroke-miterlimit="10" stroke-linecap="round" stroke-linejoin="round"/>
<path d="M72.428 227.023H63.498V242.753H72.428V227.023Z" stroke="#444E59" stroke-width="4" stroke-miterlimit="10" stroke-linecap="round" stroke-linejoin="round"/>
<path d="M81.358 227.023H72.428V242.753H81.358V227.023Z" stroke="#444E59" stroke-width="4" stroke-miterlimit="10" stroke-linecap="round" stroke-linejoin="round"/>
<path d="M86.298 242.753H81.358V227.023H86.45C88.54 227.023 90.288 228.689 90.288 230.762V238.904C90.25 241.013 88.464 242.753 86.298 242.753Z" stroke="#444E59" stroke-width="4" stroke-miterlimit="10" stroke-linecap="round" stroke-linejoin="round"/>
<path d="M79.192 212.071L51.908 225.617C51.566 225.765 51.338 226.061 51.186 226.394L47.538 235.277C47.196 236.091 47.69 237.016 48.564 237.239L58.102 239.607C58.444 239.681 58.824 239.644 59.166 239.496L86.45 225.95C88.008 225.173 88.616 223.323 87.818 221.842L83.41 213.441C82.612 211.886 80.712 211.294 79.192 212.071Z" fill="white"/>
<path d="M74.0529 214.606L66.098 218.56L73.3518 232.406L81.3067 228.454L74.0529 214.606Z" fill="#8D91DB"/>
<path d="M79.192 212.071L51.908 225.617C51.566 225.765 51.338 226.061 51.186 226.394L47.538 235.277C47.196 236.091 47.69 237.016 48.564 237.239L58.102 239.607C58.444 239.681 58.824 239.644 59.166 239.496L86.45 225.95C88.008 225.173 88.616 223.323 87.818 221.842L83.41 213.441C82.612 211.886 80.712 211.294 79.192 212.071Z" stroke="#444E59" stroke-width="4" stroke-miterlimit="10" stroke-linecap="round" stroke-linejoin="round"/>
<path d="M54.796 235.055C56.0131 235.055 57 234.094 57 232.908C57 231.723 56.0131 230.762 54.796 230.762C53.5788 230.762 52.592 231.723 52.592 232.908C52.592 234.094 53.5788 235.055 54.796 235.055Z" fill="#444E59"/>
<path d="M66.0808 218.58L58.1259 222.533L65.3797 236.38L73.3347 232.426L66.0808 218.58Z" fill="#BECCD5" stroke="#444E59" stroke-width="4" stroke-miterlimit="10" stroke-linecap="round" stroke-linejoin="round"/>
<path d="M66.0808 218.58L58.1259 222.533L65.3797 236.38L73.3347 232.426L66.0808 218.58Z" stroke="#444E59" stroke-width="4" stroke-miterlimit="10" stroke-linecap="round" stroke-linejoin="round"/>
<path d="M74.0529 214.606L66.098 218.56L73.3518 232.406L81.3067 228.454L74.0529 214.606Z" stroke="#444E59" stroke-width="4" stroke-miterlimit="10" stroke-linecap="round" stroke-linejoin="round"/>
<path d="M85.842 226.21L81.282 228.467L74.024 214.625L78.584 212.368C80.446 211.442 82.726 212.145 83.714 213.996L87.514 221.25C88.464 223.064 87.704 225.284 85.842 226.21Z" fill="#6567C3"/>
<path d="M85.842 226.21L81.282 228.467L74.024 214.625L78.584 212.368C80.446 211.442 82.726 212.145 83.714 213.996L87.514 221.25C88.464 223.064 87.704 225.284 85.842 226.21Z" stroke="#444E59" stroke-width="4" stroke-miterlimit="10" stroke-linecap="round" stroke-linejoin="round"/>
<path d="M124.26 242.864H98.686C96.596 242.864 94.886 241.199 94.886 239.163V189.236C94.886 187.2 96.596 185.535 98.686 185.535H124.26C126.35 185.535 128.06 187.2 128.06 189.236V239.163C128.06 241.236 126.35 242.864 124.26 242.864Z" fill="white"/>
<path d="M128.592 202.745H94.886V189.162C94.886 187.163 96.558 185.535 98.61 185.535H124.64C126.806 185.535 128.554 187.274 128.554 189.347V202.745H128.592Z" fill="#6567C3"/>
<path d="M124.26 242.864H98.686C96.596 242.864 94.886 241.199 94.886 239.163V189.236C94.886 187.2 96.596 185.535 98.686 185.535H124.26C126.35 185.535 128.06 187.2 128.06 189.236V239.163C128.06 241.236 126.35 242.864 124.26 242.864Z" stroke="#444E59" stroke-width="4" stroke-miterlimit="10" stroke-linecap="round" stroke-linejoin="round"/>
<path d="M124.298 242.864H98.8C96.634 242.864 94.848 241.125 94.848 239.015V231.909H128.06V239.2C128.06 241.236 126.35 242.864 124.298 242.864Z" fill="#BBBFC2"/>
<path d="M124.374 242.864H98.8C96.634 242.864 94.848 241.125 94.848 239.015V231.909H128.06V239.274C128.06 241.273 126.388 242.864 124.374 242.864Z" stroke="#444E59" stroke-width="4" stroke-miterlimit="10" stroke-linecap="round" stroke-linejoin="round"/>
<path d="M111.72 239.015C112.77 239.015 113.62 238.186 113.62 237.164C113.62 236.142 112.77 235.314 111.72 235.314C110.671 235.314 109.82 236.142 109.82 237.164C109.82 238.186 110.671 239.015 111.72 239.015Z" fill="#444E59"/>
<path opacity="0.3" d="M102.372 208.481H121.106" stroke="#444E59" stroke-width="4" stroke-miterlimit="10" stroke-linecap="round" stroke-linejoin="round"/>
<path opacity="0.3" d="M106.096 214.218H117.876" stroke="#444E59" stroke-width="4" stroke-miterlimit="10" stroke-linecap="round" stroke-linejoin="round"/>
<path opacity="0.3" d="M102.372 219.437H121.106" stroke="#444E59" stroke-width="4" stroke-miterlimit="10" stroke-linecap="round" stroke-linejoin="round"/>
<path opacity="0.62" d="M111.72 199.598C114.071 199.598 115.976 197.742 115.976 195.453C115.976 193.164 114.071 191.308 111.72 191.308C109.369 191.308 107.464 193.164 107.464 195.453C107.464 197.742 109.369 199.598 111.72 199.598Z" fill="white"/>
<path d="M117.876 225.173C117.876 226.321 116.926 227.246 115.748 227.246H107.73C106.552 227.246 105.602 226.321 105.602 225.173C105.602 224.026 106.552 223.101 107.73 223.101H115.748C116.926 223.064 117.876 223.989 117.876 225.173Z" fill="#ED8B3B"/>
<path d="M322.316 236.091H230.242V182.203C230.242 180.612 231.572 179.316 233.206 179.316H319.39C320.986 179.316 322.278 180.575 322.278 182.129V236.091H322.316Z" fill="#BBBFC2"/>
<path d="M322.544 236.202H230.508V182.166C230.508 180.538 231.876 179.206 233.548 179.206H319.504C321.176 179.206 322.544 180.538 322.544 182.166V236.202Z" stroke="#444E59" stroke-width="4" stroke-miterlimit="10" stroke-linecap="round" stroke-linejoin="round"/>
<path opacity="0.71" d="M317.5 231.437V183.99H235.61V231.437H317.5Z" fill="#5D5D5D"/>
<path opacity="0.32" d="M255.626 222.397H248.558C248.14 222.397 247.798 222.064 247.798 221.657V198.081C247.798 197.674 248.14 197.341 248.558 197.341H255.626C256.044 197.341 256.386 197.674 256.386 198.081V221.694C256.386 222.064 256.044 222.397 255.626 222.397Z" fill="#848484"/>
<path opacity="0.32" d="M306.66 227.171H265.848C265.012 227.171 264.328 226.505 264.328 225.691V195.305C264.328 194.491 265.012 193.825 265.848 193.825H306.66C307.496 193.825 308.18 194.491 308.18 195.305V225.691C308.18 226.505 307.534 227.171 306.66 227.171Z" fill="#848484"/>
<path d="M317.428 231.213V184.173H235.614V231.213H317.428Z" stroke="#444E59" stroke-width="4" stroke-miterlimit="10" stroke-linecap="round" stroke-linejoin="round"/>
<path d="M332.576 236.202H220.438V239.681C220.438 241.31 221.806 242.642 223.478 242.642H329.536C331.208 242.642 332.576 241.31 332.576 239.681V236.202Z" fill="white"/>
<path opacity="0.8" d="M224.732 242.864H328.32C330.41 242.864 332.12 241.309 332.5 239.2H220.514C220.894 241.309 222.642 242.864 224.732 242.864Z" fill="#BBBFC2"/>
<path d="M332.576 236.202H220.438V239.681C220.438 241.31 221.806 242.642 223.478 242.642H329.536C331.208 242.642 332.576 241.31 332.576 239.681V236.202Z" stroke="#444E59" stroke-width="4" stroke-miterlimit="10" stroke-linecap="round" stroke-linejoin="round"/>
<path d="M254.334 195.453H245.784V203.781H254.334V195.453Z" fill="#F09F54"/>
<path d="M254.486 195.527H245.936V203.855H254.486V195.527Z" stroke="#444E59" stroke-width="4" stroke-miterlimit="10" stroke-linecap="round" stroke-linejoin="round"/>
<path d="M254.486 195.527H245.936V203.855H254.486V195.527Z" stroke="#444E59" stroke-width="4" stroke-miterlimit="10" stroke-linecap="round" stroke-linejoin="round"/>
<path d="M254.334 203.781H245.784V212.108H254.334V203.781Z" fill="#8D91DB"/>
<path d="M254.486 203.892H245.936V212.219H254.486V203.892Z" stroke="#444E59" stroke-width="4" stroke-miterlimit="10" stroke-linecap="round" stroke-linejoin="round"/>
<path d="M254.334 212.108H245.784V220.435H254.334V212.108Z" fill="#6567C3"/>
<path d="M254.486 212.219H245.936V220.547H254.486V212.219Z" stroke="#444E59" stroke-width="4" stroke-miterlimit="10" stroke-linecap="round" stroke-linejoin="round"/>
<path d="M304.19 224.618H263.34C262.504 224.618 261.82 223.951 261.82 223.137V192.751C261.82 191.937 262.504 191.271 263.34 191.271H304.19C305.026 191.271 305.71 191.937 305.71 192.751V223.137C305.71 223.988 305.026 224.618 304.19 224.618Z" fill="white"/>
<path d="M304.19 224.618H263.34C262.504 224.618 261.82 223.951 261.82 223.137V192.751C261.82 191.937 262.504 191.271 263.34 191.271H304.19C305.026 191.271 305.71 191.937 305.71 192.751V223.137C305.71 223.988 305.026 224.618 304.19 224.618Z" stroke="#444E59" stroke-width="4" stroke-miterlimit="10" stroke-linecap="round" stroke-linejoin="round"/>
<g opacity="0.3">
<g opacity="0.3">
<path opacity="0.3" d="M292.866 215.846V216.401H292.296" stroke="#444E59" stroke-width="2" stroke-linejoin="round"/>
<path opacity="0.3" d="M291.574 216.401H275.652" stroke="#444E59" stroke-width="2" stroke-linejoin="round" stroke-dasharray="2.86 2.86"/>
<path opacity="0.3" d="M275.272 216.401H274.702V215.846" stroke="#444E59" stroke-width="2" stroke-linejoin="round"/>
<path opacity="0.3" d="M274.702 215.069V200.635" stroke="#444E59" stroke-width="2" stroke-linejoin="round" stroke-dasharray="3 3"/>
<path opacity="0.3" d="M274.702 200.265V199.709H275.272" stroke="#444E59" stroke-width="2" stroke-linejoin="round"/>
<path opacity="0.3" d="M275.994 199.709H291.916" stroke="#444E59" stroke-width="2" stroke-linejoin="round" stroke-dasharray="2.86 2.86"/>
<path opacity="0.3" d="M292.296 199.709H292.866V200.265" stroke="#444E59" stroke-width="2" stroke-linejoin="round"/>
<path opacity="0.3" d="M292.866 201.005V215.476" stroke="#444E59" stroke-width="2" stroke-linejoin="round" stroke-dasharray="3 3"/>
</g>
</g>
<path d="M276.146 198.415H273.448V201.042H276.146V198.415Z" fill="white"/>
<path d="M275.994 198.303H273.334V200.894H275.994V198.303Z" stroke="#444E59" stroke-miterlimit="10" stroke-linejoin="round"/>
<path d="M276.146 215.07H273.448V217.698H276.146V215.07Z" fill="white"/>
<path d="M275.994 214.995H273.334V217.586H275.994V214.995Z" stroke="#444E59" stroke-miterlimit="10" stroke-linejoin="round"/>
<path d="M294.234 198.415H291.536V201.042H294.234V198.415Z" fill="white"/>
<path d="M294.196 198.303H291.536V200.894H294.196V198.303Z" stroke="#444E59" stroke-miterlimit="10" stroke-linejoin="round"/>
<path d="M294.234 215.07H291.536V217.698H294.234V215.07Z" fill="white"/>
<path d="M294.196 214.995H291.536V217.586H294.196V214.995Z" stroke="#444E59" stroke-miterlimit="10" stroke-linejoin="round"/>
<path d="M250.23 208.185L252.928 213.811L255.55 215.143L257.374 213.367L256.044 210.776L250.23 208.185Z" fill="white"/>
<path d="M250.23 208.185L252.928 213.811L255.55 215.143L257.374 213.367L256.044 210.776L250.23 208.185Z" stroke="#444E59" stroke-miterlimit="10" stroke-linejoin="round"/>
<path d="M253.65 212.071C254.049 212.071 254.372 211.756 254.372 211.368C254.372 210.98 254.049 210.665 253.65 210.665C253.251 210.665 252.928 210.98 252.928 211.368C252.928 211.756 253.251 212.071 253.65 212.071Z" fill="#444E59"/>
<path d="M250.23 208.185L253.232 211.109" stroke="#444E59" stroke-miterlimit="10" stroke-linecap="round" stroke-linejoin="round"/>
<path d="M257.385 213.337L255.558 215.117L256.875 216.399L258.702 214.62L257.385 213.337Z" fill="white"/>
<path d="M257.385 213.337L255.558 215.117L256.875 216.399L258.702 214.62L257.385 213.337Z" stroke="#444E59" stroke-miterlimit="10" stroke-linejoin="round"/>
</svg>
